<mxfile>
    <diagram id="nP-OY_wl-n511qJIP8V6" name="Page-1">
        <mxGraphModel dx="1953" dy="1345" grid="1" gridSize="10" guides="1" tooltips="1" connect="1" arrows="1" fold="1" page="1" pageScale="1" pageWidth="1169" pageHeight="827" math="1" shadow="0">
            <root>
                <mxCell id="0"/>
                <mxCell id="1" parent="0"/>
                <mxCell id="2" value="" style="edgeStyle=none;rounded=0;jumpStyle=none;html=1;shadow=0;labelBackgroundColor=none;startArrow=none;startFill=0;endArrow=classic;endFill=1;jettySize=auto;orthogonalLoop=1;strokeColor=#2F5B7C;strokeWidth=3;fontFamily=Helvetica;fontSize=16;fontColor=#23445D;spacing=5;" parent="1" source="5" target="10" edge="1">
                    <mxGeometry relative="1" as="geometry"/>
                </mxCell>
                <mxCell id="3" value="" style="edgeStyle=none;rounded=0;jumpStyle=none;html=1;shadow=0;labelBackgroundColor=none;startArrow=none;startFill=0;endArrow=classic;endFill=1;jettySize=auto;orthogonalLoop=1;strokeColor=#2F5B7C;strokeWidth=3;fontFamily=Helvetica;fontSize=16;fontColor=#23445D;spacing=5;" parent="1" source="5" target="12" edge="1">
                    <mxGeometry relative="1" as="geometry"/>
                </mxCell>
                <mxCell id="4" value="" style="edgeStyle=none;rounded=0;jumpStyle=none;html=1;shadow=0;labelBackgroundColor=none;startArrow=none;startFill=0;endArrow=classic;endFill=1;jettySize=auto;orthogonalLoop=1;strokeColor=#2F5B7C;strokeWidth=3;fontFamily=Helvetica;fontSize=16;fontColor=#23445D;spacing=5;" parent="1" source="5" target="9" edge="1">
                    <mxGeometry relative="1" as="geometry"/>
                </mxCell>
                <mxCell id="5" value="Current Electricity" style="rounded=1;whiteSpace=wrap;html=1;shadow=0;labelBackgroundColor=none;strokeColor=none;strokeWidth=3;fillColor=#2F5B7C;fontFamily=Helvetica;fontSize=16;fontColor=#FFFFFF;align=center;fontStyle=1;spacing=5;arcSize=7;perimeterSpacing=2;" parent="1" vertex="1">
                    <mxGeometry x="1082" y="810" width="150" height="70" as="geometry"/>
                </mxCell>
                <mxCell id="6" value="" style="edgeStyle=none;rounded=1;jumpStyle=none;html=1;shadow=0;labelBackgroundColor=none;startArrow=none;startFill=0;jettySize=auto;orthogonalLoop=1;strokeColor=#E85642;strokeWidth=3;fontFamily=Helvetica;fontSize=14;fontColor=#FFFFFF;spacing=5;fontStyle=1;fillColor=#b0e3e6;entryX=1;entryY=0.5;entryDx=0;entryDy=0;" parent="1" source="9" target="25" edge="1">
                    <mxGeometry relative="1" as="geometry">
                        <mxPoint x="763.6412213740459" y="746" as="targetPoint"/>
                    </mxGeometry>
                </mxCell>
                <mxCell id="7" value="" style="edgeStyle=none;rounded=1;jumpStyle=none;html=1;shadow=0;labelBackgroundColor=none;startArrow=none;startFill=0;jettySize=auto;orthogonalLoop=1;strokeColor=#E85642;strokeWidth=3;fontFamily=Helvetica;fontSize=14;fontColor=#FFFFFF;spacing=5;fontStyle=1;fillColor=#b0e3e6;entryX=0.75;entryY=0;entryDx=0;entryDy=0;exitX=0;exitY=1;exitDx=0;exitDy=0;" parent="1" source="9" target="32" edge="1">
                    <mxGeometry relative="1" as="geometry">
                        <mxPoint x="753" y="845" as="targetPoint"/>
                    </mxGeometry>
                </mxCell>
                <mxCell id="9" value="Circuits" style="rounded=1;whiteSpace=wrap;html=1;shadow=0;labelBackgroundColor=none;strokeColor=none;strokeWidth=3;fillColor=#e85642;fontFamily=Helvetica;fontSize=14;fontColor=#FFFFFF;align=center;spacing=5;fontStyle=1;arcSize=7;perimeterSpacing=2;" parent="1" vertex="1">
                    <mxGeometry x="802" y="815" width="150" height="60" as="geometry"/>
                </mxCell>
                <mxCell id="10" value="Applications" style="rounded=1;whiteSpace=wrap;html=1;shadow=0;labelBackgroundColor=none;strokeColor=none;strokeWidth=3;fillColor=#F08705;fontFamily=Helvetica;fontSize=14;fontColor=#FFFFFF;align=center;spacing=5;fontStyle=1;arcSize=7;perimeterSpacing=2;" parent="1" vertex="1">
                    <mxGeometry x="1082" y="675" width="150" height="60" as="geometry"/>
                </mxCell>
                <mxCell id="12" value="Current" style="rounded=1;whiteSpace=wrap;html=1;shadow=0;labelBackgroundColor=none;strokeColor=none;strokeWidth=3;fillColor=#12aab5;fontFamily=Helvetica;fontSize=14;fontColor=#FFFFFF;align=center;spacing=5;fontStyle=1;arcSize=7;perimeterSpacing=2;" parent="1" vertex="1">
                    <mxGeometry x="1382" y="815" width="150" height="60" as="geometry"/>
                </mxCell>
                <mxCell id="14" value="" style="edgeStyle=none;rounded=1;jumpStyle=none;html=1;shadow=0;labelBackgroundColor=none;startArrow=none;startFill=0;jettySize=auto;orthogonalLoop=1;strokeColor=#12AAB5;strokeWidth=3;fontFamily=Helvetica;fontSize=14;fontColor=#FFFFFF;spacing=5;fontStyle=1;fillColor=#b0e3e6;entryX=0;entryY=0.5;entryDx=0;entryDy=0;exitX=1;exitY=0.75;exitDx=0;exitDy=0;" parent="1" source="12" target="22" edge="1">
                    <mxGeometry relative="1" as="geometry">
                        <mxPoint x="1590" y="876.0333333333333" as="targetPoint"/>
                    </mxGeometry>
                </mxCell>
                <mxCell id="16" value="" style="edgeStyle=none;rounded=1;jumpStyle=none;html=1;shadow=0;labelBackgroundColor=none;startArrow=none;startFill=0;jettySize=auto;orthogonalLoop=1;strokeColor=#12AAB5;strokeWidth=3;fontFamily=Helvetica;fontSize=14;fontColor=#FFFFFF;spacing=5;fontStyle=1;fillColor=#b0e3e6;entryX=0;entryY=1;entryDx=0;entryDy=0;exitX=0.75;exitY=0;exitDx=0;exitDy=0;" parent="1" source="12" target="17" edge="1">
                    <mxGeometry relative="1" as="geometry">
                        <mxPoint x="1518.843971631206" y="736" as="targetPoint"/>
                    </mxGeometry>
                </mxCell>
                <mxCell id="22" value="Electromotive Force (e.m.f.)" style="swimlane;gradientColor=none;strokeColor=#61C6CE;startSize=23;fillColor=#00BFBF;fontColor=#000000;" parent="1" vertex="1">
                    <mxGeometry x="1770" y="966" width="420" height="275" as="geometry"/>
                </mxCell>
                <mxCell id="23" value="\[\varepsilon=\frac{E}{q}\quad (\mathrm{E\ is\ work\ done\ by\ non-electric\ field\ force})\]" style="rounded=1;whiteSpace=wrap;html=1;shadow=0;labelBackgroundColor=none;strokeColor=none;strokeWidth=3;fillColor=#61c6ce;fontFamily=Helvetica;fontSize=14;align=center;spacing=5;fontStyle=0;arcSize=7;perimeterSpacing=2;fontColor=#000000;" parent="22" vertex="1">
                    <mxGeometry x="9" y="30" width="401" height="60" as="geometry"/>
                </mxCell>
                <mxCell id="129" value="Cells in series" style="swimlane;gradientColor=none;strokeColor=#61C6CE;startSize=23;fillColor=#00BFBF;fontColor=#000000;" parent="22" vertex="1">
                    <mxGeometry x="9" y="100" width="401" height="80" as="geometry"/>
                </mxCell>
                <mxCell id="130" value="\[\varepsilon_{total}=\sum\varepsilon\]" style="rounded=1;whiteSpace=wrap;html=1;shadow=0;labelBackgroundColor=none;strokeColor=none;strokeWidth=3;fillColor=#61c6ce;fontFamily=Helvetica;fontSize=14;align=center;spacing=5;fontStyle=0;arcSize=7;perimeterSpacing=2;fontColor=#000000;" parent="129" vertex="1">
                    <mxGeometry x="9" y="30" width="381" height="40" as="geometry"/>
                </mxCell>
                <mxCell id="131" value="Cells in Parallel" style="swimlane;gradientColor=none;strokeColor=#61C6CE;startSize=23;fillColor=#00BFBF;fontColor=#000000;" parent="22" vertex="1">
                    <mxGeometry x="9" y="190" width="401" height="80" as="geometry"/>
                </mxCell>
                <mxCell id="132" value="\[\varepsilon_{total}=\varepsilon_1=\varepsilon_2=...=\varepsilon_n\]" style="rounded=1;whiteSpace=wrap;html=1;shadow=0;labelBackgroundColor=none;strokeColor=none;strokeWidth=3;fillColor=#61c6ce;fontFamily=Helvetica;fontSize=14;align=center;spacing=5;fontStyle=0;arcSize=7;perimeterSpacing=2;fontColor=#000000;" parent="131" vertex="1">
                    <mxGeometry x="9" y="30" width="381" height="40" as="geometry"/>
                </mxCell>
                <mxCell id="25" value="Resistors in Series" style="swimlane;gradientColor=none;startSize=23;fontColor=#000000;fillColor=#DE7A73;strokeColor=#DE7A73;" parent="1" vertex="1">
                    <mxGeometry x="320" y="690" width="300" height="250" as="geometry"/>
                </mxCell>
                <mxCell id="133" value="" style="shape=image;verticalLabelPosition=bottom;labelBackgroundColor=#ffffff;verticalAlign=top;aspect=fixed;imageAspect=0;image=data:image/png,iVBORw0KGgoAAAANSUhEUgAAARsAAACFCAIAAADkVMvxAAAgAElEQVR4Ae1dCVhUVfvH+ueCC8iO0ma4VSom+76LW4pLappZX3uyLwODCEq4Zu5llmWapeb2Waa55Jdmaqa4QeKG4g4KgsAwM3f5P+/73nscEQ1hGHse7rWPuXPn3HPe3+9dznuWez8zUTkUBhQGjMeAmfGqUmpSGFAYEBWPUoxAYcCYDCgeZUw2lboUBhSPUmxAYcCYDCgeZUw2lboUBhSPUmxAYcCYDCgeZUw2lboUBhSPUmxAYcCYDCgeZUw2lboUBhSPUmxAYcCYDCgeZUw2lboUBhSPUmxAYcCYDCgeZUw2lboUBhSPUmxAYcCYDCgeZUw2lboUBhSPUmxAYcCYDCgeZUw2lboUBhSPUmxAYcCYDCgeZUw2lboUBhSPUmxAYcCYDCgeZUw2lboUBhSPUmxAYcCYDCgeZUw2lboUBhSPUmxAYcCYDCgeZUw2lboUBhSPUmxAYcCYDCgeZUw2lboUBhSPUmxAYcCYDCgeZUw2lboUBhSPUmxAYcCYDCgeZUw2lboUBhSPUmxAYcCYDCgeZUw2lboUBhSPUmxAYcCYDCgeZUw2lboUBhSPUmxAYcCYDCgeZUw2lboUBhSPUmxAYcCYDCgeZUw2lboUBhSPUmxAYcCYDCgeZUw2lboUBhSPUmxAYcCYDCgeZUw2lboUBurgUYIo/RMEQcT/iXAiwl9RhBP8wG8CHnAVvtJ/d8pQSfmvdDvcQeWxUrk+uZTRPklOJhU7qSkeigPySxDgg8BADTJaFIuKUFmEgBdkvowm+X0rultU4lwSDD4QgqQpOse/9AtiIUQotVxckl5Szn2bbtAPMkOSgCQK8iyZmlS7YTn8BUtKOpA0IauETJNQoOHh76xQg+R9qJv/2aMYLKiXSQhX77pg8CP5GxTGM9K7zAhelgpLqpSqhQrlah8KQ10Ky+6LIkmCSeIZNkvtMylYSEAd3QEsF4NbqWZ0ujsF7hBVF+HqXIZRRC4u0fhPt0sSysVkiWW2UZGGZQzhyzcZ87OG5aA8JAS2Qj8zbHd/lVVX01IkjRAMLIS6gQpZBcbEcP+6/tmjUHYQWHYPitnwHWSVVUG80G9YWO4EsNAdZBJmrBCvolvRH6mp+0vbkF8kzmWGiXX5ImOdYOFfQIT/SRKiaugG+VSmAK9CMbynEWGQnES8pBKpVeqRiCBJCvoFChMQudOSwwADL52w8kSCgXIbwnst90J7+A/5ggJEuHxZQiF/leRC8YF5djs5C0kry4xVypClAky7tchi9Ev/7FEyz4Ig8LzAC7zIizwPSuMldCiUIOBXKEAngiBweBFuJNLwL7IHtGAlWCdPhBIZsosaFyqzfRAJ/uNAfpCZx6ggkQ6C8MyN6IRDvFCa2ZhcmyEEkB74gZukaGNcCBKHUD3WjwDoXOCRYfwLjRKHiJRHmAgVZGMHlkJvE3iecMBvPC9yCOIOWOOjkBlCgYgxaJoTeDALZgASkzzqRKIUZSTZJJVJXiODw08wPNQrljQ6gAdW+M8eBT4EOHkeIMsaAZio2Du4yP7AWHmBA7eS1Ij3kBGQGtHieAFrk82XfBRrf6C89f3RAAVCgfZASbygl4TCmhk8sDIUnD7ILKEI6hs9Cn0PrZZCDfwGsYEqqq+gD7wPOQdZQCcY3mQwZHaSMsiOBBHkQoyIBpBg7ELohAV0CGrieahQKoFBEetgxv1AqR72R2JPEg1lBOYkVHeC0V1g5WhFqFngA4WQGaLm0KgwrNEf9E4Kfw8rZL3L/7NHkZlQh4Nygimiw2BfBH/gQPygaeknSZscxhxALdsiRFNUHVJIPgq6BpvAAC9VWG9Itd6I+kPrkpTHgSnJcpNsCENyd9QgB3GTbhJRPMo4UI0oKhAhQrRB0Ul8qAD/1SpHwy5iCxSpIGYJAieShHLXStWTNOhs1G1iskA+A7mFHO/R+yUDlPyJeSiEUWKoYSLXcjf6KfkwRDQAAlj0GCcgeksoUDvUaYHBgNVgFBYha0CKsaSkINQY1kUYABB2BpQi1SJH41z6Z4+iKEaBAExMz3OgTcmIMAqAaEgTeRTHcTwHmuagECSHFG7QgOEcbtbzUA8oHBMN8lvZ/YyPFRNPNH7UBgcyShDI/qhJ8gV0I4HjOD0HKsRyGAxluagnosgCWBEpBlopFZbjjHyDkT6ZJXFgf9DLQ+vIIuURUjuEFjNbKMNxlH+TtbKYTb00qYPj9WCBECFApWDAoHgjyX13NZgcgB+A8iEegb1wgp5sCXyFDowfCBlUwHMCUi31xqgCsigRxiGgJ5FHlUG1YE+coeHdLUIjfrvHowgOBUO0NQgG2LMSyyQLD2YkMYMRj76QjUp6gPJojVgDdT9S9GZKRatGZg3NG/3T0AsfigBm7jIISUBqVFIT1ihlp9BnknjUTcI5z92xJviVIgoSIv9B05MlIyBo5HJhSkiwgGwjcun6fmLTKApZkFQPxniUXQJAH6LACRxrCmIciAyaopRBIoSNvjDgcNRZySCpOJaUeWU11vcEZZDFBdeVqMY8RRadoEpioOthc9hZobFJFdwpDy6FhzQig5jODFKyJhmDsRRSCwV3eZREMX1QrwPcU5QGt6+orPoz98L1m2UoK4gLIQSzINQzhGm9njt+6tL5qyV4GUIpgJb8UkrteY4/VXDtZMEV1CbhJvAsP6TwU0/kEgK56yQJpQAAIVF/6sL13LMXweTkg+yf9CiiIZ67WJx75qJWh8EbpCN1EYkgsyiKl66XHMorrK7WYncriDwGWqpFMl28rZ44qC3Dv9gqhHegvbik7OCJC9U6HXYv0KpUVJpvgeHs7cqqQ7mFN2+VQZfDkzowY5IcE6qq1FQfzb98+TqoDCcmEC3pTW6c6mYtyJfr90mqgKgsCnxFlebwycIr10vlJmBOgXpIgIR2wXO6o/mXCq+W4J1wiaIcaQ29CuzzbGFx3rmLMjI9BhDJ5TA3guL0r35y1+WuuzzqjgWSdtAysAPF2QaO+2T5drOu7/R/f0FVdbU8msRCKLZODxHx6437WrvHeI795NylYg5SJ5qjQK8SBD0HZfYcPmcboHIKT809ew2nMjiojbCjXdxxQ/LUukCRy7A4ZABC0gynB0M8mn/JPlht7Z+Q8/cF+IGyBNAVBA9Kfgqv3eozcnoL15jvNx8URVGnN5iVEQRIBnmhpKyif9RnZi9+kLXkZxocAgIQGEQxjA1YtyxfAz6pespXyys0o1RLzbq+Pefbnag46JEkjaEV0igo8ZN1Zl3fjZq2ukqj1UkZopTJirykjs/W7G7W872I9+bfrtJCIklJFDIjh3lCQ7AaAABvReVCp66HdJRftGq32QvvB789X6eHWSI5X0BliCCOIAg/781t4x7XZ8TUsxeLBVHU6/VkITSoIMM7eOJ8p4h0x+DUP08UwrAMKoLROaoCukLSMGKQQ09DodRy/10ehVaPdi3ZFXkT5K+iKF4tLn0xcopTuLq1R+wvf5yEPB5CMsxFoCHCCKu6Whf89lzrgCQLz/gZy7aKAF6HIQX+gMp5Qavjomb80Mo1xj5I9e6Ub4FEabgCHNDcPLKBOSP8XIvcD7iEYQwIl0GAgJjgQa06nT5x5g/mHrF2Qcmvp62AeqQbIKEXRCggimLmZz/aByS38YqNjFlSVqGB+6Eb4qAqXtDpdaIort+e084rrmNIaufBU27cqiRrxj4dk3jSJ7oX+dgDZK7jTzhAEPU8SLh5z4l2XvFOoeougzKKSm5jaICojAk5DuJFIefkpSf7pjkEpzgGpezNOQ2hQUczy5wI41jwwILLNzzGzLL0S3AMUa3beRjsldRBUIFI1LDAIVEPqYzagFHAAccVxYvXbrqNmm4XmGztn7x662EwErl11B+wLYpi6H/mOwQnt3SPmr50K2gCR4+YIeGAnOe1Ot2HU79v5RVrF6AanbwUjYqsV7JhdC+MNGjgtcllnGt3exRYNEQlbBkXbfA7TjELSzf8YeGT0DE8zSYwecAHCzEu8hxkCaAYnV4riuLabUefClN3DEu19E0MfXf+laJSOVqAUfEcZB3HT19+OjytQ1iaQ6DKeWBG/oXrEo/QLM8LegEdFc+lfuvhsKKHyB0eqIQCLZ4IZy9ftw9SPRmutg9KeTpi4qnz0DpaIbgTzboUl1T4jp9t5ZP4ZN9Um0DVlt0nIDSAprFDxQrLbmteSfiijXf8k2GpjsEpi1bvxjK8CCNsAgKBhpomYR4ORW2lqUcVBKFKqxufvszSJ+6psDQb/+QF3/0mBSbEzgu8TgdBMG7GD+39Ep6NmNjCdULa/E2cHgK3pF45X/h204GWblHP9p/U3js+Mm4xoOB1HK/DACEIIgQSMkdoAu27NtEe4hrWLJI/r/zpgLl7zNMRE638EgPfmAtZJ6dH+4PEVq8HN97118knwyY6hKTaBqR4jJl5uaiMqMapL17HQXQ7fvrSC0OmOASn2AUkdx3yUc5J7KZgMAzalSCQOkzpUegk0D2CzYg4v4wK4AVBq9N7jZ1lF5BkF5hkG6jqGJJy4EQhSIrTSJwg6PUwM/ZGxsqWblFOIalO4antPGPXbMOoA4MLOdMQxewvt7T1SOgQrHIIVtkGJKUt3ERpldTXUeaF4EGTD49fuodsGbQHrdMBnc/ize18Eh2C1NR65ueQsNHEHy8I1Zh4fLl+r31ASocQVYeQVHOP2PeyvtfppLk1jNdQ4b6jBVZ+CR1DVI5Bqe284sPemVet1UMXJq/5YMIhp2EPj6JWCyXLFgThcG6hlW8CGllye99E97GzKqsgFyCH0XHA+MmCK31GTWvvl2QdmOwYnNp54JSzl4oFEQZX1NsKgnDzVkXoO/Ns/JLsAsFen+uXtnVvnigKOkir4JBWeMgWKVTVKtnDXGRxobJKG/buPFv/BLugFOuApKcj1Fv35oqiqNXrCYkWelRxXNo3Ft7xDiHJjiGpbTxil2/ahzVIRkU58Iyl21q5x3QITXUKU7X2jFMv+K8oCtU67LTJ9qR9CdAxQufWaMfdfZSUotCYRjJEGvl8v/WgXbDK1j/VeUDGs/3TLXzixk/6BmwRIzIlsrsPnnoqTO0YktpzePbT/SZaeCcOi/28SqOBYhjmBEEoKr3dZeAkG7+EXiOyOw/MaOMZ4z121vWb5Tifjp4ncHq9XkeBHpUqT5HUmQP5LoxOyDskMJDtVFRWdxuSYekT7zIiu9vgSeZecS4jsotKKuQEA6SsqtYOj/+8pXv0s/3S3Udl2wel2AYlHcGYB0sHMGkB+ngr81tL7/inw9XOgzI7hE60C0peufkAWAP4HoxEOJ7XwawGJC3AqzFSd4oOoihEz1hj6Rv/XMTEFyI/cgxN6RCauuInaF2HQyVUhzB96ZY2nvHPRkxyGT7VLkhl7hk9b+WvkptAIg8xbtv+vJZuMXaBqt6vZD/VT93SPfaDqWt0ephewvELjMz0Og5CBWZ9OB9QZ0XctyB2G4Kw/Y+Tln7xVn7JfV6Z0XVgZiuPuHemrNRznA76Ul6nh37ywPGCbkMmW/kmdn0586URU9t7x/f9YJ5GqwVSKWkQhCtFt9xHT7cKSO79SrbzgAxL3yTPsbNOXSiC/AhUBgMAjuOQHJxSN0ZPez9wZmC+dx9anV6n1Wm1Oq1Or9XpqrVaTbVuePwX7bxiOg3IWLvt8PCkL57o/WHPYdmnCovAE2CAyVdrdanz/vt47wkdQlK+Wr93fPoKS7/49v6Juw7mU0yivHnu9zvtA1Me6xM1Z8WO5DkbrPySrH2T56+EsXU1xEWwfJJVr9PrdOBbd0tXh28gtV6n12q11TqdFm+o1lRX8Tw/e/l2x6DUx1yispduyfj0p7ZecbYBybNXQOtarRZyDFHc9L8cu6BE68DksanLvtvyZxuvOGu/xKRP1oFjQHAHFz1z4Vqn/untvOIHTFj0w7a/Og+c/ESfCePTvqmorKa1OAit8qFDaeqB416oWq1Or9dfvHrDedDk5q5Rg6OXbNhx+PnIKU/0jh6asASmHuCAUXtxaXnf9+c1d43tPXLajv153QdPsfFP6jNyakUVBDhkGdamh8R8ah+QauOftP1AXr/3F7X1ius2ePLh/IvonDoCSzgk+R9eG/eiIKUIojg4erFNYJKVv2rDr8cGfLCglXtMtyFTDhwvEARRCw2BOtTzN7boE+UYqv5kxa8pczb+X+8JtgHJW37PhQ4ZZ/pFUfzu50NtPONauUVnL9mSMve/DsEpzV+a8NkayMN1cvpBKNCvapOotmsczqLhbJCsyzp83tVH3a/8gROFnQdMauUa/XIM5NnTvtxqG5Dc1js+dc5GURSrqiGRPX+5uPuQTNtA1YtDp+j13Na9J1p7xNgFJI9PX07JJM/zFRqt7+szLXziukdm5525WHit5Mm+6pau0YOjPy8pu42zB3pRFH47fPa7LfvvJ0xDrgf+Z3Zrj/gugzP/yj1/8Wppl0GZLdyiB3z46Y3SChyHQ1z48KPvWrpHW/sm7s45U1pW5TtuloVvYteBGVeKbtF4TxTF9EX/tQ9KbuEeQ7Eg+J251v6JT4Wqfz98BkKDFmYOTpy7tuD7XVeKbzVE4Frvnbz4Z7sAlaVPwuxvdnA8Fxn3uaVv0tN907f9ASmTRlstiuKarQfb+yTaBiS+89EqnufS5oMt2gelfLMRiNVDB8QfOXmxY6i6lUf0SNVSrU6/ZM0e20BVS7eoyZ9t5vQCx2sFQdBo9Ss2//ln3vlaJWnIxbxzRc4DM1q5xUTGfa7nuEWr/ucQDK1nfLoZONRpRUE8deG6+6vT23kn9hwxtaJKu3nPMccQGDcOjfsCx3sQ3aq1+uC359oEqJ6NmHj01KWikvKnI9La+yaGvTu3qOS2CCN8UMdvf+Yv3fhHQwSu471mkZGRneXD2fDEGb45d+7auXPnZ7xfswuZaBec9P3Ph3heuFpc6jL8o1auMb6vzy64WIyzX9z873618E5o5xU/Z+UuQRRLyyoHRy9u6xHbaUDm8dNXaCZ31ZY/nwxXm7vHRmWvwmRSGJPytV2Qqr1PwpbfYfTPC8KRkxc79c98tn/GCx4RIA6KIctVt0+C4QzSUwXOnbt07ty5i3tExzB1C/eYcWnfUPI9Pv0bG/8k24DktdtyyO1zcgudwtJsAlQDPlx0u7JaEISPl+1o5RZjF6SatWwbRnf+SnG526jprT1jvcZ9fPZSMc8LP2w/bBOQ2NojLnH2Wq0WVodu3ioflfRVO5+EF8Lf69y5i7OzMwlTNwA1S4H0cEA9Xbr3dPSb0MYnsdeIj3LPXhYE4futf3YMS23pGvfh1JUabL30duXwxCVtvWLt/JP3H4WQv+ev/E4D0tv7JYW/MxdnnyH8j0tbZhugsvJNXPnznzCXe6O0+6Asa3/VS6OmXrpaQrF50ar/tfGIfWHYlC4v9qmfNiTZDT5IHc/6ju8QPNHCN/GL9b+LonjrdlX3IZPb+yW5jZ529hLkPoIgfLluTwvXGPtA1aSFP2Ko0ryS8GWLPtFdBmXuP3aOJNy+/+8OoSpz99h3p3xPWca7U76z8U9s7RG9dW8uViMczD3fc1iWQ0jqi75DQRBm6AZSGZ527QpmP378eEEQtJBhwji4rh4VHh5uh4c9HHb4197O3gFPHBzsO9rb2zv7jX2yX1bgG7OrqmH+QRTF2FlrbIJVbX3ilm3cKwjizdLbfUZOtQtKebb/pNPnIX8VRfHztbstvONsA5JS566nuYfBsUtauUU9N2DSzgP5JOWug/l2QamtPWLfzFih0UJfF/fx2lauUXahEx27+d4RiMSqx18JkIO9nd2zPQKeCVd3j8zavi+XJjx2HzrVIVTV2iPm1aSlFZWQDk1c8KOFV6yFT8K3mw+SMg7lXeg5NLuNV5z7mBlVVRD+P1v9W4eQ1Hae8cmIS+CF25XVvV+ZZheY/Gy/Sblnr4qiuHP/ydbuMU7hE528xtdD6ntuYXqxs+/QoXPfGMfQNPW89QJkNTqdnvMd97Gtf3Kn/pOO5F8UBOG3Q6et/ZKs/BPHpi7FVSiYIHkzY0XzPtFP95u0fucRnhdyz15/MXKKuVtU2HvzrhTfovmwzM9+tPSJb+sZ982P+0RRvFxcGvzWPEufhKfCUjs81fUeqep7wQGsy9l3rGOoesCEBSW3K3B4xk/74hdrv6QWbrGfrt0tCOL1G+UBb3xs7Z/0dL/0gss3yai+3LC3Q4jKwjv+/amrIGXghWGxX7T3TXQKV2/ec5yC8v5jBdaBKpuA5CExSzSaap7nJy38+YneExxDJzp0D6yL0I6Ojvb29q+88goNB6jpOjpVnbK+yirtL3vy8guuUZCGgcT5a05haguvhL7vL7xdWb1u+2Eb/+QWrhPSF/6Ic36QVVwqKvN745MWrjHPD8kqq9Ds2Pf3MxEZFj4JwxNwihYWW4VqrS78vfk2QUlWfoknzly5Wnyry8uZtv4qjzEzNJhG1zEw1LHY/w6d2nP4LCQMMM6GODgoarFNQLJjiPqPowW3yiufjkiz8kvxem3WVcjWBC06efS0H9q4R3cISftq4x8czwe/Pa+5a/TzQ7NOnL4KY19MKpau+721e3w7n/hZy7frOe61tG8s/VUW3gl7/oJVIOMeeQVXN+/5u6xcQzPDoiguXrvbOiCxpWvMXFztfTPzW2v/JAvvhK178sgmRFHc8GvOMxHqNh4Jr6q/EkUxed4GC99424CU2cthGKmphmBx7PSVp8In2gQm+7/5sVarX7/zcGuPuPb+KtWcDcaFIIpiZZVu8+7j+RfAqGBlQhALLt9wDEmxC1J5jpleqane+ntuS9dYS9+k6JlraYWd4/lL10u8x81q5RHd+5Vp56+UHMwr7DQgw9wtZnD04tKyCppOKb9dNTppaVuv+Pa+CbnnLhdcKuo+OMs2MOX5yMm3qyADrPvBvIid/OO9ZjiWxfEszn/rDQ8dTLvp9Vra84IBABepcC54TOrXtoHJlt6QsL0c8xmu3qTtPQL2CnMbOKpLX7DJyifB2l81Y9m2SQt+fLzXB07hqo27jpAh4ryZuHb74bbecVa+SakLNs5Z8auVX2JL1+hPV//K83och4METMg6ndAdKDrcK+PicFmWzZXTMtrm3bBO2tYjLmXepulLtzgEp7R0j5n19S+4vRTgC4KwJ+dMl5cnP9Zrwvj05au2HHIITLHyTXhNvQyr0utxB2DhlRsvDs229k92Gz3tt7/y7YNSrQOSwt+ac6u8CkfDDw8CoZLsHIDQwZSbntPrIAnBA3oeDlu/XHSr+5ApdoHJLw7L2rH/b+eBGW294/p98GlJWSXkeDBhwVfr9GHvzG3tFtN9aOaqrYf6f/Dp470/6DHio8KrN2HFFBewNdW6CdNWtXCNsg1KWr/z2IjExVZ+CU5hEw8ePw8okNI6qeCBhRAG7h9HGDTxxwu8VqdPnbvR3D3WPlC1bsfhEYlLYETgl/hHDoxOdSAA5EdZS7bYBSe3cotd9P3/1As2tnKPcghO+Wo9dKrVWuAZwsfOI+29E+0CVG9lrvz25wOtPWItvOJnfvULBsA6WRQpjE3TU8IiEf/AD+ijqDT0+1IFMPkLQ1ec6xEFXk+rTbhpDVdDoeT+Y+faegL4PqOmPRmR9sRLE95IX6bR6mhRhtbvzhYWvzB0iqVXfOeBk3pEZrX3jXcf83GlRkvBlSLK9aJyn3Eft/dL6tR/4otDs2wCU3qNnJ537oooUOiqe3SQgOJ+UFzoB/lhCzwtboH56Xk9TIXBohHZYnFpeejbc9v7xnUfktVlYIZNQNLzQz46chInu2D8Dku+eo4fGv+FhVds55czu788xcov2TEkee+RsxBdcCoJyug59cJN//fSBKdQtdvoGU5h6if6RH2P4xOiop5PRsj70EA1mMxjqsNrYXWBpoVhIlyn56Yu+aW5a5RDSKrn2GlP9U1r6Rb9+bo90mQX2BFk1F+s/90mKMk+WPXikI+69M+08E34cMYa6iJ4HnZaiaK4Y99Jp7CJHULTXYZP6xiqbueVMEb9Jc12oIUYYSUH7U3kBYwQkM2AgsgT9uSctgtUdQhJ6TX8o2f6Zph7xLym/rqiUkMLIbgEIlwqutV10GQL79gXh07uMijT3Cvee+zH5RUa3M+CkUEQim/djoha0MYj5unwiS+9Ms0+IOGZiPTcgmuwJ4eWDB/oFfQjWR55R92HUmbMC2myS/IqsDlMi9CxQJXgYriEQXvqBaG8QhMZt8TCL94+MNUuKOnJsNR124+ACnFBhoXPt6d8Z+WXbB+osg1SWfrGL1gJc5poHTD3qdfBDv35K381d49xCk11DFG3cI1Wzd4AO31wNwqxXwf4d4ogEXgfLk9jYKBoQaewhxDP8LlIQfhs9e4WL03oGKa2D4URXdT0Nbgkgltd0Gcg5u06YhcC6/H2AYk2Aar+ExaimyIrsGID9rov51yXgZn2gckYWRN8x806f+UGLolwFLXuiFiHM6BIciHwHHQoeoaMxNehggAhpQPH8i90HTjJISSlQ6ja0jfe/805hbD3FMwWuYDluJLbVS8MzbYNVNkHpdgHqjqGq89cKCK9k6MKgq6iqvqVxKWtPePsg5OfDFVb+SRt2n0Ucwqqp64D9AdCpPU5ycTArnB/lwBGVTVa9ZW5Z5xDcIpTmLqtVzzNmmDWh2uWOESPnfmDhZ/KPiDZNjDFxj95+lLc7wbTTeAvWtxHNmPp1rbe8R1CU+2Ck1t6xMbOWou5JTnUP6Ng7kRA6OsDQUk/gkfVOFB9tP0HnvyhX2HQQ96GP9PgYc22v1r1iXqu30RLn+SIDxfBejyFHChKq7rC7r9O42q32jE0tXvk5GJpBxoAE3lez2kFQTxx+rLLiI9sAlT2wSndhkzed/Qc9OB6WIyDvuZhF0fJAOW9HyQ2oJC2NGGwEME6cfVPPHPxuueYGTYBSR2CUxd7TbIAABXMSURBVDr1m7Rj/980jyKI0r4BtGYh8M05tsHJT4antPOO3/ArzA2iw1JnLuhh66PwVsbKNp6xz/XPMHeP+WjJFsP48vDr1AgesEjhgJ7Jk5WFAY5CA2xtg8eboqavMXeP7dR/koV3fNp8mBzTgjuB2qgKURRnfb3DwiveKTzVKiBprPprlqGAdnGrhCiKy3/a5whIU9t5xQ6OWXzjVgX6G66N1nnK6wHGJ/e7IBgZG9QvQtYniuKqzQdtAhOfjJjYziuu3wcLikrKJZ/H4E6TtMdPXbIPSnYKS3EIUXXqN+nKjTLECGkHPogD1lVwubjP6GlW/kmw5S005bdDp1CtsDxTR/egYkT4Q/RR9yIn/72vF6OOIdnhhatFt0LfmW/hE2cXkLRo1S55iClVwOR+OWqRQ1CquVtsxmc/wlo8UEMGAeBouSDx43XtfOItvRPGpOL4BPcKgsnWGT8DAgqD417lM0zSCYVGURRUc9a38Yi39UseGrcER0cQR6gCwIk1fb1xX1vPWIdglfurM26VV+IkjZxDCFLKtOm3Yx3D1FZ+Sb2GT8sruAqdMMe2TbDWmaTGOeFlT/hl74lnwtOs/RK7DJ587NQlCGq4sY2sAQfDwukL15zC0jr2TWvtEft7zmnMgmDtHVUCK788x1+9Ue49brZ1QKKlb9xnuF9Rq9ORZzKdNlD0e7lAl4CNJqW3NeFvz7fwTbDyS/pk+XYalks6hd0PYOE6nf6tzBUWPvEWvnHxH8NMMnoJyEiCUQYbO3OtjV9SG4+4sWlfa7Sw+M7jnu/G3YVELmj4F6XDOGJ4lZ3DzwCLPGHpht/NXnw/4oOFpWWVkqdIJenpNviy48DfFj6JPYdmn7lYDHvG4JkKqINiPMfBZpMjJy91HpThFKrac/AUVI7bJXGkAFt6Hu4AVlH1TGZZJPqkdApgQKcKzpNXcLXXiCzbgMRf/vgb4iXaGD09jqBAUbcqqsLemf9/vScs2/QH7Z0A+fG5KCrD87xGo3snY6XZ8++kwb4ykXbToP6wtYeCIUdykFk2GDwh/TBsED9gf7Ger9LoxqiXmfX4MG4m7PCgcC5Dl7bicxyX9fnPZj0+eC31m0qNFsaqFDLwIQLI7nCK9fN1e1r0iRkUtejazVu4CwT6CeyW7/WFh0JFhSVsDAOaFOQ1Whrvrf3d3C025O35126U03Z/GQV8kiR7Dp+y9kvq1G/SqXPXKGWF7kmukeLg2cLinsOyrfwT/vu/Y5QvUMZlpL1UtQOv0+x5jVvJ26CX4fmKSs2BIwWF1+BhNYIBWqfNbDI+vZ47mHvh7MUiioXw6Ar4pDRGhHPsVY6fvnLklPS4GCQr0u2Yj9SQwChfsVVUAVR38vzVv3LPo2AYMTDLBde8Y838xeul+46cq9RUgV5xCwwYGuqYHvMXRfFG6e0/jpwrKbsNporTIowNo0hdsxLJ3WAKRRQEkPDYuZJbFTj8pnyZAgxaGwgrllZU7Tl8+mbZbYQIVxAwPmIv66VapztwrODildK7PJPiVE0JjPEdJJWk4Hi+Wqf76/j5sxeLgH80A8oXZKxgGzzHHTl5OffcVXhGkg4D8eACypV7DoyKEiMcwdQ96asnrvp4FDN1eB2UfNCoUHYiqZuAsQxSQqUw+tPEABWUvAYGlDgLjPrDzfz4ngq6VyZHbslIn6QFdCEYh8gSkihSJwoXUTkgiZxRgJAkGRMf60KojBDwM7yCvRhuBzGS4HdVQw4Ps0h3PQOPMy9kapQDE4nYF7D7qYclsQEeh/vScZqXbezVS0/WYBeHnRS73Ygn1Gfh9CUEKNY6PphHARctCpWBqZ8ORl54wBgSfKWGpQFgvaxWfAIPQgY5XSNZFMlTH4+CgEH2iLFaC6/LwFCHIVA2QVYCHjSEdRV8GlPaLgz9E00mYu6FEyB6eH+HzCqmU1L8lMZFRtQgVoXxGGIgdjSwVRxDGQVzCHEY5ig2gHNAn8zRDCTMvRM+6gsgHuAUCoitl57qQPPFZX2oA7KqRjgoFEtxHDe840iV+niM/LhTnpwbpo7gvQUwAYgDYcQABiwAAEobwICBE9oAjREHlYLyo7k3CgzkSJ5P5gUtTANjMLpjR6gTMj4QEfYE6+jRQ3pHEhAuy4ZOgwk8B8upkEqAjYIfou/J5Yz/WR+PMjQyWBuUMNPEII972WHHtxb/wM5reG4MdYx9OMIDTZE1okHL7iVdwo4Cn4kALZPVGBu7xDnERDIsPMFuB4clJD/tXcelZljIknRMCyMoLO29wFNyTdIchA+azqRPiPHGRoD10dwNvXsLHtZEYiXWoOenjd7wJAHpAxYMdZhxo2AwE4EDEHIk0Aq4FilHUhJ6mBRgGie6oa+AFoB+sHxcSJR0AbzJzxDINqWHMI6Ko2lO8BN6URSRjCbKBsKoXwriODTHF1Y1ijZEUayXR5FL0cCJzSGTxPeXEw2Mxk7gIxj8aJQCFg1n2A/QKf5lyfP9K23AL+So5AqgDxwRoQgoz31qJuWAyWFMBxxoZHAdfR8dlXJFyU6woGyQ96m2/pfJdrBHxe4eEUivs4Pfaj0weKCQGOPoHuJcVoT0q6QVFJ+aqrXCBl6UlE+5sRTq6BpFuwcAkRRCI14mBmCR/5NzDaqKALGCxj+pj0eBFLL5UzzD6AIS37hxc8iQIS4uLr1793bpBceIESOWLIEp6TtTF0gC8cZCHvJHpSQTRSLkc/rFqH9lKSgw0jeAoMO9fG+++eZLL70EKODoNWDgwKnZ2Tdu3CAUsiAknuQy5FnyyAuLoCWQOdzXKOS6GvIpyYFqoXro2Z6ffvrJ3d0d1OAC/zw9PcePH//773thKIi5BfEvJwEUJWgUg9egXsIALnsHUkNkrfVeqW74wP/RCSiFhrgRERGkC4Di4hIZGblw4cKqKlrDgE6MApkUzu40IeXuBtellu4UMfZZfTwKhQK0hISm+HS4b2Dv3r0tWrQYMmRIWlqaSqVKS0sbN25cixYtRo4cSc90UWHZmu84JlJJl6Uo0sg6xLgsy8E+Sbzy8nInJ6eePXump6cTivfff9/S0tLd3b24uJiyc3YL44HsUVKeBAU1LZcwtu6wPsn20Kawl6GWdbCCJMTFxZmZmaWlpaXgMXHiRC8vr8cff3zZMlj0wzJSJ4D9KVmzxD+Jji4leRwZY2OgkCxJ6hdRFsRC6igoKGjevHlwcDCpQ61Wv/HGG23atBk6dGh1NTxxc++jgQasYPeKsQb0IP9rDBRUZ308iu6U7UQyLa0WHlD78ssvH3vssYsXYV8cOz799NPHH398+3ZcrcNiLKiwMqY/YS5BaqO/tBfkzz//tLGxWblypaFUBw4cMDMzmzsX3i5CYCl8Si5kWPRRn7OnesLCwlxcXAzF4TjOy8vLzc2trAz2GUg9lWGJf9M5qWP9+vVWVlZ790LXyo7Vq1ebmZlt2UIbUyB8/BuMqp7jKIaKwYCHPfF9EvHx8c2bN6+oqKCH7bVamGjJz883MzNbt24drnYD+HuPR0IHk585FYX2b7/91szM7MSJE3q9vhoP2IGv1T7xxBOZmZnw3CiGRkJBbLDzf4ODwdYAjtNqtd26dRs9erThiw9EUUxJSenUqVNREaz23BvdmXIf1QlTCrOWzMzMVq1a3bx5k9Kcqip4wcGZM2fMzMzWrFlD4cPQophGHgmEBvVRDAbbvB8aGhoREWGIRKfThYWFOTo6FhYW3knf5cSXlWQ8siuNfcKEN3SGanxMKD4+3tLSsoYAmZmZzZo1++WXX+R86U4FNUqa+CujjjkzhfacnBxra+tVq1YZynP8+PF27dqNHz8e5p7xBSmG8A1LPpJzhoVaJ3X07du3R48ehvLo9fpx48ZZWFjk5sKLAAgvg/9oEdXfowghwSBIhYWFzz//vL29/ciRI0fg8frrr3fr1s3Ozm7zZnh5AOUYFEGpU2JWyfooxoshg41xzppmCiDBBEF4+eWXmzVrRhCGDRs2btw4Ly+vVq1affLJJ7gYgDtTcZWAHqBiWBiKxhC4jnWy0L58+fJmzZr5+vqSOkaPHj18+HB7e/vg4OBr1/A5P3zeiRAxU2ZsmEwRjDQmA13BVSS+qqqqR48erVu3Hjly5PDhw0eMGPHaa6/16NHD0tJy9erVFBdIZqY+IorJz07qSGADi9XToxh4AkOGtW/fvnbt2gUGBo7Cw8vLy8zMLDs7u7y8nE30ke8xE2Rc0ImJwTPqqXVKgYqKilxcXLp27Tp69OiRI0cOGDDAzMxs/PjxFy5coPJsgwV9pTBBNTDjaKBWHur2GrqAbfuYlKanpz/22GNkhWPGjOnQoYOVlRUNPBj/hg0Zks/qNCxggnNmBvRMqiiKeXl5Tk5Obm5uI0eOHDVqVFBQkJmZWWpqKmWtjHamFMMaDBGZQHhqoj4eZUg3ndNIff369WZmZmfPwmO8sMPtxg0nJ6fMzEzmTgT72rVrR44coXOKQ2zynRFENTTqX0Y9k4TiwvHjx9u2bbt27VrWekhIiJ+fH32lwlVVVWvXrp07d+62bfA6Fya2ITPs9kY9YSjYRDOblnj11Vd79uzJWl+xYkXLli1PnsTXa9PUuSj++uuvc+bMWbVqFUucamBhtzfqCeON6QLe14fTlVu2bGnRosXRo0dJAL1e7+zs/MYbb7CUh40Gi4qKDhw4QEokFDQ8psobVX7DyuvjUSwSM3XS1HlGRoalpeXVq1c5jquqqhJFMTo6un379nROZK1evdrFxSU0NJTNe7JKGK2G8jXeOWuOBGMDXIoLOTk5HMdVVMBbx77++mszM7Pjx4+zybGRI0eGhIRERUW5urouXAgvrCblMWYaT+z71cxopJ62rKysV69eb731FuwpwAT15s2bnTt3preRkL7S09M9PT2joqL8/f0TEhI0Gg0FOGaIJrNFpguGgk3/TJ06tVmzZiUlJRzHaTQaQRDUarWFhcWVK1eYtDSBNGrUKCcnp7IyeIczm2oyvUbq41EMNpObTG3gwIH+/v40mqRR77Fjx8zNzadPn0635Ofnp6SkZGVl9enTh01As9pMD56skwlAcTorK8vc3PziRXipEL1sQKPRPPfcc+Hh4SThvn37/P39b968Cc/2btjg7u5eWgp7tE1viCQPyc+iOwXpY8eONW/efPHixaQagpaWlta6devjx4/zPF9WVubt7X3wIPw/jxQVFdnb2585A69zYGyYUh2sUTohMum1XmPGjHnmmWdoJpkYLioqatmyZUxMDC1jELQvvvjiueeeCwkJuXwZ3rhWIxW/XxhqjOsN8ijKNEiXpaWlLi4uycnJRAcbJoaGhrq5uVHJ27dv63S6gwcP9ujRg8IkWw9hVJo+LjKBqen//Oc/wcHBlZXSejwpLCkp6amnnqLpyvLy8srKSjLczZs3BwcHl5TA2+1I36Y0RNYWc2bqkQRB2LlzZ7t27fbtg1eEU3Tjef7ChQtWVlZZWVnw8iON5tYt6e2c+fn5PXv2LCgoYHGB1dwYNndvnff2UYRIo9GEh4e//vrrhgVEURw2bJibm1t5eTldz83NHTRo0MqVK8PDw2ktlBHC7OreRhvpSn08ypDuGlDpJ4JhaGHsiiiK27Zt69mzJ1kky7gaCd4/VssYNzyhuwhaDbDsoiiKpaWlvr6+ixfDy9IeYVBk0hIEphHD64YoSC/EfF5e3uzZs11dXadPn26oO3b+jwQapQCTnI2r2RWGgkRiRsUk1Ol0wcHBy5cvz8nJcXNzu3DhAnMno8j2sJXUx6Nq6OzeJlkBZn9EEHnRjh07evbsSeNOMkRDmu6tzWRXDMUmgalphoJpEV7CfOKEt7d3RkYG6+KYIg3vbWzhDWV7QFusC2WWSic5OTkxMTHvvfeeWq2mkP+oYpwh+cRzrXAMSSZRZ8+enZCQQLOCISEhdBdDUUd+am2rfhfr41EMMFMPMzVmTAwJK8PmQ3fu3EkeZRjaWZ31g1Hvu2ooktVT4zr7SqrKz8/v3bv3zJkzCYKhmh8JEEOSmag1LtJX1glUVlbSqgZBdnZ2/uGHHww1QvUwQhr1hMlMrbCvhhBq2BjF4qKiInNz84CAgGHDhgUGBtrY2ERGRp49e5ZFkEYVu9bK6+lRtdbFLhoywiyMLezu2LHj+eefp/EJGSgrw2p4JCe1im2oSGaOAQEB2dnZ99ofWcC/BE4NDgkdDbREUdy/f39QUNDNmzc5jisvL+/evfumTfB/5MXyBYalRj2N9PV+5N+vOSpfUVFx4MCB9evXr1u3Lisry9nZ+auvviotLa0R4+5XSWNcbxSPIkENAwxFlL1797722mtBQUEdO3aMjIxMSEhgE+sm1t9DUcmAUNa6a9cuBweH4XiMGDFiyJAhJSXSazYeoSL/EZGhyXIcV11dPWrUKF9f35kzZ4aEhPTr16+iAt4i9q+KcbWCIiD3hq3c3NyBAwfSVDPL+mqtoVEvNqJHkdyEnxCWlJTk5OQcOXLkxIkThw4dysvLIxtlJtuoUOtdOROPofj7779zcnIO43Ho0CG2EvBv9ihD+Mwod+3atWDBAnosgHVQ/2YUhrqgc3obN/W0BQUFtM75CCE0okcRYMOsyVCpdG5Y5t5f/z1XmAmyE0PZWNbO9G3467/knCQnCcngWHfEfInJ/whj/IPpMpSQuQ2d0I2GBe7txx5cuVF+bUSPMvQlNgKh0RS+LhyuMRYeCfg6Mmhoi+Q8JD/7SxcJzr/WFmtQTaBopykBYX7FFFdHfkxczFAdTFTDSFGjgInFa1yPYn5CgJlSWSBh14kFE4N/2OZqqMrw672IHrZy05c3JJ9hYSozPDG9bPdr0VDOB0hIxR5Q4H71N/x643pUHfE3HIbJaqihKvbVZAI0sCGmkftJzgo0sKHGu51JaHhyb0S7H8DGE4xqblyPYkGChUO6wrhobHjGrZ+JzU7uBfioFFk/pAwIO6lfPcpdjIFG9yjWknKiMNAUGFA8qiloWcFoOgYUjzId10pLTYEBxaOagpYVjKZjQPEo03GttNQUGFA8qiloWcFoOgYUjzId10pLTYEBxaOagpYVjKZjQPEo03GttNQUGFA8qiloWcFoOgYUjzId10pLTYEBxaOagpYVjKZjQPEo03GttNQUGFA8qiloWcFoOgYUjzId10pLTYEBxaOagpYVjKZjQPEo03GttNQUGFA8qiloWcFoOgYUjzId10pLTYEBxaOagpYVjKZjQPEo03GttNQUGFA8qiloWcFoOgYUjzId10pLTYEBxaOagpYVjKZjQPEo03GttNQUGFA8qiloWcFoOgYUjzId10pLTYEBxaOagpYVjKZjQPEo03GttNQUGFA8qiloWcFoOgYUjzId10pLTYEBxaOagpYVjKZjQPEo03GttNQUGFA8qiloWcFoOgYUjzId10pLTYEBxaOagpYVjKZjQPEo03GttNQUGPh/0nStA6/YXqwAAAAASUVORK5CYII=;" parent="25" vertex="1">
                    <mxGeometry x="8.5" y="40" width="283" height="133" as="geometry"/>
                </mxCell>
                <mxCell id="134" value="\[R_{total}=\sum R\]" style="rounded=1;whiteSpace=wrap;html=1;shadow=0;labelBackgroundColor=none;strokeColor=none;strokeWidth=3;fontFamily=Helvetica;fontSize=14;align=center;spacing=5;fontStyle=0;arcSize=7;perimeterSpacing=2;fontColor=#000000;fillColor=#f08e81;" parent="25" vertex="1">
                    <mxGeometry x="8.5" y="200" width="283" height="40" as="geometry"/>
                </mxCell>
                <mxCell id="32" value="Kirchoff's Laws" style="swimlane;gradientColor=none;startSize=23;fontColor=#000000;fillColor=#DE7A73;strokeColor=#DE7A73;" parent="1" vertex="1">
                    <mxGeometry x="60" y="1040" width="740" height="240" as="geometry"/>
                </mxCell>
                <mxCell id="112" value="Spherical Symmetry" style="swimlane;gradientColor=none;startSize=23;fontColor=#000000;fillColor=#DE7A73;strokeColor=#DE7A73;" parent="32" vertex="1">
                    <mxGeometry x="20" y="40" width="340" height="180" as="geometry"/>
                </mxCell>
                <mxCell id="144" value="\[\sum I_{in}=\sum I_{out}\]" style="rounded=1;whiteSpace=wrap;html=1;shadow=0;labelBackgroundColor=none;strokeColor=none;strokeWidth=3;fontFamily=Helvetica;fontSize=14;align=center;spacing=5;fontStyle=0;arcSize=7;perimeterSpacing=2;fontColor=#000000;fillColor=#f08e81;" parent="112" vertex="1">
                    <mxGeometry x="10" y="30" width="317" height="60" as="geometry"/>
                </mxCell>
                <mxCell id="152" value="In any closed loop, the total voltage drop is equal to the total emf. (Conservative fields)" style="rounded=1;whiteSpace=wrap;html=1;shadow=0;labelBackgroundColor=none;strokeColor=none;strokeWidth=3;fontFamily=Helvetica;fontSize=14;align=center;spacing=5;fontStyle=0;arcSize=7;perimeterSpacing=2;fontColor=#000000;fillColor=#f08e81;" parent="112" vertex="1">
                    <mxGeometry x="10" y="98.75" width="317" height="72.5" as="geometry"/>
                </mxCell>
                <mxCell id="120" value="First Law - Junction Theorem" style="swimlane;gradientColor=none;startSize=23;fontColor=#000000;fillColor=#DE7A73;strokeColor=#DE7A73;" parent="32" vertex="1">
                    <mxGeometry x="380" y="41" width="340" height="160" as="geometry"/>
                </mxCell>
                <mxCell id="143" value="\[\sum I_{in}=\sum I_{out}\]" style="rounded=1;whiteSpace=wrap;html=1;shadow=0;labelBackgroundColor=none;strokeColor=none;strokeWidth=3;fontFamily=Helvetica;fontSize=14;align=center;spacing=5;fontStyle=0;arcSize=7;perimeterSpacing=2;fontColor=#000000;fillColor=#f08e81;" parent="120" vertex="1">
                    <mxGeometry x="11.5" y="33.5" width="317" height="56.5" as="geometry"/>
                </mxCell>
                <mxCell id="151" value="Total current flowing into the junction is equal to the total current flowing out of it." style="rounded=1;whiteSpace=wrap;html=1;shadow=0;labelBackgroundColor=none;strokeColor=none;strokeWidth=3;fontFamily=Helvetica;fontSize=14;align=center;spacing=5;fontStyle=0;arcSize=7;perimeterSpacing=2;fontColor=#000000;fillColor=#f08e81;" parent="120" vertex="1">
                    <mxGeometry x="11.5" y="97.75" width="317" height="56.5" as="geometry"/>
                </mxCell>
                <mxCell id="54" value="Internal Resistance" style="swimlane;gradientColor=none;strokeColor=#61C6CE;startSize=23;fillColor=#00BFBF;fontColor=#000000;" parent="1" vertex="1">
                    <mxGeometry x="1747" y="1310" width="390" height="220" as="geometry"/>
                </mxCell>
                <mxCell id="55" value="\[\varepsilon=V+Ir=I(R+r)\]" style="rounded=1;whiteSpace=wrap;html=1;shadow=0;labelBackgroundColor=none;strokeColor=none;strokeWidth=3;fillColor=#61c6ce;fontFamily=Helvetica;fontSize=14;align=center;spacing=5;fontStyle=0;arcSize=7;perimeterSpacing=2;fontColor=#000000;" parent="54" vertex="1">
                    <mxGeometry x="9" y="30" width="371" height="40" as="geometry"/>
                </mxCell>
                <mxCell id="88" value="\[V=\frac{\varepsilon}{R+r}R\]" style="rounded=1;whiteSpace=wrap;html=1;shadow=0;labelBackgroundColor=none;strokeColor=none;strokeWidth=3;fillColor=#61c6ce;fontFamily=Helvetica;fontSize=14;align=center;spacing=5;fontStyle=0;arcSize=7;perimeterSpacing=2;fontColor=#000000;" parent="54" vertex="1">
                    <mxGeometry x="9" y="80" width="371" height="40.5" as="geometry"/>
                </mxCell>
                <mxCell id="89" value="\[P=\left(\frac{\varepsilon}{R+r}\right)^2R\quad when\ \frac{dP}{dR}=0\Rightarrow R=r\]" style="rounded=1;whiteSpace=wrap;html=1;shadow=0;labelBackgroundColor=none;strokeColor=none;strokeWidth=3;fillColor=#61c6ce;fontFamily=Helvetica;fontSize=14;align=center;spacing=5;fontStyle=0;arcSize=7;perimeterSpacing=2;fontColor=#000000;" parent="54" vertex="1">
                    <mxGeometry x="9" y="130" width="371" height="80" as="geometry"/>
                </mxCell>
                <mxCell id="78" value="" style="edgeStyle=none;rounded=1;jumpStyle=none;html=1;shadow=0;labelBackgroundColor=none;startArrow=none;startFill=0;jettySize=auto;orthogonalLoop=1;strokeColor=#12AAB5;strokeWidth=3;fontFamily=Helvetica;fontSize=14;fontColor=#FFFFFF;spacing=5;fontStyle=1;fillColor=#b0e3e6;entryX=0;entryY=0.25;entryDx=0;entryDy=0;exitX=1;exitY=1;exitDx=0;exitDy=0;" parent="1" source="12" target="54" edge="1">
                    <mxGeometry relative="1" as="geometry">
                        <mxPoint x="1920" y="942.5" as="targetPoint"/>
                        <mxPoint x="1544" y="871" as="sourcePoint"/>
                    </mxGeometry>
                </mxCell>
                <mxCell id="79" value="Ohm's Law" style="swimlane;gradientColor=none;strokeColor=#61C6CE;startSize=23;fillColor=#00BFBF;fontColor=#000000;" parent="1" vertex="1">
                    <mxGeometry x="1747" y="700" width="360" height="100" as="geometry"/>
                </mxCell>
                <mxCell id="80" value="\[I=\frac{\sigma A}{\ell}V \Rightarrow V=I\frac{\ell}{\sigma A}=I\frac{\rho \ell}{A}=IR\]" style="rounded=1;whiteSpace=wrap;html=1;shadow=0;labelBackgroundColor=none;strokeColor=none;strokeWidth=3;fillColor=#61c6ce;fontFamily=Helvetica;fontSize=14;align=center;spacing=5;fontStyle=0;arcSize=7;perimeterSpacing=2;fontColor=#000000;" parent="79" vertex="1">
                    <mxGeometry x="9" y="30" width="341" height="60" as="geometry"/>
                </mxCell>
                <mxCell id="84" value="Electric Power" style="swimlane;gradientColor=none;strokeColor=#61C6CE;startSize=23;fillColor=#00BFBF;fontColor=#000000;" parent="1" vertex="1">
                    <mxGeometry x="1800" y="840" width="150" height="80" as="geometry"/>
                </mxCell>
                <mxCell id="85" value="\[P=VI\]" style="rounded=1;whiteSpace=wrap;html=1;shadow=0;labelBackgroundColor=none;strokeColor=none;strokeWidth=3;fillColor=#61c6ce;fontFamily=Helvetica;fontSize=14;align=center;spacing=5;fontStyle=0;arcSize=7;perimeterSpacing=2;fontColor=#000000;" parent="84" vertex="1">
                    <mxGeometry x="9" y="30" width="131" height="40" as="geometry"/>
                </mxCell>
                <mxCell id="90" value="" style="edgeStyle=none;rounded=1;jumpStyle=none;html=1;shadow=0;labelBackgroundColor=none;startArrow=none;startFill=0;jettySize=auto;orthogonalLoop=1;strokeColor=#12AAB5;strokeWidth=3;fontFamily=Helvetica;fontSize=14;fontColor=#FFFFFF;spacing=5;fontStyle=1;fillColor=#b0e3e6;entryX=0;entryY=0.5;entryDx=0;entryDy=0;exitX=1.004;exitY=0.456;exitDx=0;exitDy=0;exitPerimeter=0;" parent="1" source="12" target="84" edge="1">
                    <mxGeometry relative="1" as="geometry">
                        <mxPoint x="1670" y="510" as="targetPoint"/>
                        <mxPoint x="1537.5" y="833.9439590443685" as="sourcePoint"/>
                    </mxGeometry>
                </mxCell>
                <mxCell id="91" value="" style="edgeStyle=none;rounded=1;jumpStyle=none;html=1;shadow=0;labelBackgroundColor=none;startArrow=none;startFill=0;jettySize=auto;orthogonalLoop=1;strokeColor=#12AAB5;strokeWidth=3;fontFamily=Helvetica;fontSize=14;fontColor=#FFFFFF;spacing=5;fontStyle=1;fillColor=#b0e3e6;entryX=0;entryY=0.5;entryDx=0;entryDy=0;exitX=1;exitY=0.25;exitDx=0;exitDy=0;" parent="1" source="12" target="79" edge="1">
                    <mxGeometry relative="1" as="geometry">
                        <mxPoint x="1710" y="700" as="targetPoint"/>
                        <mxPoint x="1544.616" y="852.184" as="sourcePoint"/>
                    </mxGeometry>
                </mxCell>
                <mxCell id="97" value="Metre Bridge" style="swimlane;gradientColor=none;startSize=23;fontColor=#000000;fillColor=#F0A729;strokeColor=#F0A729;" parent="1" vertex="1">
                    <mxGeometry x="1260" y="160" width="589" height="230" as="geometry"/>
                </mxCell>
                <mxCell id="155" value="" style="shape=image;verticalLabelPosition=bottom;labelBackgroundColor=#ffffff;verticalAlign=top;aspect=fixed;imageAspect=0;image=data:image/png,iVBORw0KGgoAAAANSUhEUgAAATUAAACuCAIAAADYqw1nAAAgAElEQVR4Aey9B5QVV5omqNmtmdnunpme3t7tnZ6uszPbVT1VKpVvdZWEQKqSBEK4TLwR3nsjCRBCSAjhvTfC+8RmQpJY4Z3wLoH0DpMkSZrnwt0b9+75/j9eZGSSmCq1qlAf8twTGS9evDD3/t/v739f0M//nvfA8x54VnvghWf1wZ4/1/MeeN4D+jk+nxPB8x54dnvgOT61Usofn+C+f/D5zp+mBxT9/Wnu9V25y3N81jJSSinXdWv54vmhb6cHXNeVUvrXfs4l/a54jk+/K57v/Hl6IMgKfWT6O3+eZ3pm7vocn9WG4rmKVa07/uQfnvd/jS5/js8aHQJz9DmV1OyUb/mz67o1bIrn8pO7/Dk+0Q/PAfktA/APuPzzsQh21nN8VvWGUkoIYdt20FdR9fXzvW+zB7jPg9tv827fmWs/x2dVfMW27fLy8tLS0kgk8ly/+lOSsJTy/PnzSUlJGzZsuHPnznMR6nf+s4RPpXVVJNJ/Qhyr0VgjrToDnx/RtKupKVXlvq/2w/gHNoH407cCzuATek8Vv/dT/ucruEq7tXRTDZr+Vl6h+nPy41Q/xp/Q50pJ6vOn7f9f/epXb7311gcffPCzn/2ssLCwtstWO/YneMFq9/szffiu4rNmdwVptxYkMJXU/JH/2XXdFStWnDx5srS0dMaMGSUlJf5X/2o7tTzVH3ht/x3j8GRMBpHJXpY/De3y49T2Dh4mmTM+DX8UQrzyyitjxow5fvz49773vfT09Ce+whNPqO3BvnvHniV8fuPe8+mVrxQk3CdeOyEhoX79+seOHfuHf/iHa9euPfH8x58QBOOj6fjx13joW0ViKZ7txFDk4GGNF3/ol3/+A4+Hk5SyQYMGP/rRj1588cWxY8fGYrEnPvHjL/jEn39XTvg3hU/udB+W/s7jB0MpJaWsqKhITExs1qzZpUuXatGfH3+Jh779E+DTpb8gmQZV9D+ji8t/pGD/+wcf6iotpXRdt06dOsOGDRsxYkTjxo0rKysfPo2P8HWCV37Umf82jn+H8ckYYHNMKR2XK1XjoshS86FS9cVDezzekyZN+sd//Me8vLw/Dp/VzC3YiDVaTRv5oad48oEgXfr7NfJvfAp+8uW+nTP8gah1UB51z1/84hfDhw8/c+bMCy+8cO7cOXqpKtuVX7bG9lGX+rd0/DuGz+AIMflLV0tXu9SCBMH7rqpCxaOGjUXNkCFDhg0bNn/+/Ndee+3OnTuPOvnRxz2PCPtFXC1r4NPVym/fUOP1ZZHfG4L++NlqBPof/cDf+jc8BD5cH3U/fott27adO3fu1q1bK1euLCsrIxbpeZiUgoDlP1+rDyoLj7ryv4Hj3z188sAExyk+dlVDyCqrlNIn5ScO1UsvvdS7d++bN2/+xV/8xenTp5/6h1W+ECBTO14j7yWxDmYg0genC47xjf6ClOo4jlLKtm3Lsnyd9qkf/hs9xhN/TFnvynWDqk1Vd/neI9cVWru8VUoKYbP713UFqySETyGlI6XjusJ1se9/S9d54rN8V0/4TuKTIeqTqS9GfNBKKR3HEUL4ut9jSJa/Onz48OXLlysqKnbu3FlRUfHU4xkkOKG113wp6kNUKlcSrf7R+PRfgWd7gKKFME2TEyqklLZtM1z/OP38qV/5qU5kFsmCXeLNq+kX3D+81dplvDEC+WMQgeQfcISwg6dJ6QQMiqd6pO/iSc8QPh+v9QVByPs+A9ZKKlcoV2gl0bQrhe3Ypisd2IAwTSGyfPquMU583EdyDSnEH31tip0ZfAX+SeBhCJzK0cphgcCMnzm9zztwu0e/ao2H5I+sCCitic4x8Y2huHv37g8//HDIkCGLFi0qLi7WWgsharxd8GP8UYPHnrzPz+A4Dp/Kt8DrkA5fa6iTX9lxLNs2Wb4xllj08U94+FhsBmWmP6xSoht9DDNu+VspHcsy+Ld8fX/U/IEOHnnySz6rZ3yX8FmjD5mbYggZmdrVSrrSkcLmHcc2YbkIZCYwkbHI5Y8+4P3L+tgQQvj7Pgh96vepvOY5rpDCdKVFMLGZ5nyg/qH49NV4/iHu7krWjJnyNm3a1Lhx482bN+/cubN79+6rVq1iRddnKP57+Tv+k/tHnnKnBuw9iMYdYD6iAgIN0t1TIkgjZaxKCTFo22Y4XBmJhGKxiGnGYrGI41ihUIVtm/zRsoxoNByLRaLRMLdIJBQOV4ZCFaYZi0bDlmWYZsy/r89b/RHh97Is6ylf8Jk97TuAzyBV+c5Y0hJdIc24SgmUApkEV+FYwrHoI3q+Biv1JQAPpz852P/IoxUcbB8k/kFIM1JefVkIcU2qmk83bE15lhIkgavgy3qc/NQE6FrJxdWKISqVW15e3r59+zGjP1HSLS25f/L4iYsXL2qtTdOs9bf+Qf/5/SOP32E1lc9hjdrnbq6WghoLUldLqYTSLm+1doWwZ86c3qRJo1atWrRu3bJFi8SWLZt36NCuefOEdu3atGvXpnnzhBYtEtu1a9O6dcuWLZu3aJHYvHkCn9y8eULTpo0bN363efOE5s0TEhKaJiY2468aNmwwffpUy7KC4+UPsUvP4b+mvxN/zaA9Ej/2DP//buCTOxDxedZlXUmU6irtQFhJ0/MukOdAk4/BsU0hbJ+zMkr90fKP+0d8Gcs7volbAzA+mB2BLDultZDQnl3FcTx4L1xXWJbhOBYD9Q/FJ79sUJG2bVsp5UihtI6ZhtK6pKSkYcOG8+bMdYVcs2p1xw7vzZo1yzAMFvLBl6pBe4/5qsaZXp+TaeC6rq/fck/awrFdxqcSUHS176/2fNdKxmKR1157tV+/Pps2bVy9euX69Ws3bly/bt2aTZs2JiVtWLFi2caN67ds2bRmzaqkpA2rV6/csGFdUtKGLVs2bd26edu2LZs2beSfbNiwbu3a1WvXrt6+fWtq6o7+/fu+8Ua9cDjMQ+PrQewN9N3F/gP7J9C7P8dnreP8FAd9QVTrufytq5XtSksKUzjCRWOyYO+L4zjsfRGuNE2TpQ0DybKhsrLfiOepMALZtDMMAwBwHNd1bdvmgZf0x6ex34V9sEJCCgqpHOGyCBWS8EkeIEcKqQBdULDA87BbiCXwo+RnkIb48RifLOrZy2ILy7QNW1i2sAwjOmBAv65dOhXfvZ1x83r7dm3e69BOgh/BF6oQb4LvugYaa9zF/1hrh/ty0ldA/A6xLMsWTsQ0TBcaC7aucpTrkKXBdrLWrmnGEhKa7t+/l50Cvk9Ia9dxLP4Yi0V8dYN3fNsyKI1ZLEslpBK796a93eCtsopydgz7hME7SmtHeD5j4ZJniiJbcf9cVdzrUW/9TB3/zshP7n2hQQemK0xXOFoI13GkTU04UhBelI8KIZXtgLWfOXt+zdr1vgfl1q1bq1at8pP4IpHIwoULDx48yANjGEZKSsru3bt9DWrv3r2LFy9+8OABP8OJk6dnzJx9+06xI1zbAb9G8ITIQmptOXbUAmtgfMJzBRQDC4D6I/RbFssMAHY7M3gsy6qoqLh9+3YoFDKsGOuQUCyFff782Z49unXt0mnURyM6d3pv2dIluBWHHxR65mH4+Uf8ncfTon8a2+3MMph9WI4dNkxDSltrWyOsZLuKUerBRqlQqKJVqxY7diSz5u9bp1I6d+/eHj78g86dOw4dOnjUqJFnzpw2jKjW7unTJ4cMGdS7d8/BgwfuSE0JRSodacfMqOWYjrRZMm/dvqVBw/rllRWsUHjdW93cMG3Lxy1z1ef4fPxY//HfshDw8Wlr11LSUjJkxoRW5LT1wo4yboxKraXWGE+tLaknT5/VrEXLHak7tdaWZW3durVJkybLly83TVMpdfz48caNGw8bNqy8vFwpde3atSZNmnTq1Ck7O1Nrt6SkpH///i1atEBQVGvDtGfOmvPW2w2SNm2TLu5bXFqenpGdnpHpKERXLAkXKul+EPWOcnnfE6RUKCAuMbw+Yej60olldTgcPnz48KxZsyZOnDh//vxx48Yt/nLR2fNnwtGQcOG91NoNVZbv3ZO2bevmvNxs9lebZgyBB5KfwfiTLwx9yD3NePhWt9aa1UWOWsF/prUptanRbOp2WBrU7dAf4jHeli1bbtu2jf3VQfl56tSJl156ce7c2QcPHmjXrk2vXj0cx3Jd8eWXi1977dUNG9aNGzf2rfpvpt+4prQrXMewYoYVs4WltLt1+7aGjd5lJYWxl5GVmX7j+o2bmddvZFy6fLWw6LbwLCC+s2cWkSLzXH4+zcjXdg4j8OFvfCUNMorIneVnTIgDR4+OnTjxk3HjJkyd8dn4SZ9PnDJ2wuTxU6aPmzSVt2PGTWjXqWv7zt2WLF8xb/7CilDl/Qelo0Z/vGLFiunTp6enp7uuO23atAULFsydO/f48eNKqfnz58+ePXvOnDnr1q3TWicnJ8+YMWPNmjWLFy+2HZl+/ea06TOTNm2ZNXv+nbv3y0LRWfMW/vXf/t0L/+57XXr1mjZn1hdTpnwxZcrHX4wb8dmnc75cUhaJMEqr4xMatP+mwTAMHy8uLl62bNmnn4zZu3vP1YuXcjNy0i9dS962ffTo0V8uW1oRqrQcO/3G9VNfnz595uvTp0/n5eVYlkVKI3xInl4XF9eESeTiVG8+VB+ZL+EzDn8IoL27Ojll54iPx4z69PMPR33y/siPh3885qNPPhs+6uORoz8Z+/kXI0aOGjBw8CD6+/nPf75r1y4PJZSEwBr4yZPHf/Obl9evX3v58sVBgwYMGTLINGOuKzZuXF+//ltr164ePXrUW/XfzCvIVdq1HFO4jlTCckxXyx2pO3/8kxf79u/Xf+CA/gMHtG3f7t//x//wv33vf/8//uKv/uqv/+u/+95f/M8f/mj3/gMORZt9GJP8FJ5tTCaA3//P8s6zot9CS6SGzmKkgmziKayKLDwiJDZBDSmjUnfrO7he/YYfjf1i5Gfjho36ZMTYcSM//2LE5xOGfTL2wzHYr/Pm2//zn37crnPn++UVcxYsPH7666St276YNNmyxcpVa7Zs2fb112fHjh334EH5gQMHlyxZeu7cuTFjxty8efPSpUsTJkw4ffrMlCnTjh8/WVxcMmXKtK/PXPhy6cpNm7eHI+a8+Uu2bU/dmbZ/1txFk6fN/skvft1n6JAJM2eMHjv+488njRw3sXH7jv/PP/7wUmYWpApsM88u9GmdtT4CpFDaESqmtCOVXRkOrVy5evHixXcKi7SQ2hTwgjnaNdzszLyhQz5cvnpd1JZbUtPGTZ0+bur0zydN2r1/n2VDvYfK7SronK6C+9pxYHzhzpzYZLnKcJWhXItEu/AlW5Bf0D7YB+ETshgmKJG7KaSt9IJla/7jf/m/fvjiT3/0ktd+8tLPXvzJT3/84ks//smLv375n5u3bJHYvGWr1m1/8IN/2rVrN0LQEv5rP+Z08uTxn//8p4mJzd54o16dOq9cu3aFb7pjR/Krr/521KiRPXt2b/ju25cun9NaWHbUsgzOT1BKpqWlff/733/zzTebN2/esmXrJk2a/fKXv/75L341fsKk5WvWjx4/40e/fHXvkeOQ6i6xJFxase1KHAomySN50jMG1u8GPtHD8JDCfoMLx5WWUjGpew56f9XGbZbWUaGxdXWFo0JSRzVaWKoK066IxcpCYdtVB44eHfTBB0NHjDh8/ISr9M2MrLFjxw0ZMmzDhiQpVVHR7XHjxrds2XLJkiVCCMMwFixY1KpVmzFjPnvwoFwpvWnTll69+38y5vP8gttK6+MnzvTuM3DQ0OGnzlwUSocNO6Zci1iM7eqw1juOnPzZa6+fu36D8eml+RGZe4EKyqZAPNCJWSLsQmG0HG1/dfDw1Gmz7t2779qWth1REYndqrh1raDydrkw5KmT50Z+/NmJC1fLLFlYHr0dMkujdoXp2EobQtlKR6WKuaRz2o4WjqAkAeFaSjuuNpU2FeFTC0vDeCT0UlJHgDI9JycmGJDJC/NYuTAWlLK0Tv3qeMdeA8vCscpoLBxBi0aNSCQWpj/4tClU6yrdqlWblJSd0nPbaTZBpXQOHjxQp84re/akLV++tF6911JTdziOFYtFkpI2tG3b+ubN65cvX/znl3+xctVSy44aZth1heNYrNVv3bq1UaNGkUjEf+BIJGaaNu6rddbt8sbtuuXfK7MIhKTta7bb4XDiv+f49PvuKXdYfnpcrab8pGtQgBPxbYRNPLdEt76DN27fZWsdc7WhQJTcokpHFRArtDYcJCg4yr19/97HYz+dPH1GRSQK/6ojFy1aMnTo+3l5BSwiNm3a1LNnz/Pnz0PcSXHq1Kk+ffqkpe3hV8jPL+zZq9/SZav46Urul4/+ZOxnY8cLCWZsSdzLIS+FJXRM6x2HTvzslTpXs3J8fFIMBplOXOUoFg2bRhSBeweS03Qihog+CJXNWbAwbfd+PJIU2jBlZfRk6uGZn045e/gkghhSz1m4rPvA4et2Hkg5em7P6fSvM+7kPTBLLR12wZVCUkU0HgBdKqXl2HD5wtlsOdKWkJyETGlqaVKqEyUSVBunavjkiIUjhSWFpVRYuhtT9nTuM9gi8z4oi9jX7fsLTNtq1ixx69btXC6CPeR8n6NHj7Zp0yYnJ0dK+emnn3bs2HH//v1Hjx5dt27dG2+8MXLkyD59erXv0PrEySPr1q05e/ZryzIMI8q68datW5s3bx6JRDjmSW55EA7MH60zbz1o2Lpzem6RpbUj2ZtdA58487n8rDbgT/xQBcla9FvoJ5wJFMRnzNW9Br6/ZvM2mxwzpoBjxE+B5ZCoJYE04cpwFHZgXlFh0d1iuI4cadni/v0HRUW3yWmE5LXy8vL8/HxwWBo/y7KKi4tDoYgQrmnajiOzsvMflIVcpS0bWUl3i0vv3L0fMxx2ytouSqA7NjmltE45cPRXr9W7mp1F4Q7Xm8whtSviYR5X2JahlIwakW3Jm89dPiu1yMjJnjVv4aXL6egGx9ZCRu+XpqzavH7BqqLMPC3gK/7q6OlBI8duO3Bi/9mba9OOfrl5z5zV22ev2JRy6PT126X3bfVA6ApXl8WsiIX4h6OVpeCpgjcFotCB5AQ+YxoSF9KtOr0yPnHUdbVtI2fQ1cqUlkMccEPy7k69B/j4RMIF/TE+OTqltI7EoomJLXbuhP3pwqOEP/ZUl5WVnTt3rqysTClVWlp66tSps2fPXr9+vbCwcM+ePevWrUtLSysszLfs6KlTJ/Lzc6V0bBtDqpTcsWNHw4YNeY6on5YghCukslyddetB43Zd0/MKwKkFZQhW028xug+97xPJ8892wjOk31ZxtWpgBaurwid5OVm/NTXsz43JO8lfCgrjfmdPjEXRfHYkEuSIOikUFqRFP1HBH2nwY4qzVRmKWH0A1E0mGbYIhVNAxU9OoEfGLYSjbRuiO/XQsZ+/UudaZqZHrzRDlROEKQ1RCMeyzNitW4U7d+14q/6bg94ffPXG9UMnToyfNL2g8C7js/TOnazLV0qyCkO3y0VU2gYwc/LM1UmzF5UYMqR1hdIFFdGbd0uPXLqxLu3g3LVbVqTs338xsyAsQ0qHhY64UCUiwrXIRMCUAUh8B+AkfGoN6AT7BB1JfyBlySouOsBybQvKsV6/PbVTz/6Wq0U8tOj5iplRxVOgIpFIYmLikSNHAB3JBq1nzfo9Gdzhm/KWLgjpx8FSmNBx8zU1NTUhISEcDvMA8a0RlIIzX2cWlb7bpnN6XoFJ8hOQJsLwx5QYZfXXDd74Gdt/VvCJcfKppDo+gbp48NAbDLI/Ta279h+4YfsORDUcmFI0awVpfTS5QSFFgfLF6SMCoeyOB7QoFYHB6SeaEK1g5NiVwx99ALMYkVJJSoPltAfO1YNjRtqAADKB4dMxXODzF7+tcyMnB9eB2QzSpDR+TxdwKHc8M/PmFxPG/dNP/tdv6722fdeu0+cvTZwyM7/gjuPIB/eK0y9eLMzIVCFLCw3rVmkh9NkL6Z+Mn3SrrMLS2tDgBREF5faB0NduP9h99tqCLXunr9yWcvRMXmkkSt9GpK403bBhkzCHkqGU4boxsgm8RKiADI3j0/Xwads23MIaCoKt9Zadezt062MpBLeYG7L8BAi9PCpcIRaL1a1bt3///puTkDK0bt2GDRuS1q/fuHHjpuXLV65fv3Hr1u0bN27aunX7smUr1q9fn5SUtHz58tWrV69Zs2Yt/lZ/+eXitWtXJyVtWLly+Zo1q5Yt+zIpaUOvXr1+97vfhUIhP/zjTVfCE+r03NtN2ne7kp0LxaFKv2WeG9divjPwfJbWF6zCZ3UexmPPyOQpSMJFcllU6V5Dhq3etBVKDDCMmSswORFisLSSHG/wUcfaF+PNl418K84iIjCDYXPmip8l7+/4WOUdBr/jILABmUHJhvA0S/hhdh48+qtX6166ft3HJ1xEBG/W8bSSHJS/dado8PvD5i1ZAvLKzB396YSjx05rrfOzs4pyctxoDN7YmKOFtgzkNm3Zun32nHkR05Jax2yL84xjLkRludClUmdXWMdu5C/blrZ4Q/LBczceWPBXVThkpUvHhhpou8qK50V6rDEgWOKIJXzSLD0cEVpaElxi2679nXr2t8kZhlHzZ+R4Q+Cpx67rTpo0qX79+k0bN2nWpGmjRk0aN27apEmzVq3aNG3atEWLFk2bNm0W/2tOfwkJCc2aNUMybvPmLVq0aNmyZWJiIh9MSEho1apVixYtGjd+d8qUSTwzhifE8EwXqcCMs27db9yu642CImRm1/Tf0rixllWdxp7ZT8+k/KzeWx5vpuw8IWzHsZDZp1VU6W4Dh65PhvyEboNpKw50HNdB81QjGJZwk1A6NXNcFp6c7sdQgXwQgvJjMPfXyxwkoc0n85SuIFAZnKx3kZMQxi/y9RVkiql02pETv6xT92pGhmd0VavzABOU032kgrvrZm7unftllaa7c9/hQUNHjp8wtaSk1DJjwozC0eoIbUuYo9rNzcn6+KNRCCrivdi+glDkvIiwdCuFG9X6gdK3I87uExdmLtu0avuB64UVUHddHZbCVKatbVshT5AomISkhOYcZ1txfAb0W1IgIT+F1ltT93Xs0Y/lp8f+PJUHL0XqLUxWvhoCs5ZtxoxYDJNVTdOOxWKYw2KalmWZphmNRh36i8ViDnlpebo5n2PTn2ma/BWPEfNiThLkIUDiFPxpOvt2aZO2ndLzCiyNjGWKLYE8OH+IGQi9aXUie1Y/PUP45C7yVVDWQXxwMrQ4oQ96rIJS12Xg+2u2buf8FXLu8QxMSiuiQfGTcvjnvoORpbEvmXmHSMqrqcGj7oXLCKj+TxjSLMmZUGhmCnuphJJw4ZhK7zl26pd16l7OzIBe7SLHD45cRin5abRLKNWuKRzLhXA7+vXlL1dvOnby/KefjafsCBfgVAIWLdm2laXFM6dMnDpxQqiiEhYZPZhUIE2eTWIrJyZsQzoxrWJaV0idcy+6csu+SQvWHDyXft90Qwg7ibBrR6TtQO9GkiTFJz0fEQGN0ncBMNZf8fz403AyCa23797XuXc/6nY8Aw0cy8xqW7/3EBurRaWsdjLz0+rbR4HGmxTKdgL/hOxMR5L89PEpEBICr/HxSUzbe9NHXf2ZOv4dxmdUEz637WB88mCwfuuPWRCfDELeMr3xt9W3NYto8Jn+lsmRLoKppdxAiEgAEEojNVu6sAn3Hj/967qvX83OQpxD1cQn8lokFr2U8CipiHDvlkUWLt949OurttJXb2R+MWH80qVLLl08e7sgt/x+Scmd2xfOnJo+afzEcZ9n37wBQxTFElBDAHqda3FzpGk5aKZwKmzHIOPzvqkPnUuf/uXa9bsOZJWUhykGE5ZujMAG4FDsyns1EDQ30LFLM95dQXFnqOfAZ0oa8Enecj+VrybYCJzxHH26HvdhfBSqkpl4sOLnVx2Pn1n1P36Fajy06uca+Mwuul8LPhUNgXKf4/Obcp8a8pM61Bsh0giREC9dSypocZCfhE8kf5KxwVMlyOeLX7k00YRzX2o8mSd8qLhjAKJV+KzCXjwz7uEr+EVxKEpBECXqNrVOO37ql6/Vu5aT/Qh8IiAAbY20sohQX1+5sXj15vshYQhkDmflZC9eMn/8F59/uWTRiuVLlyxZMmvWnP37v7pz665WXjasZRm4r7KkawppoFtQpAcBJYQ7lSo3jZCQcOFqfTW/eOW23Us27jx9Pa+S8jdCAvofjG2e9QIuw8jENE4yLMlTjZiQh0/2kaak7evUq6+Pz4BorEJpFaqAcrTaEBhEI/ar93nwGogMxYcJY+RrLj4+XWXXwCcS6PFSpLnQ7CLGJ7aBh64xrM/Ux2ddfvr4ZBUFhAd7DfiMkX67emsKhfhoHiYUMkoXiPc+CIN0tPiBmp0fkIdMDVUUwwNffYuf83m8U0VP5B+CCEWak44pnXr0xC/q1L2SCXxW02+9OKRg+am0a2s3ItTm1P3bdh9GRMSBLEbIUJql9++dPn3y0KGvzl+8cK+kjOOujiMtCzh0XWE7MVdZBFHLVTZhAO8kXR21TEvJsBU1tAxLN+zquxGZcujMvNXbj17KKnPgTwo5SDLiuKJwHUr4hxbgz1CDWh3AJ2cRpaTt69qrSn4G+rYKn35H4Wk8/Tb4bS37NQAcHCru87gW4z0w49kHKlQJrbMKS5q06UL2J/y39PgP47NWfTt4w2dl/1nCJ40zcWiY8d6o8zgCJZhZVg2fWnceMIzxyabdYzs1HjOgoX74TAaqj0Yedf9jfOfh33lHiAaJsuP43Hnk+M9ffe1yBvRbVnrBLBBlIcORMoqR6Kfha44qvWrLjuR9xwyNRCjDsR1pIh0XggI9gRQlhbpGlnQh2jAtnYK7MBEhAJm4mRlxui2y5LVrK8uUhiGtmHIjUoeEPnohc/6qralHvi6zUIslpsgAJq2YoqSOC2eUDbMWf8TxSPoXBWAAACAASURBVHxyqp8k/fYR+KzqH3YY+b0TH86qEwJ7tWA13uG1fuX7sbzOJF4Axsr4bNy687XcfItmEXFempfCFddv4/wi8AjP6u53AZ9x3Abx6bpuVOmuA4as3oL828fi0x/jpxkEnMy0XhuJPPIK+AnZn2TNQX6mHTn1i1fqxeUnITOOT4+eKGQvkMgjwlKt3rpz77FzltZhB3Rm2lGqDoHpoyy1eP4Acy4kSxAChE0zB+i5PB+YxvRw6M0KMz+kRuat4xq2QoWviES6wtX8e7OWrd+466tSw4kqgqgrMIFLxoQyhTIdifmWJKLRDZz2jGBG3P4M4pOTQGp0zR+CT/TZH9KqbuVnLBEXA+PKKixp1KpTHJ/gbeRzZv+tiN/nufys6sOn3ovjkKd00icatfjxGviMuR4+vZmHnoCscbvgwOMrppvgtsYP6GPVr6oL0qpzA9F88nOCQDz56SIJXe8+evqXr75+LSMbqqpfPhvuFpZ7XkqNo0VM2eWWs2rLjr3HzkVdXWk5iKEqW0iTIrFg914ozwsw8h1xWQhnIja8EasGnr+SZYukWdOYtkIP5VjKicE/pLOKK2cv37B8c2qZBU9vTLkxx7BlzHENoWgLa5YCw/TMPAGlVv22Bj5r6Vs+VNV5T7lXNQrV0evJT+ZHrF9wZJPxGZCfj8YnkPod+HuW5Cd1Vw39Fh3M+ISHFPpt3D8kDKW79Q/IT0ykqtJ8An3vDbOvKPIlOUztcQE6m+mbObFPENVlaeCqD+36+OT4CvBZpy7wifwhD6JB/ZYLC9oU1gy7etPurzbvORJVmPFsIAYLuUe+WYhTWh3RfxGvIiF7nshPQ2Y2T/4mfEKjQEAW6bXkOjK1tmwZcbRlSCdko7Ba1u3yZRt2btp9uMRQEcSrHAqNxgSmBhlSoXqTb3+yCv00+GQmWK174oNY7eCTPzwBn6Tp8NuSoUCuoKzCksatkd+H/FvkC4F8wPHJP4TBZRfYnwSfTF1BGnvyS1c/4wV+Xp8cscPv9PC2+i+f+OnhCzzxCLtzgqeRGxFdypFDuIZcKGBCO4zPNVtSSL9VcHKQHzL+YDS6fK34oW/4P/hgNS4Fd462hUYFI0ch7W7PsVO/eq1uelYWzkSok5J6pVeOiOsDsYkYU8LUet/Xlxas3X7fhG5sUrARc01cJPfTzJgqgR0nMSY07qHqj+O9NbKpeE4p2ZM2K67IiCAV2lE6o6B0/qqt2w+dK9P6vnLLlGFqw5YhVxlANSKr5M6SrnIBddSUgf15oEvP/o7SJOcRffVu73dQDUWl+tN9409xPqXhxY1PbeUJrjqz4B7hM5/nEoHnEk0zPuPGPx8OaFPf+JkevgCr1v7W75tH7Tx8Ba31U+CzFn5Y66VqORjkH3/IPgYAnlfmFqy/UVwRmXuu6bhRWyG2APm5NcXwGKRdCz7jnvRvwsP8Fwv2rH+QdyhS6Ej4b2H+cfyzdnwiCIfizuhXJS3XjrpOROmrhfdmLU9KLyqLkYvIIevRqyRiG/EaeR7zpM6AuzVeEKDG4/BHbzKPn70AFiGRlUARGmk6mDd7Jbdk0cbdh6/lFTmqVLuVIiK0KWSUKhO6lo2ILuIrEv5hqDBaJ+/aH8Ana9mkuQQ7yN+v9dG+0cEAPr15596yGlLrzIL7jVt3vp6bj5nppCNxbwfxWZXh9y0+5OPE3MNYeFR/PFm/rUbZ/vs85Y6P7Yef6HFHeAAoOQshE3p46lRkDrmGcMO2QqXXbv2Hrdqyw6ApVDDV2LSLa8T4IeGTH/ZRXfCvcpz9Q7gf5YwLrfcfPf3rOvWuZ+YwA3cl1YqlCWLsvOEgHuUn6JCjK2y9NvlA2tELIQX7MObCVQsBS9PBlIvMW4I0q+EPxYFqjAgzAby/J2DxPVycBDGkNyAwaAp4dE9ey5uyZMPJm4VhqicUscKYnCNsFNlCHyrk/9OcHfjhtE5J3du1B+KfULxpWky1Pqytu6tRUbWzH/OByaDmCf6LMt/xt3H/bWmTNl2v50K/RV1FjxsqPG3cC1B7OlPN+9T62WMNRFhswT6NHRs8k631+JYGKHC1mjd9HD79jqjq8BqHvqWP3kOTn4j7krqFAoawpoQbFjXxiTg70RAogaiBOoWekHWMmq/+r/qZFS2IJiJhSfh8+dV66eQfik8QJogyQZEtzRFLV6uIJaOuPnE5Z9bypPxK54FArmxEoighcv0dkwqh4b1gQFF6IBnGD5E9H8A2Xgg7oMRRiB/yE6VPyDZDXqFCVv3OI2emLdlw43YZ5rtIOIVjJurzkVGPBGZB9X7ZEk7Ztacb5Sc8JT6ZTP7w/n4iPqGGVDUy6LMKg/iECGXJSeU/2QuAANVDHfc0T1cDnDU+PnyFGic88ePDV9Av0JhX+6IG6HhI/pj3YSp5ym3wrj5TYQvLcwHA84nkdSTKxKTC7CyWnzGaOB/HJ96FnvZPj09K0EcRFsxk2Xfs9K/r1OX5n7A/UdkMJiipYq4DqLqWa1IpIAsVVYS+F3Pnrd+x/cSlUq0fCFUpyNIWERfptJhyyuneXikjQNUbPX8n/u48oCAI5k08iKBUWvmLAlLICrSUE1FOyBVlUi/ekLp00+7bESuidaWDKsCWg2kDCi4mzr9HANbRevuuXV169aAkitrkZ4Ca4g/mWSuBb55mlwm65pnxa4JPcQFHUlm8lTw4P+F6br6Nwn9IMGTDn8vzkv1J5U49tcLzb9A9qks5HKpxJAiwmk9V2+fg+U+zX8s1ngqffo/UcoHHHXqaZ/LP8VBF2Iof5BkVzBsosi9dy3GBT0d7+Fy9eUeMJiVyPJ0f52F88jUe97Df7DuSn7ZWNhEs4fP4ySp8wj0EciF8oo6zTfV/LG3hJ8JEESzhmFqfvFk4ZfW2M/n3K5E660jUA63UGouWIMpCgAM+40lR/F7YspVehVivD/2xYzcJJzx5+FRm1I6ERCSqzZAr8u5FF6xOTj16tgIKtjIp9Y9Si6gYN1metPaTSk5L7dKrBxsTtei3gZ6M3/3bwidBFA8CKUr5fZkF95q07cT2J0rjonISqlpz+QhSOsg0IAeH72mLa5hxwvMlRC07gdd7/C5GJa7HPnm/9mtVwydbNjVO9CnAf5mn3mE59qgtj1lw65+JbmJqZD8KbE9ihGD5HKCL43PVphSDTn0cPmmxrRrv9a/7EWFSXrmMtHKh9L6jJ15+te71zCymBIpVQKfkHUcLSzmozKfAalQ0bMeiMVffM9WGfaeXJu8vChlhcCNMY+RC9UyFSGpDbXi/xXU1Hie8FU2CJSxzh3JgyXtfiqBKOIyxmpN0Tcs1Ik7YkI4p9MUbt6YsWncp9x5r10gYogQmHgxUb9FQfZPT0rr07EPpFRSDJdcy34VJyN8yH+Htv26HgyNRJyAnkby4Vfhs04XxSbNtfcc5eYu8fsMDPtXzxBmMR5pP9ZvaT/Jx5Os4wSO1/0bH9Vu/Q2t/bu9dgKWnb97YMLN/eEsSIDh+gf2AUUFzJogF0vwmTFw0bQ356Wjdvd+wOD4JvzX8QzD7iIX9SfAJR7+SPD/bVnrPkZMB/xB3MEaBIYop5grhTei5jqWMqGsblnQjSmeVRhZtSt2892iFo0O2sFxt0dRv6h/22UJHRuIBTaDhiWa8pdvEQw70Ad4d31/JMpR7CRX5qHSlE4s5UdQWcnXU0Vv2nJ62OOl2CO43w0L9brhYyBVEM98toZ3kXXu79OxL+IT/inIDiIMGyYj2A2P6dHh4FJ3WPM4cnN22MCviURb4b5t6+KTZ8A4n5uNtQdtkej70mI88UI3eaz7DEz7zLFPePgo2T4T/CyzZeaQ5TzoepSBZ7xXMCcp9vwTXY3Y4xZRokSf+siZPY4QpSVyMp8aWhCbJU/QXkTJ2mO/xcZ7CIlyLAqGoD7Zq03ZUasP0Bs9/63U2x0LjE3QpDaj2DuXza/8OcAoQFnVn8AgsHJo+RmYelYqXEDGW1ruOnv7pb1+9kpnNZfsYFOxugUUHh4tFMp+yFwRqwzrSNF0R0/p81q3x81cfOJdRbOlyieoHqKZD3ifLNakAAoDKVZvBmcgz6RFBkPFxh/tKbwAu0LxImDvSNqVlCBMlFbS+E9YL1u9KOXQajiJLoOAtzVxFkSfK5pWon/BV5+4DiNTBkriIAUszjGFARnljQf8e1cOPOv5o2iVwYnwFrAPqG5jxVGooq7C0WZtu6Tn58NOxh5E1Fnbeco0NTiquQX7xjx47C5I8PwoeNGiR1v7gwVfmDCfO8qjqe/Ike28XJy5CRPxD/MJKKeDT71mu34MjfqwfKcVUsYPKHDOYkRdKHOtRW5ha9FAQeV7F12ACzSP3PTpjaqMtz25EkJ5XJaL1PWn6FAol9+g/dPmGLYxPgbIJRC1ITo03SiLHwkE0tyP+4n/sf+pUv6wjnA1E+q5WlhSOlpZyTC5CS/Vvf1X39as5ufDNUH1qpPQQEVC+HglALFlC0snVeCkVs1zD1m5I6tPXiyYtTtp3PuuB1qWurqQ6Q4ZrxBzEfm2FSrmUOAjgB/UNrDrjShQTpEmnwa94JKGqUQM+qXAzFoxwUWHIcnWppS8V3B+/YOWlnNugfYlGPmlXaMh8qj/0VedeQ8gMdoQ0aZVHrCbIawp+2/jkytpQ0WFQ2No1pI2AEKwBpfPvVjZu1elmfhFKDcK9BUL0tACCJYvEeEYx0emjN3wafhJXp6tIK05jxK+BW3px0uPiGA1emN3I/ha9/RTLk77gu6eJ6NHn3hrpVPMbISQeYV6ji7U31AigZB3eenN4eSYvbamQNC936S96yTuIdAebdNx4o76g4DldA7eiiRl8PuV/Vk0CZIuo96APViZtM4i1wyrjBTYxMKanBdhYw4jTaB4jQhmv8V71/tcGYuLcZMJ5Sh2GC59tVxquIbSwpBs2YTWmnTz50m9/e+HmDa6Ax/5DnhQGLgJkIuIPtso40ZZUIUdVWq5hosqBPptV/OXW/XvO3SgwdZnWldIxoAqj6qYFu9FUGknt3pCTFuonWhHwPNcIW+b0Viwzg/wRegdlKaEckaNFWMlSx9249/CsFevvhQwLy5NhEoyDmBYWaBJKb9n5VaeeA7Eakha8bBETj7ecXEB+fiP90Bf7/g69A1d1YReXFAaJUNQVRMxWq9zbD5p37H4pM8vCu+IPdilNx4nHfj2Bz3N3/a2vQrI/ibc0JYBm4QMGnnHx0A5/5W3jU39oEhxRsH9lr6sFpgF6os7LeGNxUgvFveA/DVWg80qhOlI4DkLSTH24GkW0Ed2gRgklTs1tEHi0D3Ikhz4Wz6WVrbEMDoLdgCVtUXEK8zldi6SuN2uZ69xKhx4DNamxiAnrUVjKyrGIOHTvIR+u2pKM0utUOY85C6/Pg4rjtqnhtYEixHNB/A6oAcWHPzL8/PPjO55YZq8J6gDSaoICgX7HVEbMiThY+xDzxVIOHf5VvXpXsm5ysrvXz9wbhE9e8quK6WJWdlSoiERRamRHRRUyB6av2Jx25mpRTKAivrAcrcJW1HIh1Uw7ylouHkMiVIr56DAJKYuQXJfViQMMPV6jjFHqZ67ChBOuFRZYRTS/PDJx/vJDX1+JcRKCsm1R6ThhVAxydMquw137DDERRkJlXSyHI1C7AEqExMS0+EtVd1bEO/GJ/73h8GFJTDDOcSCpuJw8BdtMCxN9bMc1TCcitM4ovNuo9Xs3igpsKH7atC2sYqdt5iCkAxMhgT8Ct/7WRx2fz1tyc9DPAX5vPWLeAW96dIt3AleQwJYEoRewla4FklZcMctxJZaTJusSr+5LXei3cD1LmzUiFMWzbMPBT2FQYfC17ShSa1CH46GhhYOPc75pG2TMcFQS54Z3G7kdlFwGLoC5S1CKamwxyRg5MyjVwUW6aEt8nc6nCuimIWKWEzNdYWnddcCwlVt3hmn6BZJUaa05IhRvpijzKTAFyqfzKcMHpG/lBo/waawG+j+hHU9+sqnDi3zy7VBHz4lhxokDz4/h6kOnz7/8+huXrl+HhPQUfoIOsUzmoNgisYga8nYRUBEK74iSsVqHDX09v2RF8r7th0+VGQL1ptFN6FLTjgrJ9RPgKGLuxiFirszguRxhJvoKCQDjf4rvkFCMrz5uCDMsnKjWRy/eXLR2R2GJYUntCAMxWGk7FmrR70g93KnnYC7bH7JFVCrTdYFd5a0CSjYNRpx1Xe8BqnflYz7xWMQ1SZzIxhsIEuVLyZpQCMlyMhQUCuVY2jK1e63gbuMO3dKLimKal21WtoLSgeK9VKmcGKXLzjkHFxOoGwrqrmpQUvhXgS3M73jjFfQev3UoI5+emYaWNDqyiKlmBSp+oLybX+WM8Om75bGjtfsCRAFVf4uYqI7Kk4Chuys0f9E4L8BN6V3+/iMdRBTw4G/9k3nHe77q16GvMFNZgEA9K6n6D/kgwvocgoPepXXf4aPXpe6P0nIGXO7RdrEMCRyetEiuY6M4Txy2tZOEj0yfb/F5j8InFSKDE4GnjDvKjdmQ0d75qLgF/9Dp9Jzf/P6drNt3H+6leFeAZ4ARslQmSUXrU7hYgAFpDiDHmKuLIu7O4xc27zmScxc1b8OC5nAjOg8JxtXQOPOOsxF4y3UQ2EHmuY44EBXofNw8LuQo3Q8ZCAaVvX6gdNK+C3tP3rDp1XgNFa4VkrrvdLcBI00qkhKjgeDVNFCPV2JpHCjzRPrAJ3srkJ/IzpWao+D3f/ALOshKIA5z3/o9aQg8p61Rd5sUDTemlaFVSLjXb5U3aNvtWtEd+J+Jhi0XpGIruMFtRjgrx/EtDwenXvCW103krUEv+IduvZUXCUFMq3wEvhKtYwIrZWD44s51cLT4JPugS+gFLwNbyLBhmhIO/X1Hj29J3b1ua3JSSuqWnXs3bt+1futObLenrk/e4W2Td6xP3rEhZeeGFGw37kil/Z3rk3es256ybtvO9dtTN2xD27h918btu5KS07jxx43JOx9ufMGNKWlJO3YnJe9JSt6zcftuPn9Tyu6NKWkbkndtSN6VtGNv0o6965P3rk3Z+3rTVr1GfLpq5+71KTvXbU/enLxzc3LqelRmPodJJKbN7i0wSSg7Nf9gyyNzzUsMJN0PH70jcbIAcXh/oBiWCWz1ETgtQ8o798u2pe1dsmbT4qWbF69MnrtmR/8x0/7z//fT4ZNnLVi3ZcGazfPXUlu9acGazQvWbZq/Nmn+2qQFa5IWr05asmrzkpVbFq/CaXPXbZizbs2cdWuWbto6b1XSorU75q/esTBp1+QVW95o1eeNVv2+WLBpydYD89bvmLt22+wVG+euTpq3ymsL1mxetHrL/NWbFq7avGDNlrkrk+auxFcLViYtXL1x4er1C1ZtmLdqw5wV3DbOXr5hztL1c5aum7109awvV834cu2cFRunLlo5bdm6iSs2T1mX1m3MvKa9P5m4aMvClSlzF66eu3Dl3KXrZi7b1K7Pxy/WaTRj6YbZy9fPWrZm2uIVc5evXZ+y605FKCqBExsFTklvCuSvB/HJ3ckMMd63Vf/5OJ0P9kI8BCIUqwATzFCu6Wr67fLKMsu5F4ndCkVLota9kFUa0yfTi19r0vnkjYI7YackJO+Wmfcq7OJK2pZb9x6YJWXW/XK7tMK5X25yK62wSiusksqqdi9kFVea3O6GsHOn0rhbYdypNIorTT7ib/n43QqLzqna3qnE+XdD+O2dymhRZYTb7YrQvUjsbmX4ftQIO1CBIpYwHMrlJIj6NKaUfIG9W3D3ayx9dbPw1kv/8tuGzdt06TuoU59+7br06tC9V6ee/Tt079WhR98OPXu3796nfc/e7/Xs917vvp379u/SbwC3zn0Gduo9oGOv/h179Iu3AR17oHXqObBzr0GBNqBzr1pax179O/Ue0KXvkC59h3TuM7hT70Edew1+r+eA93risu/1Hti+Z//2Pft37DPovV6D23Uf0KHPoB/88jf/8mbD1t37duk/sH2vXh179+05eGjd+o3qvFn/zv1yTol2BEwy0iWq4ZPXgeYiq35hW29xaAt/zLO9bXV8sn6LRbKpkr2t9e5DR/7Xr/6lx9CPeg/9pNug0V0GftKgZY93WnfvPvjjHkNHdRs8siu1LgM/7DpoeNchIzoN+aDTkA+6Dnm/55DhPQeP7DlwZI9BI7sNHdlt6PDOw4b0+OD9Xh+M6Db4w55DP0F7f3TPDz/v8eHk9oO/eK1573+s2/T1dn3aDvq4x/DPuw4b1XPYqN7DRvYeNrLX0BE9hn7UdfDIToNHdBr8UbchH3cfim97vf8R2gcjeKf3B6N6fTiq9weje38wutf7H/XEb4f3GPZhj6Ejug8Z3mfYxz2Gfdxh6JjWwz7r9OmMeh2Hvvj79u36jen3wWf93h/da8hH3Qd//G77vg3a9Og5eGS/90f1/WBU7w9Gdew35J9++fLh02d5rQ3Wb+MxSS846fe+D05mjsHjzCLjxz1rn+vDYEKPhNltatTCb9Sy3cv13mzUun2j1u0btmzboHnbdxLbN27Rve7b7f/m+7+s26DFOwkdGjRp1yix4ztN27+T0KFhsw7vNG1fv3HbBk3avdu0XaNm7Rs2aduwSVtvP6F9Q78179CweYd3Ets3SGxftU1o1yChDbf6idjhLXaatX1Uezuhdf3ENm8ntH6rWas3m7ak1rxB89b1W7aq07Bxy2490/NvmRqFoAxyz7AIrYZPXhaBrD6UYzyXmfN287Y3i+5VWqLScsojZnnEqIxiJTmsJ2c5FaZTZloRgXWsyg0rZIuwI6O2RIa3iRYzRDQqIxERjjkhAy1simBDFQ1bGo7LjT/GbFwkasuQjftWWk7IFiH6WG7ZFbZVIUS545SaZqlpljtOuYP6kT0HDl62ep0hVJlpldp2hUa08NSlG2+9k5iVV2yRrgv1HcsuIFIXJAVeRIwrIzuOU1JScuPGjaKiIhaqvLS2r1kxSqnQl6dksblvCsQbbK2TdqZ2GjCgXKkKF6ntttQXz904mHZCS6i7DoUQbZ7C4pIQoHiJr1ORpgrNhxo0H1ZuvTkicY005uobD8z1x85OWp+89fTl+zZuTQvD4KkcaRrSCStV6lJIxkE1BM5tCBoL6AvyObOlQFvpwNWAdF+UvUbdMER0bmt9oTw2ad3uE5kPKl0dc7wHO59+I23/Qcx0Jcse67so3bnPwAOHjiNmY9pI6EdZpXjmAFQOSg+gHmQXiLcogxDl5eVnzpy5Qn8PHjwQQpimCd8k3K8MUajqUtPEWgpflVZYzVp3+mLq3OTdX23embZ1157NO9O2px3eset40vrd4z6dsX7Ntn17j+zacygl7UDqniM79h5L3XMsZc/h5N2HUvYcTN37Vdr+Q9x27Tu4a9/BnfsDbd/hnfsOp+4/svPAkV0HjqZ+dXTXAbS0r46hHTyy69CRtINHUg8e3vWV11IPeFdL239k177DaXuP7tp7dPf+47sPHE3Zc3D3wePb0w6k7T+Stv/I7gOH0w4f2XviRMcBg+u82+xaUUmUDApDQ4SwF5MVNCZXxD/h5Zcoym4gMp7bqH3XnJIKLipLhhxb5xSIj6vsHBlj69S3fOCJILOMzQU/KSxIHFw+JyiagvaPZziRJkNkRB5CrZCfqpWFUj0u79vKcW2ja7s240aMKLtVpLUwtBPSbljri9ezGzRqmZFzBxneWBTUceCFZ8vXQ6gvPLkM/LFjx8aMGfPhhx8OHTr0q6++4oOsWXhpq56znrwrCAdyBUrXcIQhsdjhtj37ugwYYFBmOegqJr9av23Z51Pzv76sY7bniCZ/uEveZraWydjGuglkQ3qhSs46oMoJXiV72zYNwxA2YhshrW+7+lBmwapdB9Zv3Xn9cnrB5SvHkrec3p1cfjtbU1X4kMDiF7BgyQinMKliByYVFjIpNYKjDrDIyChDV0kZpmehBSW0rqB7bT5xbV7SgfvwhQO7Mhzas3XzxNEjr54+rq0wVkaknIqufQccOHwMacCWheRLgfULMasb4RZEaH1XHDlgPWM/Go1OmzatXbt2I0aM6Nu372effVZUVGTbKH0Ey9iDqIdPxDoFeMS9B7E2HXpdTs8lFkzjQZa8Ejr3cubMMRN2rU/SFm5N9jm5UagCqu9SYaL1+KDHFuk04rZxRulzTG/HN4Br7PgUHiRsttX5Fl5iG5n6pos1MuatXtOh3+DcB5EwVQw3AEBUzAgKT8zPfhif77brkn2vnItuIYwBE9ZLGcNixg4qR+He5Jz2imvEfQxxiwLeJ56zH9/CGvGDs2QNg/FXeazpEPs5yW1L/l44JUGjXK6KV7B0pGkLS0ZDZ7dvbvGzH73yf/71Z13fu595RWPStmlo52ZOfqOEljdyb0UhTmUEKT5wzgdDJoxPjiGZpvnJJ5907dr1xo0b48ePX7BgAa+YFMwTimfIgZ1zxIL9arCIaES3pe3t2n8gL8SnI8atI6eGN2za6O+//3GLFteP7td2mVARQ0UoFx5MJEJc04Q/UJMbEIEKbmS8gZ1wyBSRVceOGrFIJGZJSKpKrcu1Lq40z504n7Zq45TeA5v+8McNf/jDJaNHqfsl2jRFOOZaqNtnU/wHERdymJG3UyLHgJoftPRiDwprZyAnmJYKjkhUkDG0zi2xF6zaeeJCji21isYu7t49pEGj3//9f29T7zc3zxxBxFSLiLS79Ou/+/Ah2ItwJtvSNeFtJIJjZAbxycJTKVVcXNy+ffvZs2cXFxfPnj37rbfeSk/H2opgkVX4BKtHoUMlURxJ6uJyo2mrzsfOXLHBVKDxYiKclLdvXB/do9u//P3fvfnSD1bPmxyL3HZ0yNIR5GxLkxbOQkklIRCzoBRLCxW9KSWLsz4CWyxU4/eVv+O5eSnhBKNPIWwhAQfKrvH4jv8P7+KiCCO0BiojjGU1tJ63fEXb7r2z7pREXBCA1AIpNJwiHo2KxQAAIABJREFU6gWQyX/LBCcFUBdV0G8bte2SU1zGktOfIozcEmm6tKKrq2C1EYGiX5h2iXNAFjKY/WhSYMeTD4xSfmJKMeOojOd38YW7nwXuZRdgpDHwFCwydKh81ccj3/jrv6rzl/+h0Q/+31PJG7VdYVqVQourGRlvNWx8NScvRjAwoSRhhrEnD+M3xiBxjFfr5OTkRo0aTZ069caNG5WVlWR+WjXwSTMRqiwiBG/BXvBYltabduzq1X8w3Li21KHwieUrEv7H//jdX//V63/3XzbO+cK17khdEZIPTGWEhRXVulKpKEr4uuCmQGYVPj2UIihMS+IioOpYDqoBSTq/0hERF3EvbTiFp871rvf7uv/lb379l385sFHDsoxr2oppy3KjpuNI2N5e4JUiffFF7Xlalh9R5BFBkhbp3jGS8Fg6Fcu+6JCp045emrNie7mBrtw8d/bv/+vfvv6f/vOr//C3a+dN1CqqtRN1rK79++05egRVLVHqBa54313KIpRVFz++x9kzZ8+erVOnTvv27ceMGdOxY8fJkyfzwp62bZPwhKyl2hQePjFtXeu7ZbHm7bqfunDdVHDShoE2aFdXDu1J/Oef/eb//k8/+5t/P/C9xpWlGUKV2m65I0NKGMoxtfAC7xyrQ4QvXnqfd1CWjSN8XlYDtAzGJEsal4pCBYUN5iQJl32KVFHNC+9DuEjLEYaN6YHgjQjxWDHK43fnL1nWtluPvDulvI4T1qp6BD5p7VuJxZUNBf22aYfu+fcrOWBQJTwxIwqRUC0c24ryBAihTNCJRs50vEl23OGVwGNqaT7bjlMOJLHfC34YiisNwPNK4Sl2NjA48QChitQ5s9/+b3//8l/+VbvfvHx+X6pWBifHXbhxvWFii5y79wxNq2grKREY8+b5x+HpLWIthKisrMzPzz9z5szAgQPbtm175coVlq7+bG8//hb/refFpaWNkABqo+TH3l79Blq2QBQtGrq2f3efBr+v/4P/3rbeL4+mrZduqa3LLVXpaht1CVz2rbPhUBW5Zt7kZxRAj6C1EtltYFtRxD6VzfzeNMLaMSLZmQs/fD/hpz9u+NIP5ox533hQIK0y1wlRMBkaKZsPrJ1QsLqKkshthqwGGiYAHvgkX4WNVAfkitgOTNKMktC01clpZ9JN1z17eF+31+vU//7fvfe7357evVU7YduJRqTdsW/fPcePx9Dnrgn/LUtijmjA4OXeY+XWl6iLFi1644035s6dm5CQ0KZNm+LiYl6KCvqt94c3EIirCUtJ8A6tC+9XJLTrcurSjYjUERfZILZytBspzb4484P+zf/5xZb/8tLGOeOdytvUGxEF60dABsNVT1XX4jDz8+dIrhAv8ApFkdc/mMxctQ9JE1cMPTMhTsw0i5DmtVEcTjgiBlVCmo4d49V0pDBdLRctXdGpV9/bJRXQaJEoinzPKo8aiVDEP6mnMHkYSZhaX8kpaNqhe15JGTm2PeUWiBemK6Rl2IaBNaeQ/UBdRvTomGRwGNoxtDTgGQCT48bixd9y2IqjfH60l3fItgQ1mDA1Pb2RnAxgyVzFlFbaJE+0ad66cHn7nAWzPxh5cOMmq/yBq2wUSlfyclZ2/aaJ2bfuIoAuKJtI2nhA8g/FMVaFzyNHjgwfPvzq1av79++vU6dOamqqbduw9yh30+P6FGvhfc4vA/lSah47/ben7hk49APPjeQ6TkXZlcMHklcsOncoLRYpdjAzBPk2NGaUMRl3+fimi4cluqZvxiBfT3nz/Vk3sTVqH5DyJ7AMtrAqsm6eSN58OGVTScFNBCC1YaN+GtaODjoI/Buxke9/rGFKcZiO3QSwNym2fE/q7WeyFqYcrqRJoZmnjh3fvPbq0X3aLNeUOhcRbtcBg/YeP4mVSKVrIOXChc6G+Aq7MmCAxhd982Yd2LY9evTo999/Xwhx/Pjx3/3ud4cOHZJSsn+IR4rxg1eF/uYiF0LrO+WRxPadT11Kt7SuIPFkwlAwtPGg5Malr3dtu3Jwt32vUDuABFJzkD+GJoRrC6j3WEI8nqXMiQS1btmI4y1nR7ClwPkMYNBIhK5KbMDMXkrdRCqBQyq0MDjrxrGxGp20YsJB4bWFS1d06tm/qCRk04qpteIT8RWQAk3ux820vpZXRPKznPFJ6qtE5rFjWZQqjSCvRtAcerPW5TbyzkJQ2KpaiI7wNkIuDX9LdRxhRAVb2MVvK8iyqtSwryrpCljJR2P2RpisNZRppcbhZrgisEw7FE9EbqWqoPMvZ+Y1atE6M6+IfP1YBRQOSziYPJbMA+/rt5cvX/7www979+49aNCgSZMmFRcXs/xkffhhfLJTkXgeVDB2+ifv2ts4sc21rIJrufnXsvMycwsybuZk3MzJL7h9I6/gYkbmpczsyxnZV9Kz02/mXb6Zf+FG7uXswsvZ+cF2KSvvUlYOb69k5V/Jzr2SlX85K+dyZt6VrPyrmYXXcm5dyis8n1dwNjMnPb8w/WZOZkZuft6t/PzCzNy87IJblzOy0vMKrubkXcnOvZqJn1zNLLySVcj3upRVcCE771JWAd2i4GJm/sWbeRdu5F68noudrKJzGXnnMnMuZGRduplJLetCRs7ZnIKTucVrvro2aNKq9fvPXcy5g5e6fiU3JyM7O/P85UuXM7IuZeS+ndB679GvgRKBQCX9+dhnu8ALIzNQUTLCMJKSkrZt26a1DoVC06ZNO3ToEAtYFvWeSQKvJHyYhpSIrypdEoq27dL9wvUMLw3Ac1sSOxIWhDcC30j9QHIClWvjRUCCPIsfjldM/CZb/yV5J3gLTkKICdPEiiSU4kqrV0qt5y9d3b77gPx7IWRRwxkIXNeQnxT/pBkM7L+1tU7Pv5X4XreCEuATjBY5SlCj4UIUutxUa7bsHPHZxM8mzxo1fuqo8VM/njTjownTPpo4ZeTEaSOxnTJi4sTh4yd9+MXEEeMn+W3khMlo46eOHD8V51Ojj9NHfDFt+Lipw8dN/fCLycPHT6rR+DrD41cbOW7iR19MGj1x6scTpnz0+eTR46eNHT/jky+mjPh8wvtjvxgxYfJHE6e0797n1799Lf/WXUsi68gWBvy+8PUDn75VyX4CpoCysrJr166lp6c/ePCADSQT8x+r/jxXhfdzUBu0XwpFmLTK0NEz5+s1aFynfuNX3mlSr1FinfqN32rS8p1mbd5o2PyV+k3rNWrx27eb1G2Q8PuGLeq81eT1hs1fa5hY512vvdaoebwlvNYooW7jRGzfTajXKPH1xs25vdGk1Rvvtvx9s7a/eTfxN40T6yW2ebVxQt13mr7VpOXvm7R4vXHzeo0Scd+3m9Z7J/H1hs3rNkio1yAB23cSX2uIVvdd3KXOu4l8r3qNWtRr1OL1hmhvvNPijXdb4niTlm80a/l608Q3GjV7s3Him40T6zVu9mqj5r9p0vblJj2//5vm/+1nDV9u0KHuuy3qJzR/q3HT1xs0fKtpwhuNmr3y+4a/ezfxQnoW3BYCxgT1Ns8UJ3BiGipEKFsNHEQRQkQiEV7mnNmlYRixWMx1XcMw2MXCY4BUShdJnjEhYo5bYdpvvtO4U68+s+YvmjR71oRpUybMnDZ97txps+dNmTln6qy5U2bOGTd1xthJM76YPu/z6XPHTV8wbsa88TPmj58xd8KMWZNnznxMmzh9ut8mTZ9Vrc2YMXHazInTZk6YOoPazPFTZoyfPiveZo6fPvOLaTO+mD5t/PSZE2bM3rgj9X44GuUgOYxROFYNxxZaz1++rl33Abl3Kr3VD1TcP8SCnvRb1xUvkJOAHG4kPxmfhfcrWNYwPpWLJFj4tStibzRo0rXf4OkLvpw4a/60+Usmzlkwae7CSXPnT56zcMq8BVPmLZg6f8G0BYumLVg0df7CWtuUuYv8NnXOoqlzFk2ZvXDK7IVT5y6YOnfBtHkLp83z9nFk/sIpc+b7X02fs2Da7Plo8xZOnbd48tz5k6bPnjx73tS5CybMmjN57vxZS5ZOmTl3a0pq1LJNATXGoDgrLBRy4TI+lVIc+eQgnm/tCCF40VjLshi6Pn3QHCN88q/AflFJEqMsZl2/dfdMdu6pjKwzGdkXbmRfvJ59LavgUkb+uYy8r7O8djaz4GxmwdeZBWeyCnn/bGbBuazC85n5fruQVXAxu/BiduGlnCLe4f3LWbcu5dw+l3f7bH7Rubyiszl557Jyz2XlnsnOPZ9XcDoz91xW/qWsgss3869lFV3NLrqQVXA+u4AvezEz/3I2CdLMgqvZ+PZKTtHV3FtXc+5czr1zKef2xdzbF3IKL+QUXswtuJRXeCXv9rW82+nZhVezC67l3j2XeftykbHzVOHIqZu3Hsy8kld+reDe1cK7F3LyL+cVXs0tvJSRn1VYXBmxYEg58MHAQ4QZfzyrCfLU54w10rbiKyOD5bFfl5NGPNM53u8oZYLMW8S0wpa1NSV17MSJY8dP+GzChHETJ4yfOnX89FmfTZ7x6aTp46bNHjNpyqcT0cZNnzl26vRx02cCmdPnTpw2a9LUWZOnz5o6c0414NXA4XScgzZtttemz5oyY7Z3cPqsKdPnoM2cP2Xm/Mkz5k2ZOXfyjDmTps+eONNrk2bN7Tvso5/+tt613Pyogk4Rg0MvHvXw8Xm3wkS5Y2jQVcIz4MUFPtkhjklGWqfnFiV06BrEJ+xmwmfMlqWVRocuvdIzc9kpUmGiipS3/GY8NOpHlmrIff+jr0v4JpC3Qx4c3/SqYSb5J3uCPX47Pu4tjksWF7QaWyitY45hKtNwDRh+hE/fReHj04+SMxr9FD/Wr6pIihwt/kcGLRg8J826cCFWKhXmdfvIysSkM5o5aZJOHg1kq7JWFtz65vqjdjiWy9vgD1nhL1fwoobI5oeFL70UCBSNp8bD5A+W/5G/5Qv6+5xSy3wdU3OopH1Y6xKhN+3P2HogI6SwYCEvUggbRMD4EzR/BaEvTEXyg0RcgMfja77x7+cJcbezzsKZlf62Cp+etgyxzO5oWHe2YCOZqjrAkc6WlzdfO04esHEoyMNk6VOXT06P2fFPftTOw7/1VVxb6xv5995s0vrcjSykJQtlOKBJrwYV6bftuvXNuVNuIGMRU/prxyd1DcUtCJ/XcgoTOnQtKCnnl2f7E94jkp8lD0LtO3Y7d+kqRX54uUj2AZD1DQGF+bC8ch5NdoE6w3yRmaM3s4zmlHHMRgqDG1XMonGF/YDGTwyHG2vtccca+WYQz+QACRgwlTmFQqs4YEpr12KEkVUjFNYCI7uRkYWtH6Figgh6a72TfKWWVH12hMa5OS5AUXcozSAOBUduGFX4tC3gQotFw46FCcJIA/TmPYC8UEfWmyRLjiJ2gHi9xH0V3FZ1Hm5AfjZy4oKpogSDjepEgjxhMM8chHhM0+Zu9z20mJ5HsSnTxVQ9bjQdDM428lSS7EJEh3LoMI8G84FQtcxF9nlY6zKlD54vXLBuX36pHXbBDjiKS2MmDBEzJbNCU2oDxRiQxM55CV6sxMcn93BQg63BGaEM+z1O+GAMM9/kbCRIVEGJIkriOYWMmJZpOZDVUgvDwTxlR3CFAO5zLTCpWEgokRS0rGXrhQHjhQm8mRnx8sXxeVp49jhJgxS5q/m3NoWprmQU1WuQcCU7F5kfjmMKRPiImMFNFi5d2b5r77w7ZRAtLi+QExCh8RDoC9RlEt4swufV7IJm7brl36vw7U/Qj0JUQGp9vyLyXuceF66kM7PExBcnxigiKiVLw58TUYUFj5rRbR49xxkNzEJbgeNaKFclTOjqrs1uMH+uGUeT/cQaL+giMRKu69LEJppNQrMxmSVzXFfQKn0oIYvK7r7LvurJfIqpIRtxRgCfPqngmPcHhyuHEOllyAflmqZtWJaBArPs1eN8Bg+JsMEojO3lc/jBXq9n4jO+4BNATiLPCyNWxS5biYg4NUmRGkfYjhGNCQfuB1OiXqYpaL6sZdDPKbBBJg0HopFUQglD5FklDuiSZU73oklqiIJyI7KDtzMizah2Klw3556xbOO+ExczwkJHtQq7piFRyYEjbag2qKKOjtoa66BhfiPhk+VPVacH9oLdHu9Y738VPqn3memzARL3MCGhwrYx+ZcDUY5jmWaMw77SQi1Fy0AJJdyFh5B6lBn/w8U64tijYFy8Hoo/Jl6uIbFlTOCNVw/gkaKuw+oB/Ce1vpJR8HbTVtdy8w2KfqLyAZUNoMi5WrRsVYdufYqKy8DflYnVzEnSe1L0UfiE/Gzf3ccn1bCAAowqNVrfCxmJ7TufuXYdOlu8bhVHuPC23AkUJiL6qsoO4oC4HxanLEDknjEdsNLin8NqA8tQBF1cEXWdqCuxxhY1A9OCERRmhZ4vQpVyIHP54jQ1hfNMKY9AUHSPKKMGTQSoBbvcv7RXFVR5PD45icp0MUM2FIsiKRdErjDNXUK2c+NQQ1y3RGTYf+UaO17cOOi4x77jaJrqSfLVtC3TNng+dDhaQVUAzagyQk4MKEWtEr4tzz71pmKSguPtM3fgUDtOpkIK8DjEh1JS1RXAXlshJ2bQ8oQpe0+u3bK3zHDDUkSVYSNJCJLdVQbW3dAxWxuWjtnKlAF8BvSOGv1dZZcGv8AY+Yw+3vtcSYOTLBA1Qc6MJRxwIgfeBiz0YViRSCzMulXMxpKKmGhG7l9IXYg69LylkO+KFccDjS8YBF71fRIbXO6Dyg+w8KXsBJT89h6JMkGU1ueuZvy+UfP0nHyMuEIOHOSEgjKotF60bFX7rn0L7pSCueMZYpyuzJpjfCu9+CfqcoDtkP1J+AShE5bBxmkOt6n1/YjVqnPXk5eQVxWhaZa+4eeDkxNWieCC+OQguEeUHDnkn/i0S8WePMOFC8sg3xIxPp4XCyrwG4t3Fl+uVjZyZQiuVHeHngHyTWvXtijthSqWBSmAoejbP/xVFTjxdW34jItPvji7uBmfmDZNAUOeN4wZ27R+M9VOIsWbyMJSHONFJpSfvxHAJx3k7I4APimAaxvashFlp4CYcGyBULtUdiRWGY6VR+2wg2xYBNrgG6PULvIveDmJTG1M35zzwPU7uOpaPMKOiLE3miBmdl0IXj7UVPpmQcmClVtuFt6PahWjbBuyNqkIFKbvgonY2nK8qoM8QQxMswZbDH6spfP9/mcthsfCRY5cXC9wGJDEBrH0jnCMSLQibEaERkYkabzIDeacbdZnWKOm+sMITFSrn8AZVvGqiB4jI57FspHjmsCzJGojiEIb4hppVB4kHv60pHYv38x9q0nLixmZSAoQSFSimqbEYbVe8OWqNp36ZBfdJ/3W8cwBLtFatSV8wp0hUHCB8ZnYoUdBSWUQnxBALgpY3K+ItG7f8dK1dC5mYQuLg+ZQOPn16H18Jh1n4b4I8cHo2ZaeNGefMqthzH7i8h1XDlyTU2qYwqRA8XW8M3UZ67oswpnUOC/cQVY5fFwPg5PR6G9rnMAI9EiHE3FINSDCIk2e9FsqkQxRxYprXm72li2biktuI1OM1rqVKBIP1ousVFrIhKmEtt7b+You4tQUTcdb+xRDSmm81gbhB2sWKWLlYvOmjb16dh3Yr+eoEcPOnTruGDGYxqQ/EPcB+jxkck9yD8cfCXdhKqTqDQ6ghYoe5BeEYwIFuJCKi2SPsHQrXLVqx77th0+TMwzWLBi5x8tA9JxJxg7JgJsGup/fw9zn/kevk+lo4CB3ctUB7iUMhffwEEceSsEB9OrVa9ckbQihlK+Cp4rK/Hp1OVDeid8UvJLnRgdzEjjJscYWFiPVGwkepwoyJIiJf0HX9TwvUEw43U1ofSE95/V3E85nZJCnzUUFUypigp/DP7S+dae+mYUPDNgryEaCi6QKmbwfxydyPAmf1/Nu+fiUyNzFL3x8lpSHO3Tqfv7yNXpcksxxvzDp2CBBz2oi90kV2fE6cIHV4OKPQjXXyQrFWAafD24XCqDBAiBNVZHXHpmW5LvXjmPTMluuFY2ELl44t3NnSk5OFtX+MDgpDBKGqhDYLgzUIFk8ar+KHDyDAwc8VcvDp1eEAmRNR1hRdyykjF4483Wjd9+ZPGX86TMnwrFyKgIG65r7x6urxuLJt2yq7cTflN6acMWRW6o3RRwBebICjmNlu45h9undc0D/3scPf9W7W+ee73UsziuEx4BcI6AWfgu6BZMRsRpWrvlebOWSHQTpB9GHOtREzVBfZEzaYU5LxNxLpb+6cH3xph3FhohQkQcpZV5m7sb1Sdu3p5SWPeCInYf5au6GmiySuzqIW7/zfSbojZn3D0o4rfNBLmINmakVwjnHjx2ZO3veO++8+/mEiQhXIFfJ1tJG2i3mhZhs3dFTEWMkRg4K4zro1bee+sDMvsaWRzxACeStj2ePo7uRMOAofSWr8HeNm1/OzjWQ1YVUe9JZYPUIrRcs29C2S//sW+VIn1DKm7wSpH+ieYqvaMoQwqo4+npOUWL77nnF8N9CdAMZXGwO396rjLTs2OP0RchPeizWWvA6cWlTk+f5PU4nQMj9IY3PD2zBqv9/9t4DvIosOxDGnlnb63/92+uZ8Xj9z9rrMN61f4/Xa49nxuMJNN00TUYSkkASCgSBkETO0HTuhp7O3TRNlgRIKGcJCZBEkghCEeWcUI4vVb77nXOq7is9BUQP3e6B1lff1X23qm7ddO4590TasKEJoBuEDJjs7OzXXnstPDzcx8envLxcF6PJGHULvgdDZgZIU6t+rSzVSaoOZHJx9/adn/zkJ2vXrl6zJujo0SO0TImYxIbg55yIZOLXaRE7U9zjAB2ScJ/IcmALi+BPtPp+1YoVK1JTkxlT865cmjf3+cryCoYqYwafbOInTOPJbwICpBMBbEZEqAMqAL4d2M+gdgsoo9sYa+i2fHA69m5NB/jM01hNTVVISMi+ffs2hIRnZOYQDwwYNhpQLthXgFn+qV8/Y7jwA/KbMfXq1av+/v5vvPHGj370ozcPvUViDNCwR0+x49fbuI/TPExMxz30iD/0JcFYaW0TwGddM50/gUmLTqWA08vYxycjQT+hewSEWyoy2AxUB0SlQT8a8AknOITP+laCT5gkUOUDlz86N5Wx7lGLu9+6wtJqDp9O0sagcHBLoll5xJ7N4HF9G8V/ZAXGGAjEL1++/Prrr2/YsOHv//7vb9++raqqKIrcTIx2aHp3Bh95yCMu+z3n+xPk3Llzx9fX9+7du8eOHfPy8urr63tIdQ+7zbtMShSke0gpY+zixYt+fn6NjY2KokRHRy9ZsoTyEK+Fwmk/rH7nfZpBg1ZFYIV9HfRFZWC9gIUwWnD329iZ+JzMvHuwtmQtPT3Ve6VXY3NTW1dPS2sn+uhQwWAItHCBCoK/xwqfvPsIhOzDDz/csGGD3W7ft2/fO++8QyIpWhguk+Xs7BeWo/lSGCurAfgsrQX5iqiBo2By3gi7OdM+PhnpvXpD44Nh8GykiiIDuxbncW8ifNIJs7K2eemKoKYHgy7wCfvoZPBpzCnnpgB6NHbNxz8GfLHSuNNM2Gy2V155ZdWqVXv27PnRj350+fJl+jAtaHpmEvHm42gdbw9JwzRNy8/PJ4A5efLk8uXLu7q6fv3v0FcA6+EfZWj3+eSTT7y8vGpqaiorK+fOnbtv3z4aGVLuf7TVacwl/Sf4BB4sEJBwhFZBdgohfa0qy71RdvRs6oAVMG1aRvripYvqGuqvXL1WcPU6UJcoH0K7MGOnno5keLQRok7xbmqa9umnn3p6elZUVKxbt+7NN9/k+kkzcQD9aN+ewdMcPstrmxF/QiRSMOpShc8Pn+RGVWGMwyfRtxx/fgXhk6aBMTY2NrZz5053d/edO3fOnj27oKCAIJNbS8xgVD/PIzQTBDN8z753756Hh4ePj4+/v//Zs2fpLgewz/MZQ+TDKyEZPdlhHT58+Kc//enatWtXrFjx6quvdnR0MNBPAP8gnxN/YhOJxEXeL3AZKAgiiNk08HJi01ht+8DhI2ebui0OhXU+6Dpw8MUVPivXrN+QkJiswyfwGmCn1iUrjw8+uR0MeahhjLW0tISEhHh7ey9dujQ6OprvX3w7+3zD/vne4vBZUdcyDXx+cirKe/UGTt9KKp0gDL4px5+kIaRbnTJ2v65lyYogOn8C+xnpW2BhfzXwJ9GQNAQc/GRZbmhoSEpKunTp0p07d/r6+vQxQhtCUuUzO0/4fOM+8S36Cqdv6afVai0pKcnIyCgtLXU4HIRXHxlUxn+Maqa+8zuCICiK0t3dfffu3evXr5eUlIyNjRHQ0gp+NOQJ9Zp08QzREhyESHtPA2NUErZYFTbkYMejM/Jv1YyJTFBYR/eDm7dvVdVU2xyom4H8zC8OPqmDnD4i85f79+/X19cPDw+Tvgod17+IeedTMGlGX3ugn9A8e4FHaW2Lmb5FNwFgLPnxyUjPwODGriE0xoLQHpPTty7wWVXfutg70AyfaGoI8Ckjfevmu9Z8/jRooi+JvnUZEQ6ivBw4Bugv80veOwkY+Edp6RAJOilwPjrwACuOusnBldvs8+7TM4TM+fMugM0fnpBx8vb4CQUqgaMjWlCAjBlc/Y/YBAdjyZduX8i4ZsFgxOB+Dn0dwSkJnP6Qe2Ugbh87/jSDHPWRlgGNOaeqNA3cfEzo4xdeYILP1tkLPMrqgL41nz+J1/fh8TPuq9bUtvWBfEVDXxPTnD85/jTDJ1ik6abAOnw+GBlz8117s6SK84f+A+GT5oMWH80QpRPnj1DcFz4zhvGUuQGPd4nwmnmGM3WJh0x9pLuPBT6xQmT2QCBQcAplE4VRh01g7HZVx6dn0/ttcCLl+p7klQagEhlCXwR88nmcZlr52uAPf2kZM3w+s3B5eX0bh0/ybgskFWMfnYhwX7Wmrr2f4FNhEIxnSv4QP38SfDb1gHwF9dFI7xPgU2LsKwWf3JiQQJQWJecD8RkyL+UvepK4H11CpLynrgPSAAAgAElEQVQNj+W7BG/UHd4p+hDH27Q4zJBJn55YMlmTdPwJlRj0LYytAvBJLB+gTkBTRXUwVtMx+tGZ5IauUZsGnpMhBAs4o4ETFMInYHuoh7D+Yz1/Ujdp3s0dMZMqM+uy+e3Hk+fwWVbT4gKfioRyaVwWRN82dA6iZFYideUp4RPdIoEov6oe9OObesA+m+BTAhYdcJ8kxnrGrIQ/ZaC2QKLlxJ+GzB1OLKbZfTydnroWviL5SuUlU7/0Bd7hX/9C14f5K5Q3d//zds9J3/IakLwFfVzQcVPAU6mkgGKtzNiDMe1IVFrenWrypIEqx4YTHVobRkRNXtsTnyGUTmLZ8trWOYs8zfgTRMIQzQ7Pn8cjVgRtaO4eIfiUVDupi+kgyvlDUCNqIoBOHGPVDW1LV65u7gX7bIJPEYgX0DWTGOu12L5q8Emb6MT1+uUvBRc4ob38C4VS6uPj6/vk8Im0KphrQMg50ibHxTAosXMZ11Pzi20Y6QQY/hq41TQUKgBzmq8vf0a+/C/yuSD7lWcWLi+ra+X8IYJP4A4w9jHCZxPaZ4MyF5r7TII/XeCT8CeHT3D2BVZ84+CT+EOolvEfjz+//DmY/ot8hr4EyJy+JY/lLvUCudDoNhLPSOBDEC3CL96qOpd2ZVACvSK0WJAgpBpoFcJ7QNkaSpVO1vBjadZXtRI++wpjFXVtzyxcXlrbonNoUT8BDFNlQIQfH4/wCkD+LSjfaeMOn6SDDTSICvaf5CyQ9BPu17Us8grg50/0xwcnCuLfEv78Gj6/qsvj8bfLDJ+kpQiLAeHTxlhhTdvphOyWARs4dgBdXxk0GRA+wbEJ4mNcYCClefyN++rVCJ3FPzA1aeiYs8irtLbNBT4Jf35yItIrILihY8iOrgVc4JP0+yaHz4We/o1oNgoOkMFf5jj45Pp9X+PPr97yeHwt0lkIaJnh1Ag37JA0CBhrY6yyre90QnZ5czewKCWQlIIyOsEnBvsg/ElmTI+vcV/dmszwWd3U9dySFaW1bXawlAYPJOP4Q8cjPP3XNbQNCgp64QMXCq78Wyd8muUrZvzpAAtMDOttnD/d/dYVldWgsjPsiP/h/KGv7lz9RrdscvgkVgXYS0AoZwizbTuTePFWVTM4iVQVsOfS0A8bqiaY8CdYAv9Gj8cMG2+mbwk+y+rawULFBJ9m+rapY5gM+cYxh8z68UTfcvgk/lBL3wjxh+xMsaHxIfjDR/6Qx6pggs+vCP92hgP39WOPOALEKyL8CWiTLMh1g150YmRlrFdgp5Nz8our7OBpQdGDgGDgYDCcMOpARfmnhb4lEFWQvn12sTfBp6GfIIPVrok/1NI1OjP4BEN4kK9U1rcu81nT1jcK7udUzabJdnCtK0JUIsb6rHaCT5Kv0OGEb7WgKkJ84S9RvvKIy+7rx2c4AgZsoRotcigoZDiSuAifdsYGFRaZnJt94x74+AOuhwrx3Az3CwifsCQIPh+rBHSGvfiyHzPTtxV1bXMWeZbVtWPMbJBQyqIEpvKGfGXl6tDWB2Mibm3g9BAPkuRInswSgb6l0yyZ9suMVTS0Ll25uq1vFIQqemgtCZEnyFe6Ry1u/sGF5TUSjT3KnvVx/w+Sf37ZM/B0fY/UgBCLko8F3H9JSwFstWU1JrMg+VKRFUOtgsEwuHQBgATyCoR9kBLufTrgE0yPwSkM8m9nL/C4V91CcQxg0EQwrOf8IU//9Y2dEMgT/DlA8IpxrkLIjcYk/vsIPmEzBGdxEI5uPHyuLyyvQaM+nWL5Gj6fXJidDj4x2o2Wnn83KbdwRAZ/cei0Uhen6946dPgk6cuTO05Gz8hDBShCAny2zF7gUVLVZIZPcEkDSgrs4+NRy1cF17cPChSlQRWmhU8VgF5mrLy+ZenK1e39Y2RfBiHuIHQSOEM18OcU8Emqll/Tt8ZUPRH/HwKfFsau3K6KTsvrs4GHIkEFKYukh0VC3xsIn+RD5CnBnySFwvMnyD85fALQgicWJ3y6+66tbe0H18wQRUX3AmWGUo1JBv5EswOZsbK65iUrgoi+Bf9DCjhuQ32ucfDJ+bfEwoW1+DV8PhEQOb4T08Gng6ljmnajrPFUbGbHkBV81SN8UvBPM/6ko8/4mp/UXzBihD+rGtvnLPIsqWoCj/7gXocoXyd/yN13bU0L2K+gp0VAkC6XCT4VcC0nIXwu8gpo7YX4nwSfGM+T4nPS+XNq/AmcImiHzjF6UqfgKerXdPApaIpVY/dqOk5eyGgbAD86Ih6IKPInwqeho/AU8Qud8Hm/Qcef4PRfAdjj/hNIf2hG8Mn5Q+hwipXUNc338m/uBf/xGK0VJFcQ/xPln92jlmWrgm+WVU9y/iSg/Bo+nyjonQ4+HSp4Japo7IlIuNg5OGZD1QTw6Et+tEHgqTOBnUTWEzU4k3Rm0vMn+MgGp/4i8Ye4/NPDb11tK9iXTUffcviUFFFgrLS+2Qyf8CZTIb6DYZ/9NXxOMi1PbNHD4bOktjMqKbdreJSi6GGwWvRzPx4+n9gRGt8xM3yCf7AFHqXVzSAHoQhGJv4t2H9OC59Ih0q6fAViExrwuXBFIMW3p1DB4OUZ5Z8QX3DM+jV8jp+RJ/vXNPAJ0W+sGisqb4qMz+4etdgAc2ropl1CEhdFLLr33Sd7lJy9g0OmIV8prW6cvcCjvLYVY6ihBjval5F85aMTEW7IHyL8Cd43x58/dfhEiaqsyA5BgpC0ZQ0ti1YGtfaD/JPgE2RZKDkl+HTzX3+jFPwn4DkYeHI6X46rKXx9/nTO129ujpOmkCG0oOvHo28hiDnJ2KjErt+ri0653GuxUaQcAULH6/CJncd6ngbWrT7VMFbEHyqraZqzyLOyHuO4o39N8CoOuhogffnoRMTSlaurmnowMIYKIVgQsDmUon6ejPYrKsCnKAtE3y72Wd3aD/pDJP80wyfqJ3wNn7+5UDfzlo+DTwJRWnm0gBRNtTPNorH0/LsJWQWDDlHQFAgMpUkihIeQDIXbpxc+S6oaOP4k/5oAnxrYl5F/6mU+a6qbe7l8ZTr4NNO3ZvgEpUrDf7zuH2x6/Pk1f2jmIPCVfnJy+OS7u8w0i6qNaiwu61ra5UIbujIXZTgliRAfSdThU+cafqW7+lgb58SfJVUNv5zvXlYD+kMyeeKXwJaMw6e737rq1j4bxs8GzSsDf1LAWx1/TuQPmelbgk/yH/81fD7WifyKV+aET07ccuBER7iqRdUGRBaTnn/pZinGz9YkSZBVSdQEVFFAovapE7U54bO0utEMnxDh2vBvQvjTY1VwTVs/qEZCDFXn+ZPgE0NXyE79W1mFYCal9c2LVgZx/hB536RQ1l/D51ccpB5r81zhE8wXKbQehjMn+8+WIcvJuMw7940QIzIGaANRHESOgvYY8PnUnECd8En8W+IPSUwm+AQXfpom4/nTw39tbXu/TdPhc3L8ieYwYFkLOx/CJ/Fv0QcbaO6iojOYaD8cPr+2X3msIPIfWpkOn0hlYRRQVQAQVVCOJ4sUu+9ufcvHkUnNPWOixhyiHdS8FdA2I/gEmBwHpP+hHfqSPu6ET86/Bf0h8vCO/vsoQDD516xt76f4KxKbmj9EEEjwaebfQtg8Az5BBKrbr0zNH/oaPr+kRfAlfAbgkxhCxL0nA2JAAgqEohRVZURjSQU3IpMvDwmoOSRjLDmIrAeRkdCnzlMNn/fu1z+zcHllfTvBJwwgxmEFCYymEnzWtPW5wCeXoOrnT8KfEOcU8WdZQwvxhyg0IsEnP3+Cf03/4CnlKzp88n3zS1hGv/mf+HIpv8m+RnZIE+2nMSgghiGFKJNMBhpKBQ6QrAIx1WMXj8en5RRV2FCzT0WFBPBEZ8Cn7iLMSeT+5k/Ww3vANzVWXFn37CLPysYOOJyr4HmUQioTf+iTE5Huq9ZUt/bS+VPW4PjAJVi0MzImz4ITJsQ8hT1PZKy8sZXzh8DsgKJmouNrkbFu0E9Yd6O0ioL2oiDHkH867T8nWwMP79hv/hPGWYv3xCWyK/9pPIA0pO4FREc1xi39P2d/PjTj8iKQlshLJyU7/joIrvULJgzv0lZMAdMNKKWHVEV3nMAkWbIpTLDLNkGTBE1zMHavsePjyLjmfqudMfA/hPhTtzOGT8Mfb5U5zwufmAzvHeelaRg/ew76j3cwJkEAOAHcSMuaJIEjBPTft6G+c8gG8XklUbGZ7bPpWAH22TwStqLJokk/geSfEEud6SbwYF9mgk/QK1JhOvVJMOATxKZP5x+taVPfOUC6ZPRHDEDRIcZ4EdEOLW8IaaJf4IKRvG1NTPWHx/8jCHHCCdkXyUY94PjSqR8Lrvc0uEzwqeLUKiJTBfBywxwKE2Qm2zR5WJRGZHYmMSvj2r0hgVkUgE9BBc9DhGZxa3iK4NOYOtgTicvthM/GdgfgT4yhDvCpkP7tkeMR3oEhDV3DVrRukVT7TOGT6/cR/jTD54NRy1K/tYQ/v4ZPPitTZcwAyJ9BKOK/+PbG0Rp6Q0X/A7DKDZ8XkCF8qKLnfnNKngomphyyuZ9ocAQPLg3AVQkUGrF4YUdVQQSHmyugPbrAbbwI8WOZVVRGbfKoRbTZmWZnrKS27cPTMQ09o3bGLLJG8IlhrWVqJ0cppq4++VkzfN6tqAf82Qj+TXT4VFRNUUl/6Aj4p97Y+GCE4FPWUE+BT7dB+4zDnyRf4fCpqEDfcviUGesaGVviS/DJYGefzL/J04s/Jyw/vs7NFAXBJ53N4MDOMSSiR2CrwIVmeuPhE9yFTHEhhw/1XWle6TEdPgmtEkDC5NCnqRRmEB8D6ydwBAd8HXQvjQ1T0WuO5lCYXWJ2m2IdlRyDDrFz2PZxRGz+7YoxlY2h5wQMMQCoA+hbfW1NGI6nogBOi+iahN0uq31mgUdFE50/EX+Oh8+Vq0MbH4xYNLA+mxQ+NU15NPjsHB5d4rv2Zlm1BDusTgt9Td8+wsIjl+oKbG0q+LnTU/LQY/jIIxCF1IAlyE3zR17azamBxABoySEQwR5+0VkCEY00iFMHzAnM4PKCkwsokWqyrAqiJjg0x5hiHVNFG2MDIjtxITUiMWtQgEC9I4IsovN4/DryJrGh48eEDrrjy57MX1PCp6o4AN0h/pQZ4/jTgkazCnP6B+O00iPDZ8cQ4E/wD2bAJ5FIMNS0W9PO/WQO/UN7NYNViKdADeATJRCAr+hywqQ+kE5Eh0CM5OikIGqgXFMN9AbiMaN++Ap6NqCURCAQcQzQJsInepcWwcLeoLIUTRSBGyQ5mDoqg8PbPocal51/OiG7vhsMsi2y6lDAz6OsglG+wX40kws0aDMYmYeO7m/GA074vFNeN2fh8srmTuTfCgSfdP6UGfvk2Bl+/kQrzkn8U5vgE5yYAAOutL7Zhb4FEYsKTtlkxtoHAX8WVdRisA1kDuERBobuqYfPcYTqxMXkJHbBXRs6mpgU3PRCfTxpVGF5T/cwYeOpAJWXA5sevw0290hFAzULIAokmQ6/aCWmMQirBfCpKlZFGxHhzNk9KqfmFR2LTq5o6XEwNiYpVkkCn2AQOAn1YpB+I66ts7u4OCjawMRReeJKHgKfmoLxoxF/egUA/9YKgcimjo8kq4oMUwLwaebfkn0ZIGSET0WTJYTPpX7rblXWEXyibdoE/i3Glnvixv3hHXo4fBK/FGBEBImiDnvAHoc8oDv44+WU5yneNHNlzXm4aaZvAfycNelVGgaD4zAtMvCBaYFCNNyL4SAqyqDmDl6/xmQIf1TfOXIqOvP4uZT6zkErY2OK5lBVODjpmBOZERqDYyyiz6cTPs38odtltXMWLnc5fzJV93/76YlIT//1dR2DRN9SfEFOufDjySzaRzl8ltY3m+1XgCoy4c+uEaub/3o6f6I8GpkNtHSfbvyJgEWsV1qfMCgIUbBaDZYJHPYU1aFqAtNEVRGYLIE9liwg40e3YJBlcOVGgivcjSHmMDD9wPebgB7g9FSRRVmyYwlswfgAVqJbQgDUSZIEDH1FB35AmFgVOGNFTVrwuyGLkiKD4g9KMm1ASSkCYw7GbBp7MCIV3Kk+fjbtQmoByANUNqaoAtPQsSOotUBrYX8xuL64HvgvhNYnnL6FPVT/U3XrE8aIvnWBT5C/4Ox+eiLSOzCk8cGIDb0TTRlfkGvAE/7k8KnrD42Hz85h9D9UCvQtweck8s+nEn9OA5/6nmqOfsNEUbKSOivYgkiCzWEVZUFmaEKpKqKqCZomqChzVEF7TmKgnoOeVMGHJXBajRKCK/InTs9AbGXy1oUvUp5qsyugheJQVbui0AVoEPUNLAqzMmZjbIyxYVUd0VjL4Eje3cpzSRfjMgqKq9uHHcyqgp9bkckOxQ4ubwyVFyd8Guv0a/icBD6RP0T+449AfMENDV3Dvy58AtUEVAsYlbYPji71W3cT4VMBLXz407eOpx5/GivT+Z8TmBj4XQHRoyaLGsbLYKJFdNiZMqoIQ6LNoiogSMRrDCFkjLFRjQ0rwC/ts7MeK+uyaG1jSvOQ3DQktAwrraNy26jWPCI1DUpNwzKUjGkdFtZhY1021mlnHXb1gch6FdavsQGmp4OMDTE2iBdlBhjrU+GxAcbaHVLjqP1+79Dl8urIjNzj8enn0y/nF1f1WqB5ww7JoaqiJtnFMYUZ8Z51iQ5fB/qSQPg0tB2cQ/KE57h/E409RL5C+HNG8AmQZuj3TcSfBJ+kctk2MLLYZw2HT37SgFH/Gj4nrD2CT85BhXOnqqCTHtWqShC/RFaGESZHGOuX1NYxa2VX982ahmuV9ZeKKzMLS5IL7sRfLozNKYzJuXku60ZE+tWTSZc/i885Hn/pVEpeRPq1yIxr0Tm3zuYUnr9YdDan8Fx2YdTFm1GZN85kXou9UhhbUJh07XbizdspN+8kF93NuF2SUVyWU1KeXVqeU1J5sex+Tkll5r3yjNslqbfvJRXeib9eFJWbdybrcuyVGzn37pe0dLePCqMaGxLVEUESIFKDogD+timqTUO8jjpDk1K2sCAmDMkTXuBy/pwo/2SqRvpDR09GkX6CHenbKc+fEBYO4ZPo25K6psU+q9sGwH882K9Q8FBFkhSIv9LaP7xo5erJ4dMItgFHqafvz3QCoc4jyxWUcsDZDIAlME6B7KRznVVlIxrrV9j9ruGsovLzF/NPpWR/Fp96LCEtIj0nKvNSdE5+fN6N1Bt3c4orCyrrC2taius7ypq7q9r7qzsHaztHqjoGKtsGypq7y5p7i5u6iuu7btW13apuu1HVdKOi6WpF/cWiksyiu+nXihLzr8fn5sfkXLmQnRt9MTcu53L0xdyYrJzz2TkXsi9HX7x8IftyTM6V9MI7Wbfv3WpoaRiydljlXgkQ+KjC7HAKVW2yaBVtgmSj87Ms2ZDcxoMOp2Wx64Q5aW/SFwI98BSsCjN8TkLfIn+bwyfJV8C6QFWmO3+6wCfpx5v1b9Wv4fNhawtZQfAQ8rRBvIkac7D3oXQLINMiqzYVmC59Ful+c0/S5dsnE3JOxV+8kHM95erdi7fL7zS01/QO9soQF2x0PLlr0YBV42Ag97CrcIEABNk5ggHzdgawxC9zObxoXABvePEn+S0rgyOolTELfou2EjiyAtpHMQwKS3X+MxyH0QzbFT6JlDLhz6cPPlWNFVc2PLvIk/OHuPwT2HMoX1m+Kri2fYD0+xQ2rfyT7LMFBv6pF64IJP9gXL9PU2VZBe/yZvrWlT/01ONPQqEEnySpB6GxKgmKPGyxjjlAfNVnka7fqzmffOn4uZQLaXk3S+vaeq2DduC7cCDRA5moDKQcGHSITEv4FkGiFC7VNGc4l4jCt5IWAilAOIHGxGo1lOYB1EAkioQqsgw1oJgUEWlUoAWAqwFMYGiFqsJv2oOcbFuDhYmYc4K2vXGX9+LJy+DUGzEaNHbvfuOzizxJ/9Zkv+LUj1+O/k24/tDE+Nmgn4C+q4HvT/5NSupaFnr5tfYOATEGmkfImQP5APhTbBsYWeK75mZZNWAH4CDCnz7yBnxOoPSevImYpEdO/InhqNC0B9RoRU2yCg5RY1aZVbc8SMjKPxWXnnOzvKl7dMTBLILiUAA2gDFr0Is6NkL9IRhcNMNUJFmRQSRD8hXQGAEJjQRx6SBsOohkSIqjaJBBWSjODtgxEJ0Nkjdj+4AGIsiBCh+aIeGMgoE/auCCeAXaBZIUBhXSNOtP4pRjl42zjAn8DPg04c9JBuxJK8LRQNkmKnvIDPCni30Z6I0pjOzLjpyMIvkn8G81aUr6VmQyeFtTJZCAMVZe277Ie1VLb79k8OiJ0AXLXMbahkeWrAwoLAX4NGR6qCQKo426KDi9fOw54TOTDH9rhpmZ1Pmoz5g/TaBBqS6FB3GvE2EADGC3IcVw0RosaoqIgad3TRVUkPL3WcZuFt8/m5iVfu1207BlRAUaUmKaTbLKTBJUh4QO79CVKSxrhC7nkueYGccc7FcQhY5LORaF0MkoeuElzgwdCvWjIeozuHRHgxVGuJHml/AnNcXcd5c8bdOmQjAy/PUvwvnmesxyVhp2lxLzw190nlYLfQV3Ixh5RHiqwlhJVdOz8z3vN3SR/aeqCRAWFP33kf2n3/rwlt4xOLkwh4hyK7PmLY3/LA6fogSuKcpr25et9G/rH0RmhmZHJp0K6iTgPax1aHjRyqCbJVUS7O5oMAGASu3EfRd1vvkq5/PK0exUJfyVR8pMVduk5RNny6VVEz8NKwAUxgFLUJ5SsOqh9WemFhBeZaYIGP4Ro9eADGpUEvOL7hyLir1b1WzBmNODgmQDbVdB1sDomYSUpAcrylPafxBZOzHVFYA0lVYGBsPimveADbkWPsX5M6UAonSXtOdpX+Ap7yMvMX/dZfQmHfNf5xnYJnBKcMxBT4aQwOerc+LsU8nMazPX4LJUoIWwk+nwCTxXxkoqGp5dsPx+QxcwBVWHykQ4eKJ/alFVPos4+8wCt6rmLivwEWQZjPhAkq1viwhcqH/LQPNS0cDjkwjxs9vdfQPbBwZlBoFubMje0FRRksB7ddPA8IIVQTdLa0XzWcVouKZHSsaVy3vAx/ihI+G649LuOXnKqye6a0YpvEOKLDNIUVUNmkwUnEFtgvqdDF3SFBg1pjGHQwTSHrZG8DagIbscEKmiiQooGBQUlUfFpte19oHDdUUbFEWRMbtskxSHIFp0lS40bgYuDLQREZwxqk40RPM/IeU2LoBJ6FVaK7rGH+J2KqfTin5mMcoN2xjoFCw0PYWWzHzuZvrkDEbeNEfgqQcMPiTwEYA0NukqGfQ2rkJoMYfcqfP67NMaMKUzeZeecdbgulJxXekYS8ZQnWCfXVE7Z75bVWMn6ocICJ/QHdAbY2rEuZjf/8PvFBSVyoxZhDHk97kCp6Zps3BGQDETQmVjfHs3n4D2vgEF4FN0aEB6MVC0dAiMNfQNz/cOLCwj/VsYFuAlGCuJjj1OrQWj3LnCpi9xXQ+EoyZP9dUzfYUud53jO/Us8tni76IbAT2mBgKtIqmC3SE6JIBJjSmSDE7BHQIMGAwhyAdVpmBoY9baORyXknerpNEqszFJdTA2aLeIsl3VBEm20+lOkR24DQDcQG2PSrFBvx7HH+/yF5eZISzps6DoYingfqBrLUx5oXO31a2mHg34na+bdoSZFo4bIuTGYCWknwDbCsBnNcEnGK+D6wlQqIQo2CCjEk5Fnvu9P/jWrWIIlQKW8SraZxto08CiGth/0kFfgoMoxM928/LreNBPlkeEl4FkkwA+67r75nv5366oo/MnbPXwR9uJ6fw5rvUTNptp7s58z6ZKZj7fMOVT/E3XHsI1oL8OSlSSLIkOpjHBYQPIlEXRIWiqLAkiWoNIgFLRaRMEm1JFq6heuVESn3p1yAqy/FGHw65IDmS9KLIDXROAW1SLdViUbCJIFFVJggqdq4TvF5P2FDoE+9cUqXm9Ttp3/q7pyem/+LnvTjPIU9yiOC+SIEoCjjPI4knLWMad0QkVsLuhQMs5bp8D5Gb6Co6kuc20n06Az+Lyqjnzl1Y2tgkg9MKYNBCNQUOKSY1PSf/u9/6q6O59QHLo/QRhkthMznSWzosAvg5YkFXUtbh5+nc8GER6WhFBCVRiqqTIooOx+p7+RV4BHD6pRmgYNFdlquGDg7f+UeGNvziTzEwHlC++SdeoUUgAzFOdvuXvwtIQHDbayMHWBKEIzgSaIoMMRQT8Cbw7EFTAcV1Re0fsZ+OzbpU1jQnADLVLIhDBmiiJNqYC65XwJ/BgNVEQ7Ha7FVwQAJXr/O6Tk+djO4NVASsUTZnRVlaTRUkURVDjB5V/UPcHKmPSPWuqHQTmme9HpvxUz08sN1aK87+5R1g/x5+qxu6W3Z89fwnBpw18AkuACxkTJDjgPBi0vLDUO+dKIZKfElOAhnLCpZGbRacX8JBiwOcyr9VtPaA/BDI0BucqkBOggmjL4Mhin9VFZTWIP6EOGGodllSwLiSmEZUA2E5OnU4sn3zsphpTvRz3EJgoWM0PTYltiU0jknxcimvG2Vo+B8ARwT80+1BsNtu9e/eSk5MzMzNramo0TYN1AwYioLengm6tCnIpiTlk1tA19Om5xJZBuxU9DNgdoqQ4HMIYY5IKGQuyzUWQiOByswsOu+DAmBo4sMQkn7p3Ro+g74/rmslI/nrPPHxVEBdKAtMbmBFKFQQuYG4B+tRAaITnTjOMTJOfasOfwV4Ba2HS183v4vpDfhtaw8pgv1Ize/6yyqYWUBRRHYomQrMRe9o11tI7Nt9j1aVrxSJ2ETywkW95AzLpvw6f5NpUQfy5ZMXqll4LODxFv50awL1MwZI7x2zLVq0znz+Jc2X0gCThhvwb4XMqeJhYjiCBkzDpPge3x92dWMNjLcHvgVAeJp3kfprGKisrvb1Xbtq0ac+efR4eHoWFtxhDqhZ4toKk2kFNUmUOidlkduT6BGoAACAASURBVK+p76PY1EarMIi6O7Co0EOPIttFySpIjr6B/vc//GDbju2vvv5awbWrpE0pAQ7WNz3MjNtHHmsff52aJ1+y2LzJb6GYBwg8FCOh/6opVggJhAQRmG29fQOfHTuxc9eeQ4d/VVZe6RAAaNEOxLknTfPRx3hrqi2QPqHfBQoKrNUljd2pBP/UVU2tYFSk2Jni0CQRD0mgRtY5JMxetOLi1TtgSg0eEi2TwyfsQ4B6IOaxjOfPBSuCmgYsNqTHwDRRFVXVJjFxTNMe2CT3wJDr9yC+PaqVAtWPQdMQuACkDasWveAR/j3qUD5C1aZHEeWbfpuyuGM5f9OTqgKwgrx9WE0XLsT5r1rd0dHVUN/yz//8wzOnzwJ8yrCXK0y2imMajBcgzxGFXWvsPZJ1pVpwdDMZ5kcRADPIis0+KohWjbG09MwlS91iLsQdfOmVwKA1nR09sCXTLoTM2Ie21qXNztZ/rhyXFiFVRdhIr8ilZKqGTVVOtVBrp2kzf50yXV3dW7ZsCw7eEBsbv2XLNh8fn+bmZk7RkLoF7yhWO67Npo9OXs7f/RwZ+hxPqTFAlSsKmNQydquq+afzltW2dgBtpdqYMMJEO4O8pKisY8A2121V9rVb4H0TbN0tqGHC69MbDOdPFKCJHD7n+wTV9YD8UxXtzGHV+ruYpY8p4FixeWDYPWB9UXk9wadOAyOEw8KCwC+fBz6JxuayAWoaSQsoPzH9HAP6SK9AYwhO8DUFCSpF0Q4f/tUvfjH70KG3t2zZtnZtcGlpOfilBJ/qkkOxKwyid4loJNkvs4s19jcSi24Na/ftQr8sWSW7DDxxMKEWRYeqsdffeOv5eQuzsnN27tq3e88+m1WE7+KOgOOJaNRoN1+7RsEk/wmKXGDJ5blp7k6ET+MIw++QNMZZJd9NoGjiPJlLnC+Ny/HZpwy/pyja6dMRS5Ysq6ysYoxVVlbNmzcvMzMTXD2gItRUAElLcSZ3OTSYX6HjDL81aYY3ko8Lf0wPUcPY9fLGf5+/vLSmHnxlCMO2ttq6gkuNt67KI32aKnZ0j7zg7pdbdA+UnNG9sAt8Us1O+ERxHauob1rgvaqlbwiIyaGB29HnPgpZl/nJr2wddZqmNPf2L/UJvFVahXwoINdEGegNIMiA9w16SEBjkx+aKd1B6vw24rrpQSmA8wwe4+AnIqPpU3wXeDbwLVMKh+zxJXQXSaJx36Wvmzl/5hIKpapIWD86jmQas4yOBQUErl8XnJSQGB8bV1dTS5ScAkMgS4pDBHGUIKjswRCLz3uw7cPyZ0NT3PYlfZBe2S2jIYhdxgWtipJN07SNGzd6e688dOjQkiXL3nrrLXQsDtCOHhOMYTR6h+vGtb/ApoKdbJJeAymN8kN9BBQQCJlLzOM2TR5Pe/AVUCSEI5Q+JsDTRoU1SvEnOOdETiqQZOa7KCKGV+kyDzWer/Hs4sIUY+zll19et26dxWKRZbmysvKZZ55JTU0lnRFy+4CuCKAd3PCS3FvqTi7RzxMx85zfBn0TiV/mcsrzWy4ZHvbP9AmYE+6GQvdfIYvg14Kxq6WNP1u0sqq+GazZ+1rPvLZnzbM/CXebW5AUxRRbX//wvGXeuTeLHIzZVRuiUPThxAEd92OML4gcR4mJcP6sb3LzC2x+0MsUtSY/f8NPfzb/T76z6C/+W87pI0yVWvv657t73ymvAVpUAzwO3GE8V4FGqALhH2XQY4EpNP5Qtxo1qkmv2pyS5w448QOLBWgDhE+YY3Me9kvgU1EKYGZUDnsDjtdDUtp08eHp2kNtIwwD5AC4GsFDIwhOlIaGBje3pZcvX6aTsKYpDgcEC7Lb7ZIi2mWbwqQRYXBMFTtH2e53s/5+wZE/nX3kf7zw3odZQLmOaBDGRJKZxTamMbmr+4H7co/Y+Dir3bZpy+b1IRtIi1Aipz4wTzSIhso1TBMvGddfXCLkuZyXY8N1PMPfQtVcdNBqLDJ0l4wYCYdIH0+kISFvagMsRCoxU5j0GWKeUap/2PSPynGW4TzPLxxtWD/mix6TZTgbH/n0Mzf35cX3Sotu3QnftMXLe2VNbT1J3eGMhwNF6lOyCiSMuQRXJfpVQs1+c9uQBIUwKPzP3H7zXeBR8T/8In0X5BmyBAYEEpw26cwJakNA3MpE3xaUNPz7fK+axlamig8qi9e88PN//c7v//O3//PBUD8mjYyOWhYs9cy9UWgDoTmYQhjDqwMooehZME8AmeDmVNJYaXXjAk/ftt4BprDy7FzPv/3Hed/67s//6P858/qLmuR4MDK6yNv33v160O9D5QTQKSMZIfA5ZQk86hgzA7SughQvqDuhfo0zpXJKJU1F8yVwLwAvg3dm8CvH88ib5Xw/aDmiWN3HB5HZPOW0NxHbptTZHvquuVV6S4AWATkTqTeCwATzAoCW1t7Tc/pcVEtXF6mzo70yctFQmRYNr0WB2azMMcTY9QaH+9a0P5/zwc/XnLvcxPoZG2WKVVMtIkpZmFxWff9HP/vZUk/PsG3blvv4xKWkyIzZZJBC68w5YtFBG+ACJ25w6V+khpFNqdFOQF384uPASygDvgONx6gS+slrNmpzNgO75vwuPcmfN9rAh8L5Im8kH0+jF9AXumsuIeN1kYHXeuCGVNf7BKx5bv7i//5Xf/vN//wHR46fhpFHfUhzzdQAozZnO+nhieVk3ONSg8tP0j/nqUsfyXaPUrLy4w+AQBJN/+5Ud/7kmWXVDW1MUweaGzZ6LvvF9//8h3/+rV/tD9Ps/SMjY4vcPK/cLLIzBUJjMHQfZRg56LZBjM0CtV3NLjKbXbXbVHb3fsO85X5NDwaZxvrrW19cueaX3/2LtfOevZwYLWlq2/CYW+D6mxX16M8f3LqBVZQGNsfkWgqQNY4geLvB/ExS6udElzkiav9OlU5Vsx0UjqFt5tSqjStxeZfsISm1mMwjwRhSQ7oU+2JH20gbqulB5XhZNGZR0aJSZRZVGZRGh5ijU3B0KSz62tiPvD4Mfuty5SjrZaxXkUY0qFBgzKJAFJOUS1ci4hKiU9NvVdwHX+yKNiKrNjS/tGL7zQ2zkXGmBsaZVo2NwecghXJsgxXL4UW8ZZHA9Z5Vgccotan4pAyhrymvlytg4AaPMUhHFQ28EKlsVFapVaOKNiqrQ6I8IilUMihIY4o2qmg8pfbQaJjfGpHVUVkdlpRRWaX8iKyOSArVRuXDkjIiKVQbPTOqaAMOdUxhpXXtn5yOefdoxNYDr2bkFQ2JbFRmg4LWZ5P77dKwhO1U2LCkDUtsUFD67Uq/XRpwqIOCMiyA54chhzbgkAdsyoBDHnJoQw5lwKb0W8VBu0rl8LxN6bOJ/Va5z+Ys77OJfRapx+LoHRN7LI5+K3wR61f6bHKPTe63ab12pdcq9VqlHgs8A0+O2nvHxEE7u3y98hfPezS29oL6tqRkxsb+01/95da1/pV3C5hqHR2zL3ZfkXe9UEaJKKkWEaFuSrVZmmYn+LSqgkVjRVXNL/isbRpxjMiwE+ck5iz45dybN/IHHcN9itYlsn9b6vfTxb4r129xD1jvtS5s+bpw9zXhy1eHe64OXb5mo/uaUI+1YV5rwjxXh0LJ1Ck8swafxNRrTZj32nAvI89roHpc06Bwz6Dw5YFhHkFhywPD4OtB2IagcM81myjvtXqTudwjCJrkEbRxedBGj6CN8CH8HLUQyleHemKT3NdAsz3Whi1fHeq2Gh72DN7kuSZsWVCIe2CI94Yt7oEhi/2DYQTWhLoFbPBYGwZp0MYVqzd5B4UuDVq3bM1693UhC4M2Pee/90//2ePvnls9b/XuZcHb3dduWha42T0w3GNVsIf/Wq91YX7hOwM37Q7Yssc/bPeSgBDozrrNnms2ua3Grq0OpybBQK0N91q7me7SgNMzy4JCPYLC3AND3QI2ugeGugfCT48A/Om/EQr9oZx6Tal7wAb3wBCPQOiOu+mZZf4hbqvD3AI2LgkIWb46fFlQ6NJVG5YFhS7xW78kIGSZf8hCv+DFvsE87xEUtiQgZInf+kWr1i/zD1kWBF9fGgifWxq4cemqDYv9NyzzD6HnF/tvWOK3frH/hqWrNixatX6xb/BCv2B6d7Fv8ALfdYt9g813F/tveN5rzULfDW5Bmxb5hbiv3jxvxepfLvVbGrhxiX/ofJ+1c70Cn/cOgEoCoHkL/da+sHLNCyuD5q1YPW9F4LwVq+f7rF7ks26h39qFK9e+sDJovjeUL1ixZuHK1QtWrJnvHfiCV9BcL/95noEu6QteQc97B9Dd55cHPLvc7zn3VXM8fOnJ572DnvcOmusV+KxnwFzP1XMxTyVUzzxP/xe8gpauXPfzZ92+/d2/jYhJBsysscbGzufnLrx9+zaEEmRy37Dt+cWe+TdugRoUGbVg6FQTcMKRapZK8Kk5bJpoZex2Tesv3FbcbuzolcAzVfaVu7+Yu7T2wYMBpnbYlfKukb/58dy/+dFzH56JO34h9aPICx9Hxh05m3TkbMKnZ+PhOp/w6fmEz84nHjubcOxs4tFziRPTE+eTj0Un8/Sz80nHzyUdPZd44nwy5T87n3TsbOKnZxM+i0r41Kjn+Lkk093ko2eTj53Vn6fajseknIxOofTEhdRTManmlMqPRScfP5d0LDr5VEzqydi0UzGpx2NS9O/GpEBJXPrJ2DTMpB2PST4em3LiQsqJuNRTcWmnEtLPJGQcORdP5cdjko9GJ564kHLkXPyx6KSTsWmRsVmR8ZnHY5JPxCWfjk89GZ92Min3dGrBp7HZp5IvnYxLPxWfcSYx90RMZkRs2oXUi6fi0o7HpkQmZZ1OzICmxmcci07+9Fziqbj0YzEp0NQL8N2T8Wmn49NPJaSfjs+AGhIyTydknknIPJOYFZGYRenphMzTeCsiMSsyKRvKEzKpL2di00/FpUfEQeMj4ZmMs4lZUcnZ55KyI5OyohLgych4rDAhMzL54pnErNMJmWdTc6NScs4kZkWl5JxNzT2Fnz6ffvlc2iXsRVZMZl50xpXI5Ivwlbj0CHwyKvni6YTMyKTsM9iAiKTsc6m559Mvx2Rcic64EpFwMSIpJyopNzI5NzIxh/JRKZfOJl+i/NnUy+dSLkcm50Yl5UalXDoVnxWZnHs29XJ8zo2zqbkJuddjswvOpuZGJl88l3YpJuvKhey86MzL5zMu0XUuPfd8xqXozMtUeC49NzodfsZm5cVkXYlOh8cuZMJbsVl5kF7M51dcdn5cTkH8xYK4nIILmVdis/LisvPjLxYk5FxNzL2WkHM1Iedq/MWC+Nyr8blX43IKYrMLLmTlx2ZDJiH3ekLu9fica3E5BXHZ+fRucs71dz8481/+6HsvvfnBgJ2NSKysvnPOwuXXi8tHJCCdKhra/33Oguu3QD9BkXWuPphoI6/LoG9VoG/BeEUVHSpwexo6HvzLL5779+cXveDuu9B7zT894/H7/98P5izzne/l/4Kn/+wFy3/nj/5s/Za9dnCyCBQjxd6gqJLgRBx57CRfhgMqHhS5RSKVTJPCkQntvvkzZCgD9aDiBdrXwdGXnkQ32UDum8t5Ho5VeBjgtVE99Ba1mbcNPVPqJz0675GvSlSiQjEvdoefUvhdfsyTNOgvnR7prqix6KTU9Et53PaaXof2YDf5Ec6lNqrTnJJ/TTyzwbGNnsd26nl+pHTJmPvukud9p3JBAx0oOhZ29vWNCYLM2IjdPmjRlVVKKquLy++TQXnbg96bd+519Q3i+KCfB2erYHbArzxjnT39jW2dze1dDkVvpwT6os42E25x9gjfAucLxjM0YtQpKnTpIH+AN55KRDDMco7VxBGmx/jrpi86z+f4lvMnPcwPpXz6+KnYmBfoYHPrwF/+zb/89+//03NuPi94Bfz4hWW/892//OHcxfO9Aua5+fzkmRd+8MOf3q9tgMUsEdNeQn1P4LqQcEVV1Vmy4tBAcVa1CqKoamN2R8HN2+m5BQnpl6LT8g5+HP3XP110JCotPjM/Lef6pfxb3n6rQzfttNjB3SapXEmSIMNlB/d0kk0GozQ7pKD1K6LPOgEN/8EIRpEdhhMAJ4+bGNnoahlekUSwjhQcFgVZ1W2tzZUVZQ671W6DElGwU0RS0n0lPVgZ1cpBVV10SKJNluzGh/RPaypwvelD2AzwRUDtoSfRpw66dddEBr5qQVnP7HICXEsrEjmPpowkCdB3dPQMXGum2hxWVDpTwUYehJxi+OawTz87apcdDhGY2xpjo5YRUQR7PVF0iJKNrFgUVZAVhwR6RTbKSLKdFHTN8YsUVeAXhZqnuEa8kGdgWnHwXaZAVWCEidPkMjUQ9xrdC92vKnvr0Gs1NVX19bXr1q354IP37HZrZOSZ5cvd/f39o6Iibty4ERQUsHy5e2hoSEVFGWyemiIIdlIeVlXZ4bBJkmC1jr399qFt27bs2rUjLS0FpHGi6HA4iDMpgcMcJhvuG1RVdTgcwH2WZYfDIUmS3WYBgwGYUIemyqJgBz87+mKDJUeGLCg4AM/dNCA0aHwcKLQM/eQjSaNN/nv5kzyjjzyuVb5CFNkhyTZZAZMjXg/NFEl6aGH0D3TX1FZabSOqqo6Oyms37FjsEXAqLu1sWs6hE1F/86PZ+9757Hx6wcnYtPi03LzrRQ7gyYKJIg4FbeMop0C5sSzLs2CIcN2AvSKoJQHoE0vGqrHCup7ZnsFNvTbiAEkqe/m1Q7t27xclTZSUq1evHz58uKWlCcVQ+n4EaxrZb9BhNKgxWPm6nACnE5jIBp+XjGA0tD8FPqUs2UlmRenZqIgXD+zr7+sh2Z3NYh3sHxgdHhHsDpvF2tPdNTI8aLOODQ32S6JDFOxoXAIbGUEXEv+gGMxlykYDELsb0jegK8g6lsxkcbGS31pykIkGPSrqKTjjI3CdJwUXe1ZuzoGXX8m/WgDyYcZESdm+e9dLr71O+GTEavngkyOvvfVmT28/vgicav6JiQq03J3CpLfoxYm3eMlkIkWQMJInlEnuojN7VRTePXzo5QP7RweHfvXWoe9+69u7t+/oamtfvszt9PETsecuuC1e4u3utW3L1tKSYg8Pt2PHjnKdflC6QP1+CYz51b6+ns2bw5OTEyMjzwQHrx0YGCB5xq1bt7Zt27Z169aLFy9GRUVt2rRp69atr7zyyp49e95+++2+vj5Zlm02G7niICM+bseHwl4i0gw1UlIxBXEM02PJMHA1PP3Fx3aScTCWhPOWLiU3Y1zKu0hs1bKykkWLFuC2VSE42Gtvvv/Rp2cgkBRjLSOOZ9z98oprRpGlp/u1QZEMWAKgCB0AHrctrlI6C7YflGOQFjJsY4LkkGE5Oxi7Ud3508W+te39AJ9g58jeeOOt0LBNRUW3Dx48+L3vfe/P/uxPS0qKwf5HtBI2EGW7nkf0AljCuATBTjurKIqCIDjG/ymyaLeNWsaGRME6NjoMDhs0RZHF99975713f+WwWzVVHhkaPnn8RNjG0N07d+VkXzx44MXQjRtCNgS/8fqr4WEbL8ScpzF12K1W24hDsNgdY6Njg2OWIZvNYrFYbPhnsYyOwd+I1Tpmt1vJcMRiGR0dGxwZGYLnx0Ys1mGr3WKxjY1aRoZHh4ZGBodGBkfGRkctY8OjI8OjI0Mjw4PDQ0Mjw3QNDA1a7bZDbx/+nd/73e9///sHDx68ffv20NDQiy8dfOvwoe7enpjYC0uWLf3m7/ynf/v3n5aUlIyOjvYP9vX29/T0dff0dff29/QN9PYP9g0M9Q8M9fcP9vUN9Pb29/Crp6+7u/dBd+8Dev5BTxddPX3dXd2dXd2dnQ86zFdHV3tHR1tHZwulnZ3tnV2tlHZ0tFG+o7Olra2lrb2ppaWpublxoL+Xacro4ID/Kt9jRz5RFanvQfeWTZu3b95yu+iW2+IlxXfuVldUzv7FL//3//8P77/7nqqqwcFrX3nlJU1TbDbLgwed3d1dHR1t9fW1g4P9iiIVF98JDQ1pbm4sLr7zi1/8rLCwUFGUyspKPz+/gwcPvv766y+//PLs2bPDwsIWLVo0b968nTt3zp07t6amhjbu1uaWirLy+xWVxXfulpeWlZWUlhTfKy8tqygrL71Xcu9ucfGdu3RBvrj49t1bt+4UFd66WXS7kK7CWzfNV9Htwlt3iugqul14s+jGjcLrN2/q140b18Zd16/evHGt8OZ1um7euHbjZsH1G/nXrufRdfXalYKCvIKCvOvXr+bnX8nLu5yff+Xo0SPf+c63Zs2a9YMf/GDH1j0LF7h/cvS0iIz3xt7h2Yu9rtypHJXZiAPsQeGMQ7ZKsFsrKkQ5BtMcNODX1ddmoWU6OInCUpBBy6piFxyCJFpktai2fba7X1VzB1CzGMzjvXfe/bu/+59/9Zd/8c1v/vZv//asP/nuH6/fsOall/fv3L1j34G9+w7s3f/ygYMvv7h3/569+3ft3b9rz76d+w7sfvGlfQdf3k/Xiy/tO3Bw//4X99HzPN27d/eBA/tefHH/7t07X3315Xv37jKmdnd37d27NzMzk7BfVFSUv7//mTNnjh49uiF4/S9//ovXX33tpz/5t7279wT6B+zZs4sx1WazpKQkHTx4YO/e3fv37929e+fOndt37Ni2a8/O3Xt37d67a+fubTt2bd+5exu17eDL+w8c3AtN3b8DSl7cdeDg3oOv7HvxpX37X9yze++O7Tu3bN2+aev2Tdt3btu5e8f+F/ft2bd7+85tW7Zt3rx109btW6B85/YXD+xbunDB737jt//TrFnfnDVrzs9+VlxY+Mr+/Qd27Xr38KE//fa3vjFr1jdmzfqb//EXYcHBL+3ft3XrZv3d3Tt27dm5Y9f27Tu3bduxdfvObZSh/I5d27G1O3bs2rpz97Zde7bv2gONp2vXnu179u2kku07t2zbsXnbjs3Q2h3hW7Zv3LJ9A6Vbd4Ru3RGydUfotp0bd+zetGN32PZd4dt3hVK6dUfo5m0hSalxEhPbO1tWrPI+HxMlqA5RFg6+9tK2HVvvVZTMnffcxSs5NXXVc+Y9+4//9IN33vuVLMsBAQHvvvuupmmNjY1vv/32G2+8cejQoffff7+mpoYxFhMTs3fvXovFUlVV9bOf/Ywm8cyZM+7u7n19fQ6HIyIiYsGCBZcuXQoJCfnwww/j4uICAwM7OjqQEnZkZqZvCFm7fsOardvCN28J3bR54+YtoaFh68M3hYSFbwgNW78xNJiusPANm7eEhm0KCQ3fsDFsfUho8IaN69aHrKWLCjeGrQ8N3xC2KSR888bwzRvDNoXwJ0NCg0M2rgvZuI5qC98UEr4phD63dVv4tu2btu/YvH3H5q3bwrfv2Lxz5/Zdu3bs2rVjx45tW7ZsCg8P3b59665dOzZtCtu2bYu7+7L/+l//cNasWd/87W/86bf+2/f/+n99/MlnVlFxMNbY3f/L+e7XiqsAXEVVEHVDQkWwjQ0Noj0i+WRD8T7ZiUoSwCeQEEj3kIc4UAwCpQPQ5i5p6nx2uV9NWwfoIQD7QDn66Sf/+sN/nv3Lf//WH/+/s35r1n/5g997861Xz0dHRkSdiTwbERkdFRVz9tyFGMicOxN59nTk2dPnoiMvxJ2PT7yQkBQbn3ghNj76QlyMyxUbfyE+PvbChejk5MTY2Ji0tJT29lbG1OvXr27durW+vh7NRJTQ0ND9+/czxhoaGvbu3nP4rUO3Covcli4ryMvfvnXboUNvyjKccYqL76SkJCUnJyYlJSQmxqekJMHP1KSUtMSUtOSklPjE5ISklPjU9KT0zBS60jKS0zKS0zNTMrJSM7PTsi6mX8zNvJibmXUxPT0zJS0jGR9Oy8hKv5x3KfdyTnZOVkZWekZWetbFzOycrJzczIL8K6Hr1/7ub/3W731j1o//z//55P13+tra9+/afvi1125ezfPx8vyTP/7Db8ya9Y9/97cpcXHX8/Nycy/mXs65dCX3Sv7lvIIrV/IvX7qSe+lK7uW8SzxDt/IKruQVXMm/ejn/6uWCa1euXs+7ej2v4NoVyhfeun6z6Nr1mwXXbuQ7r5t5V29cunbz8sTreuEVKrxRlFd4u+DW3WtFd67evJXf0FonqI6+4d6Atf4nIo4r4BRH2Xtw38bNoR09nb6Bfpt3bDnwyosbwkN2H9jjvdIrIiLCx8fn0qVLiqKMjo7ev3//3r17ZWVlVVVVY2NjgiDs27dv69atVqu1sLDw5z//+a1bYOsTGRn57LPPHj9+/JVXXvH19Q0ODs7Ly3N3d7969epu3EoFcKTDJElobWu8c7fwXsntsvLiquryisqSktI7pWV36SorLy6vuFdWXlxadresvLiisqSyqoyuivul5ZUlZRX3yirulVeWVNdWVtVU3K8uv19dXlVTUV1bSSU8U1VTUVNbWVNbWVt3v66+ypyvb6huaKyhi+42NNQ1NTU0NTU0NNTV1lbX1FQ1Nta3tbXU19c+eNAZF3fh29/+49/7vd9ZsmhxTFT0+tXBH398hLiG9R09cxa6Xy+udCjMgS5yAP10tEaeOv7ygf1vvfl6yb3bYEYGjB049pBKMMCnw2ZXVeZwOPp6u1VFEAQ7nfXtinKnrvU5D5/mnl5gmgEull979WDIhrUd7a0njn/2r//6L//wD39//34FHt5A+4dsZklDZdoDAJDKLhdnW5EuHgFkXFycj49PSUkJFe7Zs8ff3//w4cM7d+708vKKi4uLj48PDg4uLCxcuXJlVlaWYUAAZ13n+QEZGEZ7YEcy7LamO6XwIwq9iD+hzZw7zdsPykyarDLts+NHf/zjH7/00ov3798H/pBD2L1759tvv60xdXB46Oz5qF8+M3vNmqCeHrRTwaroQMurmiZDx2DeKvrJ22b+afR0yt65VEWBYYinb7OOvXhg34H9e+Ekb3fkZF9MSUpmqpZ3+cr6dcHhoWGFN252qCOlpgAAIABJREFUdXQefutQUFDQ2bNnR0dHaSXRfBHjUdM0SZLOnTt3+vTpwcHB06dPr1ixor+/X1XVzs7Ow4cPr1+//pNPPjl37lx6enpdXd1nn33W0tISGxubn58PDmIEwWYDbxJ00YGZTyiXPdBdLpBw6bXLgLj8dBk3GlX+RXOG128uNPEy9Cw5Ka2uvh8Ssv6DD94b6O9V7MLurdvfe/dXggTn8q7BkWdeWHb9TgWdXDVN6Whv3hy6cU2Af9TpU/6rfDeGrOvu6TDUb0ntUZkFB2nkEb333nu+Pivqau8zptrtVnT2xe7Wt83z9G/q7gWdWtA8k99847V9e3cT1/T+/Yr09NS+vh4YQVj0APWkREpakdyOcZplx29RRwVBQP/aQE4zxu7evXv06NG6ujpZBu3hsrKybfiXk5OTnp7e3t5+586d3NzcBw8exMbGdnRA9+hFxgDhk9o0tnwca4eggjeSQM6cuoANQiB4WiJmBLWZlj948UaTP0VT6xsbqmqqaYgZY6Iorlsf/Orrr5EsR2Osq/tBSVmp3W4HvWpNbxIfgYmQz29Nk6G28doog2E78BMwK9ByqNxI9fYbVqbILEQRFvbw+tVrm8M31VRVI22lySI6v4V9XLCOgWMXKh8cHEStaZgmvqVSntRQkYmtDAwM7N+/PykpiXNrFQXM3LnJCGEMDuQGAgFFVlr0pjnVV4WxiJ3/4bs4nnzizLM5zeiZb9EK5CYpE4DQzA2Cm/QkcXRUFZj2Y2MjIyNoW6IpktUeHRGRkZ4sKaDZ3vag77mFHldvlQFnRwAXGakpCfOenXPrxnWmqd0POq/fyB8YhI2b/BKTuRLqx6tqa2u7m5vbX/z5986cPk7sTfADwNi9hs65XoH1HT2Ao4G7q5aXl5eVlRlHWDDBIgcCdKbnOv6kV+0cP8Oa0cWYaPxP/XGabJoVQRBomgVBEEXQVrfb7RaLhe6K+OcMbmkIjvhAE5cYbC5UcNplvvinaUT4rODoOD1NGMsIrUANzEtjx2sgPixxyaE22KwgFezim28eOnLkKNn78wcUCY3/jdGZsA4ercDcKVMeuOLIOSeGLQwY1jvOxt1UAlnwjYPq3rdv321v78SRgUKiN8C1kqwK4J8DYMdYSfpYcfJH0zSDRgUJytDQUHFxscVioamkx/R5QbV0zrEk7i6NP4UtpUVFUOoyKMbgzfS/y+vQWdM18e5kJQSfk9yh1UiK9NQnEPhJssMyZreNSgrgz9buwbmLvK7drgRSFJx+KbFx5xcvWtDS1AxNYaoCbufGaIMjlAn++wjbXIiN9w8M2BQe6u0FZ3dAVhjV42Z16zzvtXXtvTJjDhlMBERZUplGnFc8J0jjxx2sKIgCMY+cMdC6bAdv6ZaEpjxkaXoI5GhPkiQwm6DOU4YEZcQEFgSBdnFKzR/leR0v8d8TMthmQI24Z8MBAPx0wR8sPmo8vYR5fePkJYQuaL2CgbwAZvLkia+pqam5uZlEf7QFAAPOsP/nm8Ikcz7jItwmoCZsjznV20+94PCJH50IpUgaMG3MYgMFDzQfIUdKYJGkyNBqFcw1HKIgiGA7QvxCmh2XUSImJBUS4UOLhCBQlmVJAuEwzakoivQkDyVM44nbNAkXyCckSe31lmNnaWuYUYrD6dprpHKBGpj0LhK0MKvG3cnhky8Dvr+AkEkWmaLKDrsoWGVVciistXv42fmeeTdLFcZsIsifiovvLFuyNDbmgiRJhYWFb799qLmlHq2mZG5+DPGzrXbbxrDQH/3kx4EBq/7X//zr6OhoouJExkpbBuYsX13V0gNavBhZTlBUh6xQaBZRhIr03ZSIP92wxEwJYJ4kSGipiCIsPaK7M68LQcfBJ02bKIJjX5pU3JwgJjRNMM0xv0tLgcaL0vGL3NkqfqhAPA8nAqLekcgD2gM0OaDNwBIjs0BuPEoREGjPo7sQP0oCYS8ELCG3cxiaWgSfavBRq93iEO3kbUgQ7PAVl5jT5s18mjwML66Yh6Y6zQoDgEMxLuXDYrb5xj1RsdvtouggJIDjD3CIInjYckx5fUaICuVrlKaM1AwoJXpVEGi/0+eXZpCDqxln0hQjRtLjVoB7O0D+tO8DW8EpqTZJrfl80ayNS0EfSUWts8+d0uLhI+fMmCkCflQGWb0E2hSSbJeYLKisvdfy3IIVeTfKZI05IFSDOjY28uKLL7q5eezdu3/58uV79+7u6Gzh80UsIvB/e7Oo8Lnn577//ruVFWUe7ksWLVrUPzggK5rAWGXHyC/dAmrawLcyhmPRBEW1SzLZlAmChKq9SIDQqsLlSIsSVtKk1xRsCw5XHF9RWwkxcrxKGaJ1OSXM706LkZzwiTQ86B/ThZhTpGaThB3AFdYE2rHp4mmEDfMBlDqLAAxrV4MIX1QhnXjp9AseiWQB2ORoHCvDuQHIm8kHZ9IR+3yFziUEOQ6K5gwRrvxBGk9S5bHb7URrcZAzTxAvNBOf9ABVQtQEpXTa5F8xliCvDzcbtNLk84gv6taqxEfQF5WxwPjc8QzfQF0zxisuNTz6T3MPnHlO2GO/9BUFqwhD5oDKASjwsY4+63MLVuTfLCf8SZ0aGBhISEj66KNPMjIyenoeAPcGNagMf1faLMZYUVHRBx99ODjYz5h6+9aNl19+ua2tTWUgLkX8GVjR0g1GbirMLF2Esui0w+ebmmwin5x9eNScC5jxIeDl5mXBv8vvPurnaPkqisaPiEhgGDjdpYdT1M61gkEHC22O9YbhoJFmJtwiptkUlXyZxXRs5iAqCeBGCSYYD8+o+qVBIZbQZqVPvwmXmMecAE7vNf4wd8d8d9Jn6AHanWlGiMwD23gTOWCu86uQNzeObxaw/6poEa3aZXDuxdp6xua8oMMnxhsgh9RwpCfOGWgIAszBH5+UWQ6HAyQqdruiSGOjg6oiWC2jcMBjgD9LW/vmLA8sbWxH+AS1KUkRgVGEpzLOIJkwTESyYzGN7MR0wjvTFPA5m/iMeXQm3jWXTDXHvBeSBBTq2Ji1paUNTOKBFQh7kvlFl/y4nwR7OLh0vid/JTDc6B+RtjazWyNz82aanziSU5U8rEZEVuizAjlnBJYyUOgAoqToyoGT0xBOEJ22fpctlU8TAaEZVukWLzGWlv4GuFWmXQNAFj85VTpte76cmxw+YQRh5SiSaof4Ywifz8zzvlYI8hVB0l0fE4ZDUpb2PDpvA/jQ0uL6Q0BLkDYw4X2NqXaNFTd1PeOxqrKtE86zTCF/ykSeoTgUgqXp42ugVo5jH9eIEHDSfPNZhMqJ1CRqeQYf4w2bNAMBFCWwlqmurTkfE93b34ffIt4DZOkL5gYYedNmhA9RxAdS4p+kXXhQh0PsF/yH3ZzOgyZq/4LUWlZBI4W6o0FEGQenI0AP1uCQmWkWPiATO0HPm8u5BMVcyPP6+tF3fBhnoyWUB54if/grnNFPTxxEgQuI8InBHeD8OfeFldeLgH8LjHDFDoFY8PyELl1EgwOidxE8vGiarj+kKArIPFGvXQY33eDpS2Sssr13jodPZVunCJWqpL+P/iXgBMVHloDFvO7N48iH21jQdHPcaRA3BX1izO/SAYZKXNfE+O+Nr9ylDqgG0dgUZ1/AcCrsappcXHznww/f7+rqoFdoM9Jxil7rxJbTaKD5GupFkFEFoFJUsCTZOpewGzVPbOSvUTIRq+CUGVJ7mD4XiEWRPWhWEONK05SengcDAwPA7BKEtrY2PBHpXePLTh9JpN/GbZE0HTqbEL5tnhFz3txJc7kZ5RpADmsUxw2pENglCVYnTSeZF2Oop7plbsuvn8c1hgxCPEWCnE1ioqBBSI+OPuuz872vFZYDNxIsUiQANxUcbuJpCICZesrXOcZHwhEycBSo3aAHdNWuAHzWdfY867a8sq0TGZFopAG2V2QOMkmfnbNI9NAMUu5ADYZysuf5A8DzND3Av4W8lumcBaINgAzNdnrGgXM4xYcWNQm5yQCfjMnFd4uOHfmoo6WRKcAlt45ZBDuYRJHMCQ6Q6KWfDmW6EBx5G3zjNwZT/0/TTguRDz09bJahu+RJzk5nVUjpT/f1BKsftxTDhkNFs6NxqfGK/t+5+AgbkS9s6gWqlKi3bhV+/NF7t4puAvtaFs9GRbz11lu1tbXUVK4tQNhMNyuZbrvjbYOdAf9AadR80d7Bd0DzhOp5blFk4tPiXunKxUWpvs6cA9ig0wn4EtYMs2Roq6yCtTPJcR9JeUYnn/AzfEKNGdfHljpJP+B4CGCp2dHOxMFYW59l3rKV+bcgYJmoQqvo9IRR78ipKv+Ic7KAP0R/+jzCwIDDlDGQA2gtvX1Lffzu1TbaUTGI7MWMCM2AP2G4Ycb0PO12uDDJhd8kKc7WZPEzYBbBTyQwqSdL4esodQPxkuFZj76FRyn9Lr3LvwLTSTXrJgK0rcAKR0tuAHq7JBrnTbmyouyTD97vaAGpcU1VdWxsvNVqh7ACChj7CgrgR7pwDwSgn36Vmpeky5O0ymaSqpq+tF1qAADTIxuCGb4zT9xkPYUoHeZLkokbz6yC7JDBr0ZDU+Mbb7yWk5M9OjqMhBbr6ek5+tnxV197o629k8zlQCQugmAUVc4MvQWM/wFnV9xdOcsQzu04wjzl4+aSofGB4YXJd0LwxA3LVTXKUBjSNYdwj+KW3Hx2SDQI0ntVt78XYTD0SaRoqGTHb85TCU9pYySxMI0AeO5DKbHLjNBPchEmMDamqHZwWMUejDrmLPbIuYYONRVFwCWHQIfAOQXX0IBPGkWEVI2pDkXAgA5a+8Cgh39gY3e/HeUrVAlpq02V8vmA3UWvEP7xPDDlACHoKS83PzOTPP+QM2PUSfW71Ox8DBtD65WmEyzicT0pMqupqv3w/Y862jqZxnJy8944/M7QmI3cRIC/CPSQwFNwLmy42zN7c6MHqMSlnH5y03vyP0De3yilpTMxxTB10ACXCnljXDL8Ey7wwL8FGznWNmQX3v3oyJmz54AFrWijY1arACppozbh0Dvvn49LJGNF3WQRJeH8Xd4YwagNXMYZF7lQIxzi0jx60UEOEwxoMTfV5Xnecf4iOaajnxgjTPfYRl+3aeD0jFJqG8RCxkZaZOB98nGAD6kauGjE+Z0qFTTgrtpUdO8mw1HQgT95Z10yY7JkURXw5CZDS7pHHL98YWna5TzwTafDJ0jaYKkjD9JMWxHKZIxNAp9I4qKvAab1jI78ZM6zi71Xrt+6fV345vVhm4M3bQnetGVd+Ga6zPl14ZvXhm1aG7ZpfRg8uSF8y/QXPcbTdRvDg0M30cXz/C7P8DrXhm2iJrnc4j9dMvj8luDQzevDtqwP2xIcujU4fPu6sG2rgkNfPvze7bLqa3fu3bpblpF9+cOPjnZ29ckay8i5ErJp29n4pOTs3LiMrMTsnLiMrLiMrNj0zNj0zPjM7PjMbCqJz8yOzciKy8yOy8yOz7pImdiMrNiMrAvpmRfSMykTk5bBL6okNjXjQlpGbGpGTGr6hZT0mNT0uDSsPB0+FG+k8ZnZMZlZF7IgPZeWfj4l7Xx6xoX0zPPpGWeT0iKSUqMSUyOT084mpUWlpJ9LhutsYvK5hOTziSnnE1OiE9OjE9PPJ6SdT0iLvJAUnZh+Ni4lKjYZPpeRFZWQtGXP/vt1jQpjRXdLtu/et3XX3pbObpmxlMycoJCwT06eiUlOi05KjYxNOBMTF5uUdi4hOSox+UxiEl0RScn8ikxOofyZ5GS6TiclnUlMiYhPjYxLjYxLpzQiNiUiNi0iNuVMdMqZ6KTT55PPRCediU6JiEmOiEmFC+7q15kLqfyiQv6TMqdjUo6fSzx6LuH4ucST0cknwdFU4vGoxJPnk977NNJnTdgSz4AVAeu9Vq1b7hvk4RO43C/A02eVp6/vch8fj5Ur3VesmHi5eXu7eXvzcreVvou8vN19VnmsCvDyD/IKXL3cL2DF6rWU9w5Y7RkQxPPeAUE+q9d6+Pl6rgr0DAhavmr1Ao8Vf/u/f3i7/D5sNOBKV1QA3unIqhOvHCx5xgU+9SMlidTtkjhss+04cPCt9z/86OTpd46f+hVebx87+fax04c/O/X2sdOUOfzZqUNHTx46evKtT08cOnqS36IHXNK3Pj0x8XrzyPFDR064XIc/PXn405O/+uw0XW8fPUUXldMX6XP0RXrsnWNnJrmOn3rHuN49cfrtz068ezzivVNRr3746eETZ47FJydcKoi9eOly0d24zJz3PzvV0tsvMpaWe2XVug2+a4KXeK1cssJnyQofNz//JStXLV7ht8jbd/EKv6U+/nQt8w1Y7Ou3yG/Ka6Gv70Jf3wU+PnQt9PWlhxf7+kHeB24tXAl3F/nALaqN0iV+qxavWgWFmM5fuXK+94r5K1fS8wtX+i1Y6UfpIp9Vi3z9F9PlvXKxt97spStW0bXE28/dN9DNJ2Cxl6+HX9CSFT5egavnLnVbtW5Dz+CIzNgnx07O+q1vfufP/vute2UiYzfvlW3de8Bv7fpl3qs8fAKXevkt81611MtviSd0f5G3L12LV/zf9q6FN6rjCv+XVpXa/oYGAthJWlCAtMHGYGh/QKsKkbQojdoSlVTKg5CmCUpSgkp4iaA0lUIrFBQRnk3DoyFSytvEhlBDsHft3b3vW33fN3P27t31eqtQiSi2Rsezc2fmzsydM48zZ76z2tySgVU/GIRbzFIZ9ZGHF68YWrxi9eIVQ0sGhpcMrHp4YM3DA6tFlw6uZTlFXZmXDg4vW7nG3PKhtcuH1trPZSvXuKoNDi1hlZcNrV6+anjpylXLBoYfGRpe/Mjgff0PzVv04PcW9N23oG/hA9+ft7B//qK+Bf0PLOjvW9Dfd3/fovv7Fs1ftLCLm9fXh+T9D87ve2jzK6/u2f/O1u07tu3YvW3X3jfe3LNt197tO/f+aece82+Hf/fOffv+vHsfBrVdb23fvf/AoSNfVGu1OGwkQQRcIVw48WIR7MGMLc3TgT+lQFOvTwMdO0sbaVpPME1PA2E5n8zziazpij/vpLncRIZos7oKM2zSDPlXsnwyyyfTJq34cD01Opm2FGOSae1pJcureYurENh2Is0m0mwqzyf4CsTP85uN6GYD9nFreX7k9Nnnt756+frNKM8Pvv/BU79/ZnyiGub5ZBBV4mQijAQzC9xXIrtWiQErGNg7SWJuIk0n0nQyy8wVQ/Ree1T06FEpAlo+yyp5Xs2ySprKVbOsmmWAnCUcLhBo6ddPAeHWaAwGaLeJc9UonU5gzHsqzrRiP3bqzM8e/+WVz0bDNDt0+IPVP/7Jk7/deGP8Vpjl7x0++oetr92uTIdZHqR5LYJ0pRbBLCwQhn3m5q9n7i3A5hU6LlupAtBdgOsWnVpSmUwnLre6kIpR4Kzk7HWsTvlpPc9qWVrL0jpVa4IMhRSkT5BIdu3uVar3Q2+TAiSpiclfwkwT3I+o7WyLMGXFBbn8imY0JB6aAIPiPK82omq9Vg+miDsFFhWXUnuxN/7UKQuAqlIa/iEIWgDbR6hti9N+rBMtYpyV/CqRUXtarH+x2sWNvjWNNg+WVh6lsvgljwNtibHNwK6PsPmNJD/24emXX3tjfGJKmZ86/fHWV14fHb2eZvl7h95/+plnK7W60OiUfyOFhp4KYFjv8Ggk9NS+Vsdwg/MubVpm/ak3Krn57adC9I1YQkHOA3XeSoi6e4C8hFbqPr81vuHJX23b9jquFtIGaXV6KsvzycrU85u3vLlnL7Zk3q6KyYpMhKwjFROT2D5f4harPlHhcaRgToh7+hlkCSwcw3qqcy09TeX3MOgdHnlmM6mSkz5A5kh5Ay2gU2aVJAGOIyjdRCwXk1yLwkPqKcENgpxfK1BWPkvSOIwIiUQlBPK3Dh8gOlP9mRuEjjBml8F+Q5rXQtyZxAUDosAlaQPbXjeG4PqkBo4i7TB/gpVTqRpBJRoG84gbJkkpZWW4i0xJG07P2kOKMfW0F+pSQT8aF1bsblRHP/VdcbZezHnGmNS51qVhNUJQx9FTHKdnz348uHLVN775rV//ZuO5T3Dj8cyp0y8+t+XzUciHDh48uGnTpvHx8UqlcvnqlWujn41eH7v1xe3pek1n+rKlC8klb7nI8Ex3iriwDI1rQKXyF+tCebLupUGRSTFlfkrScmmr+1ZyhkbYAiISiIKa3q/yoUoJ5ONJEgUBtOGzLDl2/PCKR5e/tW93GECTLE3jGzfGNm9+bv369SMjI5hAiIuj205SSoGcPKEQ01tekv0lo4K24kkJeLlQjGbZWK/yT0lAWFp3S7bdrza3r4AIsCLj9G+a2izOVBeMTQnOCifSGUqugqmxTPGYBxCuFcWSvkll2gla2TrnS+JQp9xWX6FD6inMSOK+NFLrRnSQ4NCT87NuSmPQ84M5rYP1yp9+zAXgIm3p6EoBOgSOjwD0R+aMZqKoOa36wiYa489EW3JIgbiHN/ZGi3nOnoo3vqAjBYhM9Ko8xTXFkydP/vDRH337u99Z//hjFy5dTOPk3Mdnt770x7GRq3kSXzj/6V/e3j9x5/bf//buE09s2LDhF+vW/Xznzh23b4/zABofQErw+OpJDFM3HWkcQEdaT72f57r4xoTAbFJ+ZoBHEguzGe7QZ7Aow215KnsRKhE509KNUdrBQQ7Ey2xSdCWXs38LgFHDYDoMpg/89e3H1v305NHDWQqgtgPvvrPlhWc/OfevmFCgwrk0jFIkZ25WKtVC4KnNGvFMS73I9yUgj8oVw4t+nVd7xpjxv++WLf/F63ZO4y/EtvO5tzrVYi2qayDtozcb09q22GMZ6LaUmbt/w4EJGloaH6WHQDaW/Nb0CIoTp/O3zp+YYBWbqzNvr16DioBeyRUx+QrYkAYPqRBRjkzWRL16lKp32v7G7mndxVRql6ZJ1KhPA141Ck6cOPbU7zaev/hvroTSM6c/evnFLdcuX8rTJAzqUxN3kji8dPH8ieNH/3Hy+NEjhy+c/zQKG7qdoLGTB4IYnnGnCeY7e6OK30bbOdblbDGxuMbBO8JTvkvnnkYdAKjdj8MooPhNzlEIdDAaaUj44qhx9cqFsZHLjXo1joJr167e4ZUJYD/GodWXxUM/RmtrBBfqOXUJiK5KmYfXKMBoTh5A89IpB/m7UEUDg8uioadcQ5btKdrFF/bIBEeptNwlqjVzmCZwfhWt3ttObZ4veTjZQOhacJirmAMolR9cSEp8VqAuE7LYsgK/qDW8oUXfaTssbgvnK2JX4092Bf8t3ZqhqZThjmtaESWciPhe+Yev2Oq0vuc6B3uOKAjhoqhWq42NjUk/Jo2Tjz7850svbPnP9RtZkgqF1fAZtLrTeB5FWiJiXavGS7FRxyqqRHmvhasr8rGeOkwC6kjyC5XvUrMdpRPrKA/K4OcYqpGUlNVEP/bOVRzF0vFa53wwkMcJ0E95RaJRnwZuLZGmaSIPWFVat2Psx40cYVBg56ZNGodIt9MxPx+hvgqJIZTB9KVUPVMuVjutpFDs9nAt9Ljf8fNVBG6ETfkkyABnINfI45AOO15xbCu1DXCLB+ufNke7e4hGs31GKWrC4IWVDuUSYFfpQnF5rBGHW2CwXGHH6qZN++fnTwW4rT3GOTKnVl+2pm/iXOhEFTOjx7ZhCDoPP4DlP7tH8TtujmdP3CWGq4uvPQuG6MIrpHAjCgDDq6FXQC3SGRq5dFk6fdrG6Nq34AJUWprQRZF1iRbafwnm5ZmcGYyg1gG0WCSz0Jg5KxUzkC/dzGh+pbVmKPV+hSvQ4piHd6BxtVwwMUKi0E/t60KgJLTq9DiMGLdctB4sDjTZjDymweIENOwaxbdrXVYqs//Ji5Qz6Peh0/v52flhQ1Rr2+ZeHTrkWauDdCo2AVVHj6RWJcoviP0Dx198haK81/xcRBm/6S44lqIZnVucah2hyYPN0TN/usbTmalumjY/rm+45n8bI3tGiCiM+nhXRy3nuxqO/uvvVXuDFHwz5GwaFDA1EF0JnSzJarUGykXeQ8ORA5IkC8PYb2bAllK1wRUFjgAmt2sbFtzXKoW7lm6XHnYMgQwRk6LxP2SzJoPlPGVrBW0nJFlS4W2E7lhUJbTihRFag8MXKPLxC5H2jYo98howqJb8xXpY5j4nl44Fb8+1FNI2P3OMZZ5FjX9NDG6G4JfCQkcDR5MWZhQNmu3UGrnkUS2K9eriZ0OoJ5ObtKQhHoBb3WgfyX5gOTd7hfe1zp8+1DG6459maImjis1dSKI332vU9TbXZclPmkCk8i6tdy3hyLqoNW9duRUBgQUzXZXiEJVL8dr6d7GZ/gf/bLMnehxl/HgRhwsUmKCBYJ48A95/GMiQs1ahthbVAKTCqBNYafWzRJEfmVPmq+3gxMqoYUJUT62mxXdZoHl8yYscBY1d8MtM/MaSlErY5ae9yw8WzYnE+9zYoT7QJauOjyz/Xj3KhbEdp4g/FW6XWn01O2Y7E38a65dTdSx6KbCcprffpUx6/Nlb3oglDmS2wgp1I4jaTrsLXnEQzh3YEvd9AA4bxSGsOWHkw+Ik1/5Bt4G0O8ULbK7WjD0rZb9kOnHFjJTdq2UPKRwgAmoJZQsoh7gzAJaFaBrDpai1I1uqxEWqI5fxOpzAqQDiYH+M8niwUtWuhTIrxMG7utedkYxodDNq4T16SlVAA+qPpbPqck3XOkkUnrHAPb7QolluFtLVY6/zBXOxLVzDnnuqlixn+DXiTzWLoIA02+ugj7DamFdkg4y3c9Ry9j0I5yVQL6wptMtwVLc92K7N+Mp/VlpcgMzid0OvAysj4G6oMw/5zbCXzuW4wy2UR5Uvf30bhRETjG210y5d8TVRFnuVy62QvxJ2ox3efXeDWgvI1UZ7eVojgUt7dy259VB2y9m/xKWx8CZ/4kS0Y45d+LNj/LnA/3sLuNmg0z/NFRJoGfidHf8ZPqWwDosZfJluQ0mRAAAAMklEQVRC3618vkwZvrZp5/jzK/npO/KMAlUfi/CVrN5coX0LzPGnb4m5/3MtcO+1wH8BiVqvSfZ9HFsAAAAASUVORK5CYII=;" vertex="1" parent="97">
                    <mxGeometry x="255" y="40" width="309" height="174" as="geometry"/>
                </mxCell>
                <mxCell id="156" value="" style="shape=image;verticalLabelPosition=bottom;labelBackgroundColor=#ffffff;verticalAlign=top;aspect=fixed;imageAspect=0;image=data:image/png,iVBORw0KGgoAAAANSUhEUgAAAN4AAABNCAIAAABG900NAAAHJ0lEQVR4Ae1d7bW0rA6lBGqgBGqwBGqwBHqwBGugBGuwBGugBN+1JuvycCUgjIB6Jv44y8GQZDbbED6Gw3a6CIFHIsAe6RU5RQjsRE0iwUMRIGo+tGHILaImceChCBA1H9ow5BZRkzjwUASImg9tGHKLqEkceCgCRM2HNgy5RdR8Ewe2bRNCsM9ljHmT6+W+EjXLMbu7xjiOjDFr7d2OtLVP1GyLbwvtUkohRAvNj9JJ1HxUc5w7Y61ljI3jeC76cgmi5ssacFkWxtifTzT3nbZ3vIyZ+48kmkTNtxFz34UQUsr3+V3uMXXo5ZjdVwMSTa31fS70s0zU7If1dUvGGMbYsizXVT1fA1Hz+W30z0NINP99/tN3RM03Ne/vJJo0DHoTLyHRnKbpTU5f8JWi5gXw+laFRHNd175mb7NG1LwN+lLDfqL5C7GTqFnKkNvkXaJprSVq3tYMZDhEYBgGpdS+7/M8b9sWCvyxEoqar2nQbduGYdBaz/P8GqcvOFqfmkopt92VMSal9F9xyOVhM6wQ4q4dNNM0OSc55/L/r1/oLi9wplPV+tQEx4dhYIxBB3T4KuM4Hvh6EOj2EZw8LK7ATnLOuf9GdXOJDDkEWlFzXVfGGOfcWYKbbdtQvh7E+nzknDOGIADO/8guij5Qf2EFaZgvtKBVpJSHnYXW2rt68NDDbdsYY8MwhI9gchtlbShMJY0QaEhNSCtd7LHWPidewjiXMYamlbGQ36gNSC2KQENq7vsOPSYsYCilHvVLK6UUYwxdXIHJbZS1KIhU2AKBttTUWsNg6Gm8dK9NiCmEzEcF+NDJXyhpS02XtKHB6UZ80UQTVlmEEL/wy5sbwc803Zaa++cHA4yx7zZmz/PMS678ueh5nmEMpP93SSk554eJpEwQSawFAm2pOY7jNE3oLFKLL5OvE000tdbEznwMW0s2pKbWGoIQrLs8qpeMzWhyztHTB2D5iv6GCLQjaCtqTtPkuAi9p5tFavdlMjWjiSbUjVE2UzOJVUSgCTXnz+V76c8i+eW33MOrEs4NwaAtXMG6xUkyWp+axpiw1d0sUhHijYZBaKK57zusEaAdepHbJFwFgcrUNMagg3HoQx9yvlms14b3x1+6pB0eVUj2nZKa1ITBeMwPGAzdvoYOZwb5/HMOg/9usn2apvTy1dMma90XqX5zyzetQM11Xd3eR9igeYBmWRYIVG6bJhpZD7Wqf9Raw44TcENKeUg8rLXic1lrjTHpWVI0b6nu80MUwv6H9Ita3dUK1Kzu070KgXPpOLEsCxp3wfNhGGKZwLZt4zjCNL9SCrWSI9MOotjBx+mv3MIfomYxqhBc0RCyLAsEZpSa0L24R6DHTbGBHzkyxR6XV0DPo9NaH/qZcsUFNYiaBWCBKIS9QzXIFrTWMPx3/PPFpJSHTMYYwzn3WZ4j4+tsdI8efGytPXjbyDqoJWoWw5tuHhjmh9SEDU1hD+7vts6RKXa3vALM76ID1vFzlav8pgZRswy1eZ7dEB6tGaMmlPsBEqpzzp3CHBnUaN3CxMHH67p2W5IgapY1q5QyPXKPURNy0NCYEMI1do5MqKF6CZpoOivdTlEkajrMz2+gpws7Zb9mjJowv+ZLwr1PxxyZUEP1EndMCKo5zIZRseuFRM0CDCEXTFeIURP2nYZ1gZrQ0efIhBrqlsDrdxiu+SbGcUxMnPmSF++JmgUAwoA6XSFGzdimVfgtPAybcmTS1q8/hY0EiS3VcLrEdUOnGoiapxD9E5jn+XTzRyk1/agZo6Yv88+bNnf+eXSoBdhzgz6qW0jULMATJi/TFWLUzOmsc2RQ6xB6w32+YcnpqSTpRNPtz0LdqFtI1CzAM6cvi1EzZ4iTIxNz1+ZdsepQDolmeskHdrum9VR5StQsgDGnL4tRE1aJ0HlNlyTkyBS4Wy4KiWZ6CiLn/Sy3jNQgaiKgxIqg5WJPoTxGTagbrhL5h5blyKStX3zqJ5qx2Km1phH6RZzrV4fJozDy+ZZi1IS+8jBdD+subjicI+Pbqn7vEs3Ewcfqc1U3HSqkqBlikirxl7xROQg8aJ8YjqKUUocIlCOD2q1SmHPwsRDi8IJVMR0qIWqGmKRK4FzgUGKe52EYYBzjtiqHGzfHcXRn7MR6xhyZ0IEqJacHH0NcT/cbVTyh/xtUDKMxxo1aiit/KmzbBr84RSMr6MyR+c76xVrGGLcZ5aKq0+oUNU8hOgoIIVx2eHz21z/3/O5EzWI29f8pQrGLbSrAHv42uhGtRE0ElNMipdQPBs7OJ/ATNU95iAt0bifciY6lSqnDz5haGydqfo9wYufY90ofWXP5XJ1dI2p2BpzM5SJA1MxFiuQ6I0DU7Aw4mctFgKiZixTJdUaAqNkZcDKXiwBRMxcpkuuMAFGzM+BkLhcBomYuUiTXGQGiZmfAyVwuAkTNXKRIrjMC/wEl/zA8VxWmHQAAAABJRU5ErkJggg==;" vertex="1" parent="97">
                    <mxGeometry x="10" y="100" width="222" height="77" as="geometry"/>
                </mxCell>
                <mxCell id="100" value="Wheatstone Bridge" style="swimlane;gradientColor=none;startSize=23;fontColor=#000000;fillColor=#F0A729;strokeColor=#F0A729;" parent="1" vertex="1">
                    <mxGeometry x="350" y="140" width="550" height="365.5" as="geometry"/>
                </mxCell>
                <mxCell id="154" value="" style="shape=image;verticalLabelPosition=bottom;labelBackgroundColor=#ffffff;verticalAlign=top;aspect=fixed;imageAspect=0;image=data:image/png,iVBORw0KGgoAAAANSUhEUgAAAg0AAAE4CAIAAABXJVdAAAAgAElEQVR4Aex9eWwUx/Zudbe6ZzzyhgjkJ+4LEYEglqBAQBCCIAEBIUog3CQsAoLFKjaLVWCCWEWAKGwiIQgbEOsNGCO2KCGJLpvMJpYgAhcRFrEKG1veRrO1p7ufLt/LefXr8dgz3pgx5T+gpru66tRXVeerOlV1ilniTyAgEBAICAQEAuERYOFfiTcCAYGAQEAgIBCwBE+IRiAQEAgIBAQClSEgeKIydMQ7gYBAQCAgEBA8IdqAQEAgIBAQCFSGgOCJytAR7wQCAgGBgEBA8IRoAwIBgYBAQCBQGQKCJypDR7wTCAgEBAICAcETog0IBAQCAgGBQGUICJ6oDB3xTiAgEBAICAQET4g2IBAQCAgEBAKVISB4ojJ0xDuBgEBAICAQEDwh2oBAQCAgEBAIVIaA4InK0BHvBAICAYGAQEDwhGgDAgGBgEBAIFAZAvXEE+bff5XJIt4JBGqGAFpZzdIQXwsEBAJ2BOqcJ/4miAr+t8sifgsEokeggobFPYo+PfGFQEAgYEegnnjC+PuP68KmXRbxWyAQPQJ8i0Ir459En574QiAgELAjIHjCjoj4HV8I8KwgeCK+6k5IGy8ICJ6Il5oSclaMgOCJinERTwUCtYdAHfKEaf7XsuTxeILlwWB58G/L03//R9+uvVKIlAQC/x8Bv9+PH7qu8yzy/2OIkEBAIBANAnXIE/n5+ZZlgS2iEUnEFQjUCAHDMCzLevToEZofUUWNEhUfCwReYgTqiicMw2jcuLEkSYwx+e8/6fkf+/sPP8W/AoG6QOCVV14JBAJEEmK88hJrOVH0miJQVzwRLA8yxiRJ0jRN4f7+5gjxv0CgrhCQZVnTNMYYWTiFnbOmekJ8/3IjUFc8YVkWBomYT2BiYVMMdTGKFGm+hAjw7QrFV1VVUZRgefDl7t2i9AKB2kGgrnjCNE30XpfL5fV6A4EArMZY0w5d2eZXuUVYIBAtApZlBcuDfr/f6/UmJSXJsswYCwQCtdNLRCoCgZcbgbriCcuyVFXFNIIQFuM7gkIEaheBQCBArYsxpj3/oye1m5dITSDwsiFQhzyB+YSmacI6/LK1qhdVXtM0DcNwOp2KojDGdF1/UZKIfAUCDQmBuuIJwzCwjq0oimVZvBmBtqA0JBxFWWIHAVmWVVWVZTlYHqTGJvY7xU4FCUniDgHBE3FXZULgKhAQPFEFQOK1QCBKBARPRAmYiB7zCAieiPkqEgLGGQKCJ+KswoS4VSIgeKJKiEQEgUBUCNQVT1iWRbvahfuEqKpERK4hAjxP1DAp8blAQCDwX2VedygInqg7bEXKlSAgeKIScMQrgUA1EBA8UQ3QxCcxjYDgiZiuHiFcHCIgeCIOK02IXCkCgicqhUe8FAhEjYDgiaghEx/EOAKCJ2K8goR4cYeA4Im4qzIhcBUICJ6oAiDxWiAQJQKCJ6IETESPeQQET8R8FQkB4wwBwRNxVmFC3CoREDxRJUQigkAgKgTqlSfgWjwq+URkgUC0CAieiBYxEV8gUDkCgicqx0e8jT8EBE/EX50JiWMbAcETsV0/QrroERA8ET1m4guBQGUICJ6oDB3xLh4REDwRj7UmZI5lBARPxHLtCNmqg4DgieqgJr4RCIRHQPBEeGzEm/hEQPBEfNabkDp2ERA8Ebt1IySrHgKCJ6qHm/hKIBAOAcET4ZARz+MVAcET8VpzQu5YRUDwRKzWjJArGgR0Xcc1J7iYXXn+hwQCgYBlWeKu7GjgFHEFAv8LAcET/wsO8SOuEfA//5NlGXefmM//guVBy7IMw8BP/BvXxRTCCwTqGQHBE/UMuMiuThAwTdPv92PewF+QBRcAtsmEaZp1IoRIVCDQQBEQPNFAK/YlK5ZhGH6/P1ge3L9/P2NMURTG2O7duzGZgOlJzCdeskYhiltrCAieqDUoRUIvEAHDMHRdP3z4sCRJWMfWNE2W5f3798Po9AJlE1kLBOIdAcET8V6DQv7/IgBTUvv27RljTqcTpidN07p164YlbgGTQEAgUG0EBE9UGzrxYQwhoOu61+t1Op2wOGmapqoqY0xV1UAgIBYkYqiqhChxiIDgiTisNCFyCAKmaS5duhTTCNrvJMtyo0aNLMvyeDxYqAj5TjwQCAgEqkZA8ETVGIkYsYMA1iFM04Te13U9WB4MlgcXL14MenA4HLIsO51OSZIwn5gxY4bH48GsAhufYqc4QhKBQFwgIHgiLqpJCPn/EMBig8/nsyxL13XshV20aJHD4QAxtG3btlOnToyxlJQUEAZjbMyYMT6fj05OCDOUaE8CgagQEDwRFVwi8gtGwDRNIglMKZYtW6aqKg5gf/bPz7BBVtf1QCAwYcIExpgsywkJCZ9//jnOUtBc5AWXRGQvEIgfBARPxE9dCUmfu9/ATMIwjGB5cOHChVivZox98sknPp/PMAwQCVhk5syZoBBVVT/88EOcyhZACgQEAlEhIHgiKrhE5BeMgP78D6evFy1ahN1NjLHP/vlZcXExuCHw9x+WLubNm6dpWlJSkqIoPXv2hOUKEw4URpy/e8GVKrKPeQQET8R8FQkBOQSwJmEYxrx580ASTqdzyJAhxvO/QCBQVlYWCATIUQc8eWRkZEiSpKqqw+H4+OOPy8rKcPiOohFVcFmJoEBAIPD/EBA8IZpCPCFgmqZhGDSTcDqdH3/8sdfrxdpDUVERztwhGr9ePX/+fPL7NGDAgEePHuGtrutEEnz8eAJFyCoQqGMEBE/UMcAi+VpFIBAIzJ07V1EULEt89s/P/H4/SAL5YGJBPIFlDMuyAoHAsmXLZFlWFEWSpA8++ODevXuWZfn9fsETtVpFIrEGiIDgiQZYqQ2gSPw5CawoBMuDgUDgq6++SkxM1DSNMfbFF194PJ4KC4uZAU8AeLJ69Wo4gGKMde/e/eHDh4FAwDCMQCBgm1iIuUWFwIqHLycCgideznqP9VLz5yS8Xi/0+Pz58xMTExljkiQNGjQIXmBxhKLC8th4wuv1ut3ub775xuVyYTrSs2fPhw8fYraBRW/+kwrTFA8FAi8hAoInXsJKj4Mi8+ckLMvy+XzYAqtpmiRJaWlpwfIgb2IKVyRe75eUlGBP7ffffy9JksPhwKyiuLiYPufj00MREAi85AgInnjJG0CMFp/ccmDtYcaMGXROYtCgQcHyIDx2YNsSvz5hK49N72M1wrKsLVu2YAcUY6x169aPHz/GSgYfnw/bkhU/BQIvFQKCJ16q6o6bwtL6s8/nw65WuOUYNWoUrSXUpDDB8uCePXsYYwkJCYqidO7c+c6dO5htwORF+6bAFjXJS3wrEIh3BARPxHsNNlj5TdMMBAKTJk3CyrPD4Rg2bBjcNNW8zFimzsnJcTqdMEB16tTp5s2bSJlOaYhbtWsOtUihASAgeKIBVGLYIsTFWDickIZhzJ8/X5ZlrCUMGTKktLQUO1lpyB+25FW9oO1Mhw4dSkxMhIeoVq1a3bhxAyYvj8dD6x9kgKoq1Rf2PvYlfGHQiIxrAwHBE7WBYqymEU4Fx5S84YScPXs2nYwbNmwYSAJKnLR8TQqCjbCWZR09erRRo0Y43d2uXbsLFy7AmaDgiZrAK75tSAgInmhItfnfstDQssJATJW2QgmxkWnWrFm45poxNnz4cFq1rrn8fKZgAsMwcnJymjRpIj//a9q06fXr1w3DwOGMGN8vyxfHFq45ViIFgQAQEDzR0FqCTVnYfsZUaXnZsGcJHvzmzJmDS4dkWR46dCjOSQQCgUqOSkReLlumoArMKho3boyrjVJTUy9fvmxZltvtDqXeyPOqh5h8cWzheshdZPGSICB4oqFVNK8sYtxyAlFpUI+aSE9PV5//ybI8atQoLEiAReAwvIYVFooPvAHquv777783bdoUxq6mTZueO3eOznvzX9VQgNr93IZhzMpZu6UWqdUzAoIn6hnwOs+O1xSV80StWPlrUh6bjrMsa+zYsbi4lDE2dOhQHI+o+ao1L2QoPtgO6/P5guXBEydONGvWLCEhQZKkpk2bnjx50u/3e71e/is+tRcetmEYs3K+cKCEADVBQPBETdCL3W+h9TAMx6qs1+uFuG63GwxBph6baaU+S2WaJtHAjBkzkpKSsCwxdOhQn88HBV0X8vD6FGjAf5RlWbm5uZhVSJL0yiuvnDhxAkD5/X6soteFPOHSxE0b8I4O/yKwwum6DrdUdNLQtoX3hQ8CwpVIPI9HBARPxGOtRSSz3+93u93QwvCf6vV6YeKH4sMBBeggXm9GlHrtRcJ1ERMnTgRJSJI0fPhw3ExXd3qZLy/CwAHI3Lt3LyUlBd4GmzRp8vvvv5OmRoTaK33VKYEq/M//ICrCWPAnnqiwRFWnLmIIBCJAQPBEBCDFYZTdu3czxpxOJ2MM58jg9+Lbb7+9ceMGVmhjhCcsy5o5cyb2GkmSNHjwYHAbSKKO9HKoVqUBOFZBbty48cYbb6iqiuu1f/vtN5r31Gdz8Pl8O3fuVFW1SZMmWGMn/yWLFi169OgR2KKS4tSntCKvhoqA4ImGWbNZWVmKojx79gyLtCjkmTNnmjVr1rVr18LCQhguYMqwaZm6QIS0cGjis2fPhu7TNG3YsGE0AbJdNhf6YU2e2IrM/6QrUW/dutW2bVtN03AR3uHDhzEtq0m+0X7r9/uzsrKcTufjx48xpwF9Xrhw4c0333z77bfz8/N54flwtHmJ+AKBcAgIngiHTHw/37VrF2MMZ9OoJIZhrF27Vpbl7Oxs2CugVuphfQLaDW74cBgC6njq1Kk4ca1p2vDhwz0eT/3rYsInFIfr16+3b9+eMQYbVE5ODlwQ0pIG/21dhE3T3Lp1q6IoXq8XJznwr9/v/+GHHyRJ2rVrF6oSwmP69UKmPnVRfJFmjCAgeCJGKqKWxdi+fTtjLFge9Pl8WPnEOva+ffs0Tdu7d69NJ9b1OJTWY3Vdx+q0YRhTp06FLYUxlpaWBgnpEtNaRiSy5HgcYIC6efMmqEKSpKSkpJycHGjhWjnMUaVQxBMej4fnCcuysrOzGWM7d+4EB6OWBU9UCamIUA0EBE9UA7Q4+CQzMzMpKamwsBCbnYgVcIvD7t276QmvGWl6Uesl5HkC49+pU6eSqX3s2LG4V45YrdYFiDBBHg365Pr16x06dMC8hzG2b98+bC6iCHUX0HU9KyvrlVdegQmRqMIwjFWrVsmyjPkEkYTgibqri5c5ZcETDbP2d+zYIctyQUEBioe9T6dOnWrVqtXIkSPJeMKrRQrXBSI0Bsfi+YQJE3AzHWNsxIgR8AKLcTFZUepCjCrTJBBoQQWziry8vLfffhubAmRZ3rZtG45qV5lgzSNs3bqVMYZdYcQTJ0+efP3118eNG0fnycEQgidqDrhIIRQBwROhmDSEJ9u2bWOMJSUlqarauHFjSZISExNlWXY4HOfPn8cNcVjE5ksLLck/qcUwNum63e4pU6YkJSXB4jRmzBhcM0duOehmbFLZtShDVElBALgSMU3z6dOnHTp0gLtARVE2bdpElIbhPAlMHBNVdhVGxn4nxljTpk2RNU3CJEm6dOkSZHC73cSySAdLQSRShYmLhwKBCBEQPBEhUHEWbdOmTS6Xq7CwECNQjDrz8vJGjBjhdDqLioqwTmArFd02ante85/QYrqujxw50uVyYWUYC9f8oiv8ZNiOjNU892qkQBqWzt/pul5cXNy2bVtchJeQkLBmzRpyJYIVePqqGjlW+InP58vKynK5XCUlJfxcobi4eNSoUS6X6+7duzSlAPFv3Ljx0KFDZWVlJEwt8laFQtbKw7gQslZKWsNEUK01TCTazwVPRItYfMTfunWrw+HAqWwMLXF899///jdjLDc3lz8IjSIVFRVBE9VFCeHEe8qUKQ6HAzfTpaWl+f1+wzAgJI3NQ13v1YU8kaRJdIW1ExjrCgsLe/bsicmQoigbN258+PBh6GJPJOlHqMczMzMlSfJ6vbztzrKsn376SZKkixcv8nn9/PPPXbt23bx5MwCnLPg4sRYGQwieiLBeBE9ECJSIVjUCmzdvdjqdNAil4fzFixcZY5cuXTJNE1ONw4cPw/NdampqZmZm1Uk/jxEtowTLgxMnToTlRJKk0aNHY6MnvyBMRzpiwWZCGhZAQYvBvvTgwYMBAwZIz/8YY+vXr8c0iP8kEhgjiW8Yxo4dO7B1DVsS6HTk2bNnHQ5Hbm4ucDNNE87YGWMHDhyo09MnkZQu8jjANtoWFXn6DSwmP32st6KJ+US9QV2vGWVlZTHG4OCBMjZN8+TJk5qmHT58GINTj8ejqmpOTo5lWSdPnuSXvumrCgPUq6FGaZMorDQ0WXG73ZBhwoQJmEY4HI5Ro0aVlZVRCpR+JHqTItdPgIa6NNqF2Hl5eZ9++imddV+8eDHkITNUaFmIEZGCbbwfGh8JBsuDqEqkTFMcwzDOnDnDGMNRGBLPNM1p06bl5ORAm1B8pF8/oEWSC9W+DZZKcIC7Rj5CJeFIZKh2HBpjkQBICj+rnWyFH1LN0lviCTLY2toSxazFgOCJWgQzhpLCOTsy90My0zTPnTunKMrOnTvJVAKDz65du5YtWyZJUnFxcYTF+PXXXwcMGLBu3To4AvH7/YFAgJq11+uFBamkpGTy5Mmw6SuKMn78eGRNswfKjnodJUKvXniAVwFlZWV+vz8vL2/IkCGKokiSpGna9OnTsSAPUfmy8N9iCQH7u0Lj2GKiarZv366qKo6V4BAiaPj06dONGjXaunUrnUyEaXHmzJmHDx+GTS9meQJKH5oO1Y0pL4+JrdLBlDadyMfnw7Zv6+inruskFWntWskrtHdQsjAD4Kf+/I/6cmj7oa9qGBA8UUMAY/TzjRs3NmrUCE4daOxmWdbly5exYYbsEoMHD1YUJT09fdGiRZIk5efnR1gkt9vdrFkzxpgkSc2aNRs1atSWLVtu376NVgsdZxjGhAkTYNdSFGXSpElQkbz+ouzqv59T1pEEbJ0wWB589uxZWloaXc46ZcoUcq3BlwWFDZYH/X5/cXHx0qVLs7Oz3W43Dfl5NGwcGSwPrl279tVXX3327Bk0EaWG+URiYiImc+QGeOrUqdnZ2SCPSlKOpMh1F4ecGxLJVc4TKDuUMo9tuHDdSY6UfT4fEUNooLZyp3k5n6DgCR4NEa4RAqZp0giUlogty8K2HBrVnj17tkOHDjiOd/HixZSUlCdPnkSSMXo1JgowKGmaBoeDTZo0mTZt2oEDBwoLC9PT06FGHQ7HuHHjaPCFjbnUwZAj3+cjkaH+40BC5IsD0l6v99NPP8WsgjE2adIknCrnywKszpw5M378+ISEBFVVr127Bv99RBV8fL5cMHHAey5VKJ2dxBwuWB4ESWBHwIwZMw4ePIi195jlCXJDQsfv0RjC4YDd0qBhPk64MI9hHYUNw8DWBhoS1WJGKFeFCdIdwNR9bHOsCr+q4UMxn6ghgDH6OdQELoNDO8ZAlVZB0cRPnz7dokWLoqIir9c7btw4RVEePXpEk1kouApL6PF4/H7/zZs36RbrhIQEzC1weygdo8PDsWPHQgAaEmJNuMLEY/whr5uA8NixY3FahTHWr18/UAV0tNfrPXjwYLdu3YhL+vbtiwJS96YOH1pw8ARUEpGKTfvb5Jk8efKePXtovliJxgnNrt6eoET379/HBbcYarhcLkx216xZg7YHiEgq+ASDw5ILFy4AB7zFpMo0zd9//z0hIeHatWulpaVkCAXNkIdHShABimZ7zv8kix/mhTRptixr8eLFTqeztLQUMqOdezweauHU9fx+P92QiF5ZWlqKCsKkH7va8OHcuXMdDgfa0rFjx1wu18mTJ9F9EJmqOCMjgzFWVFRE3u/5FuX3+/mffKEiDwueiByreIqJLkTrE6Qs0JT5jjFx4kRcIZeTk9OiRYupU6eiD8AwEq7MaPqBQKB79+6O53/dunUbMWJEamoq/FvQcTBFUcaMGUPzGAhWVlZGbBQui5h9zutl6t69evXCGsx7772Hbnn//v0lS5Y0btwYLtPJPLV7926gB46hLQAVlhf6lD8EA7bgZeDDfr9/4cKFP/7rR8ww6FWFib/AhzxP7Nq1ixSfZVn79+9PSEjo378/UKJd3ZA2WB788V8/Kopy4cIFfqJMb8+fPy9J0okTJ8iiRbMuwzBoZxrqKKpD9TZti4rz+XxfffVVcnKyx+NBKUzTpGRBKvx4i8ieWISUO1EIWG3VqlWMMZieLly4wBg7e/YszxOgkLKysm+++UZRFHQxLJLxBitsLbEJH23VC56IFrG4iY+Giw5JK108T1CzRpPFyieupoikkMXFxbqub968mTEmy3LXrl3Rpc+ePbt8+fL33nsvKSlp5MiRX375JQbF0FnUaXEQLJKMYi0OKV+anOEKDVxWsXLlyosXLw4fPhwzKlyhikmVoihNmzalkS8xBAVCS0pqxRbgZeDDlmUVFBRQzdKr0JRf7BOeJ7Zs2QJhQAzB8uC8efNcLtfNmzdpQgxLKRoq1jbI+EYFQXWcP39eluXc3Fw64Q86IRsRxt3Qm/CGAr1Mw3OARsnyAewUIDGoAUBlEx9QLwunnYkCofdxVSLyhXiQGQ1D1/WTJ0/SsSceK/RrGPF0XaemRb0Y6yg0B+LLElVY8ERUcMVNZLQYNGuaMqMhopXjFbadoFGiyaKE0PjhWjl1PM/zP5yvliQpNzeXLMiWZT179ozyQsfAT/R5PIkbQDlBSfmiCNia0qlTJxhPsLYPYsAc4h//+EebNm0QxnYvJIZBn820wuXz3yDRAx+uxO5EqgpTRhLVluwL/8nzRGZmJporriIPlgenT5/OGIM3ARpKb9iwgTF28uTJQ4cOqap67NgxjD/u3r07d+5cgD9ixIgNGzY4HI5z584BirKysjlz5iQlJUmSNGLEiJ07d6ampp46dQquBzwez4IFCzD3/fDDDw8cOIBeUGHjvHPnzqRJk5KTkyVJ6tOnz7///W+09iVLljDGMJzftGmToih3795NT093OBywPt27d2/69Om4NGzQoEHHjh2zLMvr9X7zzTeMMVQxmGb27Nkulwt6f/ny5fDrtXz5cjqd2qZNG0hIkw+/379ixQqn04lJjN/vnzt3rqIosiwripKdnc3362rXu+CJakMX0x+SgkAgVLOEPqFPbAVLT09fvXo1v74NzYglELfbPXLkSCjBCRMmoIPRuIbSDBew5RV3P/1+v8/n83g8MC7RQULwRP/+/eFc9tVXX4Uh/vjx4+i3xMH4iWVtAMtjRTzBP6xGOAaB9fv9f/31l6Io27ZtI1fz5C99zZo1kPnYsWOMsWnTpkmShHOFOTk5siyfPXtW13WPx9OrV6/Ro0c/evTIsqxDhw6hKZ49exafDxo0aN68eUB7//79eHvmzBmY8nr37j19+nRUAVwVfPfdd+TFgEZRpmkWFhY2adJk0aJFIOysrCxJko4ePRoIBJYtW0Z3vWzZsoUxNnv2bGTk8/mKiopatmw5ZcoU1Nru3bslSTpy5EiwPAiCwcQaEi5cuBCUo+v6/PnzGWPw3HXu3DnYnULr0TTNxYsXq6qKQdiQIUNmzpyJvB48ePDBBx/MmTMHU6XQbyN/IngicqziKWY1VAl9YivnDz/8gANlffr0yczMxLCFxq2WZZ07dw6m+aSkpPz8fEx1aZGWkq0wYMsr7n6CEX/66ScY3+C3SpKkSZMm/fHHH5g5HT16FFqjXbt2GIHSHIJXSV6vF5uSeaBA55WQOh+5knCsAVtWVmZZVn5+PmPM9fwPFAsA6VpDt9t9/fp1TdM6dux45swZ2NP27NnDGMP6xNatW10uF07wQNUuWLBAURR4ptm3b19SUtKzZ89Q/GB5EG9PnToVCAS+/vrr1q1bFxQUkDUft0A+ePCA9p5iLu71eidMmPDhhx/S7izLsnr06DFr1qxgeZAUus/n27JliyRJY8eOvXv3LpJNT0//+OOPMYEIlge9Xu9HH300bdo00zS/+uorsAK4B0visixje9uCBQtkWcbcokqekCSpqKjozp07iqLg1gD00D179qiqyp/sqV5LEDxRPdxi/atKVEaVr2xlu3//vsPhoANlqamp06ZNO3PmDK2/WZb11ltvYby8ceNG2ExtvjfCZWrLK+5+Yvo/ffp0VVUVRXn99dcXLFiQn58PzY7i9OvXD3eVL126lCxvZHkPBAIXL16cNWtWy5YtN23aZLMXhcMt2uexBiy88D548MDhcGzfvp3WxoLlwYsXL7777rtt2rS5e/euZVm5ubmMsU2bNoGSdV0/dOiQoihnzpzx+XwfffTRoEGD4CUMZTx79izcXvl8vrS0tF69elFd+Hw+cDYMpG+88cbEiRMxA8YSBdbAYZVCanjr9XoZY6tXr8ZD2McQ1nV9yZIliqKA+7/77jtFUX799VfsXi0pKWGMrVmzBgyHh1g4cbvdixYtwoyBuhLOMIEbvvrqK0mSsP26Sp6AZ5fHjx+rqjpixIjbt29jpguewzJMhcY0lKLKfwVPVAlRXEaIVo/w8fkCl5WVBQKBDh06wIYLGytswW+99dbixYvv3r2r6/rKlSsRoUePHrDD0Mo5n3JomM8rHsPoh506derevTus26QRgMC9e/ewY1hVVUwXvF4vTA0XLlxYvHjxG2+8wRjDaPrWrVu21dRQxKr3JAaxDZYH79y5wxjbvHkz7bYAfZ4/f97lcmF9+7fffpMkCeMSzBj27dvHGDt//rxpmq+99tr8+fMJc9M07927pyjKuXPn/H5/+/btFy5ciIoAQ586dUrTtHPnzkGlqs//JEmSZZl25e7fv5/gwld3796VZRm7jZEaJAE3YCEBMyRMvmlhvKCgQJKkvXv3YvnBtll23rx5YIIK5xNfffVV5PMJxlhxcbFpmjk5OWhOmqZ99dVXhw4dAgnVhCQsyxI8QU1CBMIiAAssjCeKojsV07YAACAASURBVGDsDBO8pml9+vT5+uuvccjO6XReu3YNfYls65WYTcJmGScvMGq7c+cO5LXZKzwez7fffgtkBg4cCGVx9erVlStXdujQAXQrSRJIonv37kikekxQ+VcxCCfxBLxPgiqwdbW4uFiSpAULFui6funSJUmSzp07B01nmubevXsZY8ePHy8oKEhKSpo3bx7pWcMw7t69q6oq1ieaN2+ekZFBq2WWZZ09exbf3rp1S9O0FStWuJ//AR8csAAH0CZawzBu3LjhcDhwepH2ONGeIiwqQE1v375dlmXMMoPlwRs3bkiSBB9cdD4OijsQCGB0hQ1OIKQZM2ZghmEYBqxSMBlduHCBQKCKhsyGYSxatMjhcNBGKV3XN27cuHXrVqzoDBw4EP5F6MNqcIbgiRjsQTEn0qlTp6DLmjRpcvr06YyMjCZNmuAJlKDL5QJ/MMbmzJmDzVQvA0+gqtDxyKZEgWB5EHdra5o2e/bsVatWtWnTBhtmwLLJyclg34SEhNWrV0dorOM7fIThmGtSlhWOJ6DrGWPLly8PBALnz5/XNA2LE2hRR44cYYydOnUqWB7s0aPHgAEDcBYHo3u4M7l48WKwPNi7d+9hw4YBIhhzDhw4oKrquXPnAoEAY2zixIk0PwCd4ACpZVmlpaUALVgeLCgoUFX1hx9+gADY2921a9c5c+aUlZUtXbpUVVWs223evFnTNNqS++TJE8ZYZmYmZjzgs379+s2YMcOyrIULF8qyXFxcTFuSunXrJkkSIi9YsADL47quX7hwQVEUTKGoxiEeeIKx/2pyWvdCofx+/9KlSzVNw31W9KHgiRjsDg1BJMMwWrduzRhLTEw8ceIE+smBAwf69u2Lh1B2sMI3b948Ly8PXYKogm+jfDje0UEBaWMMzO4oVCAQwJ5ObMoERJqmYalW07T/83/+T8+ePXHPoKqq9+/fpyEzD1GthGMQ5wp5Akz5479+VFUVV3/n5uaqqpqbm4u5WrA8uHfvXk3TLl++HAgE1q5dK8syVjKwcjt//nyXy3Xx4kW3271q1arXX38de8lAA4MHD4Zf/eLi4hkzZrRt29bj8ZB6xW4lTIjhWgYWpEAgMHTo0I8++ggVbRjG7du3HQ7Hvn37TNNcuHChJEklJSWmaSIF7OiFsh46dOioUaMQDpYHb926lZqaumXLFtM0sS8WN59blnX37t1GjRppmgbKIZ7w+/0XL16UZRmHB6k9oE7BE5IkFRQUHD16VJblK1euAArDMMCpt2/fpq8QiLY9iPlEtIi9dPExuoE7P1mWJ02aRJudDMPIz89fvXp1t27dcHUPtGFOTg62eDZ4nkBrgKWCYEEA5wBwwytMxljqT0xM/PLLLw8dOqTr+t69e2HE69q1K01KbF26Vn7GYKutkCcsyzpx4sSAAQOGDx8Oma9evcoYw05W2KZ+/NePeGKaZlFR0cCBAydPnlxcXBwIBPbs2QNHMqdOnfL7/YWFhW+++Sb2pFqWtWLFCkyCz507Z1nWkydPWrVqNWnSJFTfL7/80qFDh7Vr12KXGpo9cvT5fFeuXElKSsI2jaKiohkzZnz44Ye0MQluMwzDyMrKUlUVW/7ATBcuXNA07cd//WhZVllZ2axZs957773S0lKPx5ObmytJ0g8//BAsDxYVFYEY4ALEsiziCdM0//jjD8bYkSNH+MYAfGg+gQnQgAEDxo0bh7ZUVlY2Y8aMIUOGgKVCv428VQieiByrBh5z4MCBM2fO/M9//oNyYoUWfcayrJ9//hmmktdee83W7GjtMT09/dVXX01JSenRowfNJ2rSOuMacbfb/corrwA0zLS++OKLPXv2wCoFJTJo0CBcWv7NN99AMdHOH7JFICaqw7bSE9f4BAKBW7du4ZAm1pOBldPpXLt2LW35P378uKIop0+fRjMzDGP37t2app08eRJLBc+ePZs6dSp8z2RkZBw5ciQxMfHkyZMA5/bt29OmTVNV1eFwzJo1C8u8Fy5cwFrRnTt3cNZBkqSPP/4YxxrQYqkXkJXm999/HzFiBA7Yz5s3r6ioCK/mzp3buHFjONP8/vvvExMTobJRoZZl/f7778OHD3c4HAkJCfPmzcOlLEg/OzsbU8zExMRdu3YtWbJEVVW0gYULF2KjOSo9LS1NUZS33noLZ03o2A025qqqmpeXp+v6n3/+id13WP1av37906dPqQjVbjCCJ6oNXYP6UNf1Xbt2YbTVs2fPgwcPejwer9dLxz4Nw0CDdjgcN27c4LU/5uaWZWElLTMzc9y4cbdv38Zkgo/ZoCCrqjC7du3SNC01NfWTTz7Jyckh/z8YvcLBRpMmTbAb6vHjx0TJtPkHPtjB3ORftmHgCTVNbYZf/yd80PYCgQAik9oFdDSOoU2luq5jex686cGxB1gZJ7eD5UHsnrp//z7xEJmSaPssjzAftlU4L0BBQQGtpeMOLrKSIX26jh65oIqppIZhwFSFMQEYES6fKYzcEYGWxPEzWB4EbYAPDMMgxNxuNxpeDalC8ISt9l/en263OzU1VZIk2NPfeOONtWvX5uXlQUNZlvXJJ5/Ax9/y5ctt/Yc8caIbYJPGy8wTPp9v27Zt33//PRyCki6jnTCWZR09ehSDvnfffddGAziDduDAgXfffbd///5wm9jA8MTiM/SXzSkk+WIi3HBCDZ6d0EVJV8L4g4emadL6s2VZX3/9datWreA9CegtWLCgd+/exFKYGeNfRAgFmZo6qAXKXdd1rCJQUhSgqkR8okB8SEwA5iBnrvDWB++NGG8hPq00kO9Onp/AIoCLpin4ELYvmobWUK8JnqghgA3qc/jVgTFdVVVwxvDhw69cuWJZFlz+SZLUq1cv6jx0lhW6jEzz6L2gDYrcoMCqtDDkeQ1lp0El/9HHH38M3l21ahWdhDIMIy8vb8WKFf/4xz+w2AOX7NThCcwajhB5Seo/TJMDXuvhIcoFtcg/oQE7rlGh3aV4DgCJV+jcnCzLW7ZsAT3//PPPjRo1yszMRBY+n4+UL8ljs6mGos37H4SCxvidqI6m4IQqOS6kUT/mEzQCo9ZCpIJvSSpcHkw2SZAZrYcRFDyT0beAooatRfAE1ebLHjBN8+rVq9Bc2JPDGMPGTThOWLx4cVJSkqZpTqcTvhDQ7vmBWGg4tKe9DEDzpQ4NQ0FgiRt3fsC6cv78+bS0NHIxC18gBw4cgNeH0KFuPCLJoxFaIv4tH+ZLSs9tjY2eE/cEAoGjR49+9s/PYFD98MMP9+/fD41JDATVHLkkfC6Vh3nx+Jj8cz4cLg7/HGEykREsoXH4J6Hx6cMIA4InIgSq4UfDiKxLly6MsUaNGvXp0+f999/HUR3QBvQXrFJYjyXX5Xxzt4X59trwQfy7hHyp+TDGgD6fb/fu3Zgu9O/fv7i4eP/+/b169aKD2Tgh7HA4NE0rLCzEOV4Ay6f2d27x9D8vf2iJ+Ld8mC8h/5xvbLbn+ISfMcBzJc1XaDjPf1iL4Upk419RmM+aHtpm5IgTqvf5b8OFeQyjDQueiBaxBhsfo7Bt27ZBf7377ruBQODSpUvTp09PTk7WNI1cPGma9vnnn9NMlm/ToWG+1TZY7EIKxpeaD8N2bFnW559/julC69at4bqDPAmqqtqiRQvsM3799dcpbWDLp0av4ijAyx9aIv4tH+YLyD/n2xv/nBonbDLYpY1EMAmmNQmwhe3bWvkZTjb+OR/mMw33nI8TDhM+Dh/m40cbFjwRLWINOX4gEMjLy0tISICX7GvXrqGdFRYWrlu37s0334QukyQpNTWVVB7fpkPDtdVS4wt3vtR8GAuPRUVFqqpi/xg2gyKckJAwcuTIP//8c8eOHWDr0aNH23C2pRZfsPDWf2oqfInChfli8nEokQrH3Rj6YDZG0wgY8TDPQFLhvuUz4sORxKd94ZDQ9jkvNoXDxaHntnzDYULxbQE+frRhwRPRItbw448bNw6mc7pUB3s5/H7/qVOnPv/884SEBFVVcXSI7/m2dsn/bPioRVZCIEkXIQBJRVGaN2++evVq+Li2LGvMmDGg5HXr1sGSjjVMUjqR5RZzsdAkSDNScfimUmGYLwnthsLSAt3jRgu2mCLYtKotWWSNZCMXA5xNezewPQGJYAMuNv4VFxdH2C94qWiig/Ph/CvKl3/IY8I/DxeGzRNbqvhvIwkLnogEpQYeBx0M1lvLsk6ePIn9mikpKXTzO/bzIc7du3dnz56dk5OTn58f2qYrbKYNHMGIiwelP2TIEPg7weaxvXv3wnsEBqHB8uCbb76JKsjNzYX6wM0HpNEizjBGI6LZbN68WVXVChuM7SFfDBwrOXnyJG7JpvkWAoALM4nKqYLfhGbLrsKfqDs+O1LfcPKxbds2p9N57949SFthIpU8tCwLrqKwl5pi8vnSQwQIFtvzCn/CZyV9ElVA8ERUcDXMyHDbRx3ANE2YmBhj27dvR5nxFkMSDIrRISvvitReGyZw0ZcqWB4sKSlxOBxOp3PcuHGXLl3idzcivfz8fCwFJScnw9kDwCeS4I3v0YsQK1+Yprlp0yaHw0GNpJIALzRuGP3999/hvQNO99AO0SbJZwyxBaCz/UvuGnkbVCUy8Pqa5xjajLtx40aHw4ERVYT9wpbd0qVL6QpVesXnSw8RIFhszyv8icg+n4/OcNDnVQYET1QJ0csSwev1PnjwAE7QVq9ejb033bp1o4U+WvojBzimaWIaW2G75B++LCBWVc5gefDSpUvLli0rLCykk2JQBPBC4fF4jhw5gvuN33//fegy7K9vSDyB+URmZqbT6eTbSbiwDVe/33/58mXGGC6pBoBgXJAEmZ5s3EA/kREsV+DdcFnTc7IyYf4NkeCyG0SOy+xwEUU17E6WZc2bN69p06a2+QSfLwlDAYhBPysJGIYRehmlDdhwPwVPhEOm4T+nlT0an/bt21eW5TfeeKNr164ul8vpdCqK8ueffyIC9bFqjJUaPprRl5Dv0jy2X3/9NRaxcRszGaOIsKm+os8zVr6AZt++fTtjbN++fcOGDcP+rhUrVsDxKsa8d+7cmTFjBmZXkiTNmjXrxIkTUMFXrlxxOp2XL19GzNu3b48ePRrnJBhjkydPPn36NKYXBw8edDqdBw8eHDduHHIZM2YMjo6CVMrKytavXw9DH2MsOzubiMftdi9evBg+uPr06ZOdnU2zEMMwTp06NXr0aFTWzJkzMzIy6HZr8sLi9/v37NkDF1Wgk0OHDjkcjqlTp1JSvXv3HjRokGVZuHMiOzu7f//+EHXSpEmYvmNRpKysjOT54IMPdu/eTX1z+fLl7dq1O3To0JAhQzRNczgc48ePx9wLM57PP/9c0zS6KyWqpiB4Iiq4GlpkNEF0vHnz5uFOOnIVjk04c+fOxfFRXpfxOi6ScEMDrjbKw+PGYzt58mTcG9izZ0+qIHR1YujayP9FpsHzxFtvvXXw4EFd1wsKCgYPHtynTx8Me4uLizt16vT5558XFxcbhnHz5s0PP/zwtddec7vdhmHAPyAMdx6P5/XXXx87diwumbhz507fvn1btWqFhn348GGcGAUBFBYWfvHFF7i9BxCMGDFi6NCh8LCUm5uL+4tg8fvwww/HjRuHZbnDhw+rqrp+/Xp89eeffzLGJk2ahPPhK1euBGHgplJkDY6/ceMGY+zgwYNwUrBp0yZJkjp06IA6ffbsGWNs5cqVXq939erVDoejd+/ev/76K/wktmvXLiMjA2RQUlLSr1+/sWPHQp5jx44xxuDg1ufzwWY1ePBg+Ez866+/2rRpM3/+fHwbLA8OGTIkMTGRvKZHVf2CJ6KCq0FFxnAGjiJmzpwJr9c44YUWT/dJFBQU8IqMtBWv6SoPNyjgaqkwPGI8vOQ9hTE2ZcoUePspKSnh5xP8t7UkTr0mw/PE/v37aWR9+vRpxtjevXsty/r3v//NGDt8+DCMVJZlffvtt//zP/9TWloaCAR+++033FZkWdYvv/yiKMrhw4fhysmyrG3btsmyDBNQdnY2bthGCf1+/759+3DnnWmau3fvVhTlr7/+omWGFStWtG7dWtf1ZcuWtWnThi65Mwxj48aNiqJcvnwZJ2D69u3re/4H69OAAQMwn6A1J5qXtGjRYvr06fjZpUsXjAOuX79uWdaBAwckSbp8+bKu64sWLVJV9aeffkIKhmEsXbr0nXfewbRg+fLlrVu3hg8PGC0zMzNdLteNGzdw65HD4Th+/DgRw+LFizt06MCvRgBnRIiqvgVPRAVXg4qM5pKXl7dmzRpMuh0Ox8iRI69cubJq1aoePXrA57Msyz///HNpaSmvy3g9FUm4QQFXS4XhceOxtSwrLS0N/rVAFejqDZUnnj59SltdTdNs165deno6GicUK/7VdX3GjBlwu+31enGDKdQrDd5JQaenp2uaVlpaquv6wYMHNU3Lzc0l/Xjx4kVJkuB7fMKECX379uWrlLJ78803x48fT18ZhnH27FlFUY4fP/706VNwj2EY5Hlw69at4AkSG1VsWdbatWsxv8ENdzNnzmSMwYnI2rVrW7duDQEyMjJcLhecb6IsOPfqdruD5cHWrVuPHz8eozTER0F+++030zRXrVqFW7LpsizIg9UOiISzI3xhIwwLnogQqAYVDcMK7C9csmQJ+XQaMWIEXsHc4fF4cnJypk6dOnv27KKiIizfwcbaoOCIgcLwnAGnp/Pnz6dZ3fjx4+FPFNEwurR9QiopBkpTtQhQW1ifKCkpwTV2sOl/9NFHn/3zM6j+mzdvbt26tU+fPoACyw9er5fuCjxz5gxa7MOHD7ds2dK7d2/p+R8sqPDNR3dOQKxgefCPP/6QJAn2mddff33FihU8mMj6wYMHGDzhbgxsUcMdErt27bp+/brD4Thw4ADNdQzD2L9/vyRJ5ECeTxM2ops3b+IaVyzCr1692rKsHj16zJo1C77QsT5RWloKQHRdB08EAoGnT59idwOgcDqd8EivqiqmX3PnznU4HDDZwQ0teAJQw0UgiVR1Df3vGIIn/jceDfoXbRPE/hnTNOfPn48LXhhjn376aWlpKUZ2WDTDv7quY8REE1hBFbXeTKgD46YEGAMXLVpE1xxNnDgRdnlkzcfnw7UuWB0lyPMEdCJMRrqu9+7de8iQIX6//9dff1VVdezYsffu3cPxke+//17TNHitP3HiBGPs9OnTwfLgL7/84nQ658yZc/v2bWj5LVu2KIpSWFiIS+5UVT1+/DhemaZ56dIlWZZxq93bb789d+5cG4aBQODGjRuKoqxatYqaPQLw143ZDC4lBEQ+n494AlMQPs3S0lKHw7Fjxw7cFmxZVpcuXT755JOCggJFUXbu3IlNTRXyhKZpBQUFJA+gQ1+m+YFpmhkZGaqqwlstBNi+fbskSXDkTGWHVNFWq+CJaBGL+/hw5W9Z1pIlSxwOB8ZoQ4cOpekzsQhaJNbi4HAChRc8UeuNgNcp5IyorKxs8uTJkiShjiZPnoy6IL6HtYr/ttYFq6MEeZ64e/cuTvBAu7Vo0WLt2rW6ro8cObJz584YICP+hg0bHA4HGurJkycZYydPntR1/bN/foZrFklvrly5UpZlbDXOzs5OSEjA7AGTjzNnzjDGzp8/b1lWv379hg8fzmO4du3ajh07GobBGJsxYwbm1rTygaH648ePFUX5+uuvaV+TZVnr1q2TZZm2GPFpBsuDac//Zs6ciekLbvb+8V8/yrJ89epV4IwuScxkWRb2SpWUlHg8Hk3T0tPTUQTKBcRgGMaCBQskSeI3PuCybsCFeQ+JFG21Cp6IFrG4jE82VjQyn8+XlZVF09hBgwYVFhaidWLghi0c5M6e/OyTk/24RCGGhaYOTDWFSws8Hs+UKVPgtVeSpEmTJrndbjpHFr88QQNextiBAwdIu50+fTohIeHChQuWZfXs2fONN96AIkZ8OE/Ebp/Lly9LknTq1Cmfz9ezZ88uXbqARAHO4MGDGWNIdt++fYyxs2fP0kWBZ86c0TQNTzZs2NC6dWse/w8++GDChAmWZY0bN65169YgKiSFJfH//Oc/pmn26dPngw8+4MdP/fv3B0+gofFpBsuDO3bsaNeuXcuWLY8dO2ZZ1q+//soYa9u2be/evVFGXdcrnE8wxkpKSnRdnzBhwltvvUV637IsmNTu3LkTLA8uXryYMYZ1dfTc77//XlXVp0+f0hSERIq2KwieiBax+IuPfkUKqKSkZPv27Zqm4dLg3r17FxYWwtxBw1W0M35xlcLU1CjB+EMkriT2er2TJ09mjMFCOHHiRFjAaVYXpzUSLA9mZmYyxlq2bAkTUEFBQc+ePdPT0+G5b+vWrYmJid9//71pmnl5eVj71TTt6dOnlmUdP35ckiR8uHXrVofDsW/fPtwDOHnyZFVVXS7XkydPLMvav3+/qqq///47qj1YHjx+/DhjDJYon8/Xr1+/9PR0vN24caOqqtevXzcM48mTJ82bN582bRqWgg8cONCqVavVq1fjdN6FCxcYY9988w02Ss2ZMwczPxBV6Pgd+2gZY0+ePNF1/f79+3Dh9e233+KcRyAQWLhwIVgBaQbLg1hjgMOo/Pz81q1bT5kyBVRx8ODBli1b4i5xy7IWLFjAGEOvxJgPvutRLp/P99k/P9M07cGDB7TaH3k/EDwROVZxGZNsFCT9jh07kpOTled/77333sOHD2mcheYFBYQw0QMF4lQrUfHjKwDCtiwLBihN0yRJmjhxYllZGVVW/NbIli1bVFXdtWvXZ//8TJIkTdM2b96M254xBF65cmVKSoqqqi1btty2bdutW7dkWdY07caNG9euXYPfDnhIXL9+PRZ433jjjZ07d169ehXGumvXrv3000+yLF++fNkwDBxuyM3NTU5OPn36NOYKhYWFkyZNwtL31KlTr1y5Qs4tHj16NHHiRKfTqarq4MGD9+3bB7RBBsePH8fZPUmSVq9efeTIEYfDAXKy7R3HRLxfv34DBw6kRfsePXqoqnry5ElaVFiwYAHNSKDNN23alJqaWlhYiDHckydPJk6cCEL69NNPDx48CAuBruuzZs1q0qQJeZeihZmCggLw0MiRIyVJoghRdQTBE1HBFZeRaeD/7NmzPXv20BbYzp075+fno92TmRWtEzqoQucH8auV4rHyyGLg9XonTpyIC6NkWV64cOH9+/dp/keVEi9lNAwD2+0wkYWPJhSHTKPUFLHXy+v1UkuGtQcTZXxFKxNAjIY++AlYEIbSzM/Px0O6XhvZ4RJTvCKSRu/AT5IKmIPVaBSPLLCJnCoFyyRIE/YrxEfWSBZxTNPEbayIjMVnMjTR2jXe0m3hZIfEUUE8N02T9yBCV6uS5YCyiCQgeCISlGI6DjXHyqV89uwZDi7BG0evXr2ePXtG17ijffM9AWGaRlCAsuM7beVZi7fVRgCqAbrJ5/NhLOlwOBhjGRkZ8DIbjzVCqpN2kcLSgpF1WVlZsDwINUf3UdPMmAxuaLQYuaO5Ame0TKyN0+egE/AH8MQwiK8aXOkIoqJjd5QdERJGUbSoADMU0gSBQTBbvdBXiIl1JlrewEQnEAhg5kEUiPVqfItykXjokkSQWGlHTJSdMKEZDBWBL3UkYcETkaAUo3H4hmgLYyRCTcqyrN9++w0za1mW33rrrYcPH9K2V5vGtyVV4c8YRaTBiUX6FFUZLA/itDauF5wyZQpdPUsDUqqv2AcDmo4EjjDAl4v/JNxzimOzBdHzCAN8+nw4ks/5+BGGbb0y9Cs+X/4t/5wP83GiDQueiBaxGIqPRlDhSB+NjIZCv/76KxauGWOdO3fGSiANcCiAsvFtK1w4hlBo0KJg7AnH1zBTFBYWkmMPWZZnzJhBfmdtlRUvwNjErvInXy4+crjnFCe+eIIvToVhKpeNUfjnfLjCRCJ8KHgiQqBiMRoaQYU8gQksZhU//fRTcnJyYmIiY6xFixaPHj0qKytD24KvGFvZ+LYVLmz7RPysIwR4nkAYlpP09HTyb4q9OqFj8zoSqdaTDdfGwj3nBeDjhHvOx6lJmE+fD0eSJh+/tsJ8vnya/HM+zMeJNix4IlrEYig+GkGFPAEpTdM8e/YsnI7Jsty2bVv4O8Nb2rpH0w76im9eFYZjCIUGLQrZnWjpCMuwfr9/0qRJ2PzDGEtPT6fapPqKF2BI4AgDfLn4T8I95+PUJMynz4cjSZOPX1thPl8+Tf45H+bjRBsWPBEtYrEVn28HWAHDGhouYrxy5UpKSgr2C7Zs2fLWrVt8fCzEwfDNP48k/KJQoCk2bWjJy8vbt2/fxIkTBwwY0Lp16yZNmuBcyCuvvNKyZctBgwbNnDnz4MGDjx8/hswwPtDKja2wL6pc4fIl8Wi6QJfkuN3usWPHwrGHJEmTJ0/GnVFwf1RDPw3h5BHPX04EBE/Ed72THsGiNBXGMIw//vgjOTlZkqSEhIRXX3315s2bNt1BujLCex/5vCijeg7QTpInT56sX7/+nXfewTZ5nC1XFAV7gUCN8G+IW26wMLNx48bHjx/TPhm4jI6FcoWD0SYbuQIFx/v9fqIKxticOXPInYOtTsOlL54LBCJBIDqeQKuNJF3LstBXGftvFviQhroRpiCiVYkAr0cIXq/Xe/78eTpM99prr/3xxx8448rHj0ee0HX93r17c+fOTU5OxvUY8t9/5IYEp5BwnYbL5QKR4Kcsy82aNRs7duzjx49h7oc9h2CpEvB6jkCC8eMAmgIGAgG32z1t2jSaVSxYsOD+/fumaeK0AX1ez2KL7BoYArHIE2RbaGBY10Vx+C0cSN/r9T569CglJQUj62bNml26dIlWIEhxAGQan/LPIwnXRVkiSXPFihWvvvoqeVGVJCkpKen9999fvnx5dnb2zZs3ccRJ1/WioqJ79+7t3bt36dKlvXr1gndoYguXy7Vq1arCwkIewBhseLa6IOsTVahlWcXFHUm9PAAAIABJREFUxZhVoHQLFiyg8730eSTYijgCgXAIVM0T1NQqDIRLt8L5RIT9EONi28Q5wm8rkadBvoLioDNBlmXduHGjWbNmkiSpqvraa6+dP3/eVnGAlz+WaRjG48ePyZG9LX6FP+sHTBxPRV537tzp0qULLEuyLCuK0r59+40bN8LLNOasUPq8bJgu+Hy+goKCDRs2dOzYEfuDsVnonXfeuXr1Kp1fpYlvaJH5NOshjBPIlmWdPXt21KhRuGSwX79+OTk5fF1TtLKysi+//BInKDVNo7uXqdfwJaoH+UUWDQyBeuWJCLGz7fGgJh7h5y9hNBgiPB7Pw4cPW7RogXutmzdvfvr0adt4mfZZEkput/vy5ctTp05VFAUXbBHglQTo87oLwK8D0t+zZ09SUhJZV955552cnBxSgvBbAGnDyQMvQJZlHTx4sGvXrjCKqqqampqanZ2NeytjhydwbjY3N1dV1Q0bNmB+sGLFCkVR9u3bR6dtUVjcS1FWVjZ69GhyypKRkYFjMZh58FUZDiLxXCAQDoHoeIKmvdTswqXLzyciicynI3iCRyOSsN/vx63rzZs3hxPKFi1awOF+qP0dpIJZxbFjx3ArFrQwhqtUX5UEIpGqJnGQNahi48aNjRs3hmZ3OBxr1qwh/5pwvRDqgIHP2uYVBy7TV6xYkZqaSk5YN2zYUAlJECHxydZdGPrd4/GMHDnyk08+AUm43W6v1ztkyJA2bdqQuyFeBsMwysrKwPdwA0XnKuC2gWqT/0qEBQKRIFB/PBGJNIhDY15q2QhEnsLLExNKUNf1x48ft2jRAiTRuHHjn376iVzH8DCCHvAvoRQIBHbt2pWcnJydnW1b/+S/5cP0bR0FwASmaf7www+0QN2qVaurV6+C+egMOUkVThK438F9YbQCbFnWtWvX2rVrhzvAVVXdvHlzJVQRLvHafY6ygBiePHkiyzKuxjRNEzckf/fdd4qi/PHHH8gXdicUCq5PMauAXS4hIWHq1KnwkkQo1TPn1S4+IrUXhUDVPEGSkSmcnlQS0HUdOsvlctFKA7/4Fvqtz+fjPWrRV9TEQz8RT6DxHzx40LZtW4wiHQ7H4cOHsfxgm0zwNUhUAQeWuPAE84kYQdXr9R44cEBRFE3TZFnu2bPno0ePaiIbNSQKPHv27O2333Y4HDDXHDlyBNZ/jFQoWp3qVj4XhKH3z507l5SUtHXrVih69J1ly5a5XK7r16+D0rCvFz2F+k5paenYsWNVVU1ISHC5XJMnTwanUin4HGuCp/j25UEgUp4gFW879lkJUlBb2Bdb5b4aqDC/34/xLLqKTc1VktfL+Qo9v6ioqHXr1oyxhIQEWmMAgDBQ2PQC3UlHJ7Z0XcfVvtnZ2TGCpNfr/fPPP7G1KTU1tWPHjs+ePauhbDwOaFqWZT179qxHjx5Y+UhOTj579ixQtc2raph1JZ/zUqEXwFU1GAtvMcPweDz9+/fv3LkzOiMuGURtkv0N5yt1XR81ahRmFS6Xa/bs2UgBrYLPsRLBxCuBACEQKU9g2k4NlAYvaNmh/5qmmZiYiINOPMeExsQTLNwVFRVhoCR4gmqokgCu3Grbti02RBJJYPxYITfzdUH+43Rd37VrV2Ji4oEDByhCJfnWz6vOnTvD4tSiRQvck4GpT7Vz5/UjzVYty8rLy8NszOFw9O3bF4RkW/+vdqZVfshLhb4AokIXIFL3+XyTJk1SFCU7OxufYDIBssfoDXcMBAIBXLODq40YY6qqrlixAifS+exohlGlkCLCS45ARDyBtgWkcL04naELF8DhJmzhV1UVZ6Hg1zrcJ4wxl8v17NkzsT4RSaPEWaqOHTuqqipJksvl2r17N6l+morZ9B058Qcf0xpGTk6Oqqo7duyIJOt6iLNy5UpsBnU4HLgtGSOVamRNrZdXkXD3T6s1586dS01NxcntdevW4WYYPn418o3wEz4X8ATaP00RguXBX3/9tUWLFqqqrlmzBiMq0APiIIxvif+C5cGioqKRI0fC/MsYW7FiBWYVfI7xRRUkeYTYxlq0+JU/Ip6ATsEcwjRN7M2Hegqn9GHwxTg3XBz+OXiFMQZHp2j0sTO2jakGB1jKysow4maMJSUl7dy5k98nxgsciS44ePAgY2zv3r2o6xfVoKG4i4qKXnnlFTSP9evXkzCRFMRWcP5b4kg8JCWLtZxNmzbhVtGkpKQHDx4gHfqcT7YuwpQRCYn5RElJydixYzVN++yfn505cwZZY/bA1xSZ0fiHpmkWFRUNHz4cZwwdDsecOXNQWCJIPt+6KFfN0+QlpHC1Bw01lyfaFEhmPhBH8qO8kfIEWi3s3U6nU3r+53Q6/3aa8N//eb0fLU/AQNy0aVNkVKG/62hrqKHGx1Vf7733Hsx6SUlJmzZtwrwB6GFAGlXxt27dmpqaevjw4Xqzy4eKR20MnlBlWe7WrVthYaGtg4V+GO4JPsSYgxZj0EXpId1z6ff7u3fvjnY7a9YscBJlHS6L2npOGeFoIYYCjx49at68uaIoO3bswJkJXF4WOn7ia5yScrvdgUCgqKhoxIgRjDHsCABVEONSZHpSWyWqrXR4CVFrpGRpL0Zt5VUX6cS7/MAkUp4AQ6AnU3/G5XzU5SpEOcL2BzUHPwq05ZECFab80j7Udb1v377wFq6q6tq1a2kXKaqmGv0H84nQ8xP1DLJpmvn5+bgqgzH2888/2+xmUcmDLsq3TzL300Meq0OHDmG4k5SUlJeXx4/No8q3GpF5bYLadLvdEyZMYIxdu3aNDgmG6038c0oKYoAq0tLSQBUOhwPnKvx+P5wG2uJXQ/g6/YTEo5mW4Ik6BbzCxCPiCdQQKoyMp/wQpsKk8RD9EN/iCV/xFKYrv9GB0Z/5PlxJFi/bq08++YSGh99++y0onN8nVg3c9u7dy6+RUr3UJ7YwBGVlZamqmpKSggNlke+vCxUVpQilBP4JxulQzZZldenSBdPijRs3viieQF+4cuUKY2z69Ok4GIGNTGDNCktKD6nuMMzC58XFxaAKVVU1TcvIyEB8iswzDSX1AgMkDy8hVRxRxQuUsPKs411+W+ki4gm+w/DVRljYEq3GTz5ZXC1AS7LVSK2hfmIYRt++fcm+t2rVKh43hKmyogJh165dSUlJu3btsiUYVSI1j6zreteuXTGo37lzJ5bZeZGizQIEAOKExuR1DcY6fPpbtmyBNa9bt27IqxqkG62QVGVUg4FAYN++fVjJJ9MuNpqrqpqbm2vLIrQnIim+sKWlpePHj3c4HAnP/6ZPn47xHzbghtqybFnUz09aYzMMY9u2bZIkOZ//YWAET8Dz5s27f/8+79alfmSLJJd4lz9cGWOUJ0AVEU5ZwpWtgT33+/1Dhw4lkli+fLlNv/D6LlRxVIlGcXFxaIJVflWLEUzTzMvLkyRJ0zRFUXgHf1Q0SBhVphhW5+XlORyO7du367q+adMmVVULCgqQDiVummZBQQEcmUiSlJ+fX2/jVl4GUtk2uyumVnSjLQ9CaHUjQZ4nvF5vSUkJrVUkJydnZGTQae0Y6WsQA7u2fvjhh9TU1EePHgEQ6IQTJ060adOmVatWZIHgcXjh4XiXPxyAscgTGObgGFE4uV+2536/f9SoUU6nE3tyFi5cyBsDeS2DcDXwwQ0HtqSqkU61PzFN8+eff8bm6e7du2MqEGp3CtWJleQI10aBQMDj8SiKsmfPHp/Pt23bNsYYTTX4IluW1atXL+y+w6nDFzKfcLvd2MNKB5VglKOSVgkCCkU8gfg4YDFu3DiArKrq6tWrb9++Tcm+8ACvZ7dt26ZpWmlpKdZRvF4v3m7YsIExtm/fvhcubagA8S5/aInwJCZ4gu+ofPsG6OFEf6mewxMDdoXBuFy7POH1eqEQa7JuXMMa0XV99uzZmDAtW7YM6y62KQ5OD0SeEQoFCmSMbd682e1279ixgzEWekgCR1KWL18O+8aUKVOo20eeY/Vi8l2ADEG2h4ACw+oq2YvvR4ZhgC8hW0FBASamsO+tXr0aF6ZWT/La/Yq2dRmGkZWVJcsy3PnQ6XTDMHJycpxOZ1ZWVu1mXSupxbv84UCIlCfCfU+jfnRvjFPIohoaILMJBjiYUfL9wRYOl29DfU4bcrADEgb6MWPGALeEhISJEyfaym5DjIaQZLvjx6SxE+blpCIMGDAAlmi4WqqQFYLlwTFjxixZsmTlypWAZeTIkffu3TNN0+Px0EgTDWzUqFFDhw41DMPn8zHGMjMzYfhmjIU73X3o0CGHwyHL8oABA6octtvqIjZ/0joEXTpSWlqalpYmSZLD4VAUZdasWRVCXf/FIbUAF5CMMTK+YS9fsDz43XffSZJ09OjR+hevyhxrKD8WZWNwfFxTnsCU0DAMuoUYc3YlzB/O6MHpE8ZElVNFlRXTwCLQOhjKBW8NOEkny3J6ejrtfmlgBUdxmjdvjssz/vzzTzyxaWrw6BdffCHL8sKFC2GVGjx4cJ8+fWBcqiFP6Lp+7do1tOG2bdtSE+VZLe7CGMxh3BAIBKCGCgoKhg0bBs/qkiS1aNHC4XC89dZbmZmZL7Zp0WpEZmamy+UqLCzkt7Tk5uY2b948LS0NxXmxolaYew3lr3KmWGGmdf2wpjwBUHCAFr0LBnSaN9gCiNO4cePi4mLqhDbbAo0ubTqirrGIhfSJdy3L2rVrV/PmzWlZddKkSWVlZeQIFjODymXmkYzBMBQuTXEsy2rWrBmmpLQ3yVZAr9eL9fz+/ftD3xmGsWfPHk3TfD5faWmpqqqwXKPxRDufwGkDbHlq1qwZfyu1TZI4+hk6n0CPe/bs2ZAhQ1BYdEzsL/rxXz++wNKRnt21a5csyy6XC+fJyb28y+W6ePGibcHmBQpsy7rm8seg3qspTxD70Ta1SCZN5O+PMA2nxWx10OB/Enfu3r0bVyPAESy89CQkJMB0jtkazHo4G0//2og5Ln5CeBJVlmUYhehEJ1/vgUAgLS1t/PjxmHsZhvHjv36UJKmwsNDr9YabT+BVVlZWlXYnt9utKAroCk70EhISQi2ocfSEnCMggEIxxhITE9GQyAcUNHLHjh15wOszTO3fsqzMzMzk5GToClqsevr06cCBAxMTE588eRKD+rQm8m/ZsuXw4cP8SlJ9Il95XjXlCV6/Y3jIP6kw79BotrXTKlOoMNmG8TBYHsSNNImJiTY/Wlh1hGtFGv2FMe/F5WMcAcP6RCW7HgOBwOjRo+fPn48Rpd/v37t3ryRJ9+7dwy2K8FIFg/uXX345bNgwn8/ndrtVVd2yZYthGFu2bKlkfQJXp0ClwnyPuiAmjrsAtj/QeFyWZRxKgIkPpzSIpHFK40X1Jpoum6aZlZWlKEpZWRlGkyTS8ePHGWMXLlwgnoDGQIRIxqmUVK0HopWf5sTHjh3r1KnT1q1ba12kWkmwvnmCqty235HnBj5cK4WMo0RAmR6PJzExEZQACzKdM6LBINZa+e4d7+GUlBTwnyzL8OCCffSh1Td06NCFCxfiebA8uH//flmWHz58CGfGhw4dggbx+Xyffvrp6NGjg+XB0tJSWZazsrJ0Xc/MzGSM4Vpp0jWUWlFREU0mkpOTgXy8Y4sZAz+fgBdnRVH4kQda15tvvhmKef08oRlkIBAAnft8PnoIGcATx48fxxKFaZrZ2dk0w87JybHFrx/JkQtlHaH8cKOQnp4OO8Hu3bvJQlOfYleZV33zBA4ugS14PggXrrIADSwCxsiGYXTs2BEMQb7Z33nnHTLTYe8/OZEOh158PXe73Z06dQJV4H5TGlXYajmUJyRJevz48aNHjxo1agTzus/n83q9bdu2HTVqlGVZJSUlkiRlZmYGAoHNmzczxsrKykJt3IFA4M6dO2CFrl27Yu+sLfe4+8lzIb/ign3APXv2hEMteAzTNO3Frk/QvSmYT7jdblszOHHihKIoOTk58OHo8XgSEhKOHDliGMbZs2clSapkMloPdReV/NjNBcKbOnUqLoB5sVOiCiGqV56A2oIcodanUKUWm9RaIY61+BC9ev/+/fDcDuuTLMtdu3blN8LHYGOqOQg9evQALx48eJDXbnzKZHfC3At2J4fDcfXqVcuyBg4cOG7cOCyDZ2RkMMYGDx5smmZZWZmiKFu2bAmWB7Oyshhj2DLAp4wcjxw5Ahk+/vhjvsXyMeM6TGNewzDGjRuHdeyUlBRJkt58881t27bVZ+n4WuaPBAXLg5s2bUpKSgq9x/DkyZOapu3YsQNdgDrC7t27ly9fzhgrKCjglUk1ikOf89/SQ5vMFKca8mMTh67rhmFMmzZt//792GJAacZIICKesJW/LubgaKzYL0t7Q23rFjECWZ2KASbAAGr37t0dO3bEfidg/sUXXxQVFfH+G0Lptk7Fq9PEfT7frFmzYBtZunQp+r9tLIn1zOHDhy9YsADNIxAIZGdnJyUlXbt2LVgepENkmqZ9++23CxcuTEtLsyyrsLCwUaNG69atM01z48aNTqcTcwVKhA4QfPvtt5jTTJ06FTLweqFOEai7xAlMlAUjcVx4h+vBp02bVqEerCORwvVxfh04KyuLeIKX7dSpU7j9G/MGt9s9ZMgQRVEmTpw4f/58WZZx+yH/CYWrLA7FRADND7sq+Ffk0MXWNqKVH/0X/06ZMgVb9eiSMeRYpcz1ECEinoAcNJ+CzrI5KYOij2SJD5ZExKRNI2QnxcFLqAO+Ymz1UQ/QvJAsqBvDbYNlWY8ePfrmm29gMXc6ncOGDYPjI5qxNhg2DZYHjx49irF89+7dqdXxFQGDW2lpKbaFUAshlUHDMWwHsCyLkERvR8+nMTWdJ8ATwzD69++Ptdzs7Gx0+4bR9sgPClzPzpo1CzdSSJI0fvx42950HvO6CIO3Qg2npH/RquHd3SYbKp2MDZcvX27fvj0awB9//CHL8qNHj3j9S40kknqkxKlbURvg0+T5wIYPGliE8mMI3nB4gu9XjRs3xoDLtl8wEpKgbZ02nsAoMjU1tbCwsJI2ZKuShvfT4/FQu6ShtN/v//rrr0EVsiwPHjw4Pz8fdxKghUXVE2IWtGB58MmTJ7RVq6CggFodLzP0HcYT/NkLxEH/RBjujOBKgWYG5KEEUNMRZeRVUlJC25GLiooi0Sy8bDEbRlsi6BYtWqSqKij5yy+/LC0tJbWItlTXBamkj5OepUq08QS8jNBl4OfOnWvduvXTp0+9Xu+wYcMSEhKePn3K6/SoegfPE+iJaBi0cEgpE6XZsIpKfkrNMIyGMJ/g93uRYZeO1NuQqvZPOleBuqnntlttsWv3Q13X6QIosvgZhrFgwQJJklJSUhwOx9ChQ+HeNZQn6qef126RKTW/3//uu+9iDFHhZd2GYdCJdCIJWo4GGpiMQhPxTZR31IFEcHkc2UCC5cEffvgBQ5Z3332XLFEkXvwG6Dq/YHkQRnxssx43bhy6Nq9M64Edecz5rPlxemlpKXQuHwGy4XpzIps5c+Zgs++ePXvat2+fnp7O61/+8yprEJHpc3RAEBU95IVEmJLlX0UiP59mA+EJghtlo59RtapKvgpN9iXkCR4fPozhc0ZGBlzGyrI8ZMgQWFQw48YwmRCjhhtfAdM0sRlJ07TOnTvrus4retu4ku9jPFaRhGFEpc0/cAfi9/s7d+4Ms+qmTZuIfuILwwqlxUqpZVmLFi3CZt+EhIQvvviCxxA6Dsq3wkRq9yGNu9FoMTTk6w6VQv/SsAADKdQg/sUrXoHw5UIT8vl81DuQC18clBqjB8oR/kLwFdoelgZ5MqC3FVIadCNvXCIZSEIqMi8PH+YNhhQ5Kq3Lp1a9cKTrE7x8fH2EIl65HHw6fEygjKkcH4cP8/EbapgvLx8mt4DYw4OTU0OHDsUMDK28JvUSC3iiPz9+/JjOCdOJORKPx4R6GvU9/m3l4WB5ECsTSARa4MCBA1hmS0hIePz4Mb+cSALEaQCct27dOmx+dTqdAwcOxISJYKQzz/VAFbyqxQkJKD7off/zv0qgtmneSFp+hWvRfBb79+9/7bXXcLKSjJ84ZeJyuR4+fIhGgsEZLz98yUAGnmMQBodVqNbJSEMUWGEAQoIt+FbNC1/X4VjhCTBEOE4GOnWNRSykz7cDPgxk4IJ/4cKFtD1s5MiR2DgIE7NNY8ZCiSKXgdTT9OnTYfzp0qXL06dP+RR4TEjB2UrNx6kkDJWEhW6fz6frerdu3XAebcaMGTQApxR4MWI5XKHAfr9/9erVaDaKovTv3x+7IXgMgb9tAldHJeX1rGVZxcXFFWrScLmDJ+DfkCYWvF7mmSNYHsSVUzjUViE+oMySkpJQBgIs+BfKGonz6xNFRUUoUeUC81JRIuE+oee4Pgt7u0n4qOCipKodiAmeQOFRhkr6fLULGUcf8u2AD5Nfe7TOmTNnwg2DoigjR47ErIJvhTykcVR8DPqePHlCx9E3bNjAy2/DBEWupM3w8W1hmlKAKr777jtYnF555ZVbt27ZbFz13C35IkcbpmLyH27duhXUK8ty3759S0pKaAmQMKSthpWrPD7ZmoQx9DEMo6CgAAf9MEum7TC0r7LCPS94a4tD3/IBVVWdTifusSBwbBVKI1Ty7E22LJpm0foWqJTkLyoqSkpKArx8vjax+TmKqqrov7ThU5ZlihAagPy2NlkT8KP9NlKe4NPlsYbBjiawaGp8hArDlTdEWxXyWb+0YR5GUMW6desYYzAjjBo1CqcBoPtse0bjEbQlS5aQD6Jz586hT1IzI9VGAR6fSMKECbZmnjp1KiUlBcPtdevWFRUVxaPRyVZw3JCq6/rmzZudTiccvbz//vuYgNoG17ZvCZ86CvDr2B6PJzU1FevqvPa3hW1qFz9tcWxMAy0MT5qhjoL4omGoQesTOF+C5StSR9QIESCeyM/P5w85kUgkMAL0r/b8D1TBUwLPGRQZ1wC7XK7Q+uLlr+twTXkCILrd7sTERGzcxLEdvpx8GCCmpKRUThV1Xey4S5/vxhD+7t27a9asgZ1EluWxY8fSQQHbtvS4KyxGcPBcIsty8+bNHzx4EDr+JZKoxnyCx6SgoKBdu3ZQMX379n38+LFlWdgUSzqCjx+zYb6RYCtXsDy4bds2x/M/xliPHj3y8vKwmw5Fs31CP+u6jDDjoKHC7oT65fNF/YaKhHVsrGHQWwrwrQJzAsuysNfD1k74vCzLOnz48Ouvv06zLvLnzxhLTk6Gl0mYtjBeqdLuBJFskwCIRxYzXgaKzz/E50VFRTCvUTHruWXWlCdoRzYIAB4oeWK0hTH+xblrGxziZyUI8O2Drm3xer1fffUVTrEwxoYMGVJWVoZJMR+/kmRj9pXP5/vrr78aNWqkqmrjxo3bt29fWFgYbj7BFzbyMI6blZWVDRgwQFEUp9OZmJh46tQpYEJ+8mMWolDBUHZSlKZpHj58WNM0OIBp3769x+OBpoMV3jae4KELTbx2n/A8Qac34ObIdlIhNF9SsqHUUqFSRgpVrmPTVhFcIglFTM0APyvkCVrHtq1thEpOT2h9hZ7YAnxV4hXt5KZqsn1Spz9ryhMwcQQCAafTiSvtsEPARg/0E3TtcDioNVCx65kh6xTWWk/chhJ6CDrbnDlzNE1zOp2qqqalpdEZFP4TCte6YHWUIHRBTk4OtZwuXbrAiSzpQQpQ6SIPQKE8ffq0U6dOtL3qyJEjcd0IUXyC5ZdffmGMpaSkMMa6d+/+5MkTLM5DSaGk4RCro2qlZGm9DfY9zCB5PYupAL9agHKRwPgZukGIik+zB36RnD4PrWjsPoLjHMhD0xEYP3i7E+2opuwwPqOfPOfZhCQQeGH4spPkiIAt71CY/CeUTj0EqsMTvFjAC7Y/4Ej3bNBNqHzZ+DBN3MhgwqcswuEQsGEYLA9OnTqVMeZyuTRNGzNmDIYeMGhiQMR/QuFw6cfCc+zs0nUdTkMxW23duvXly5fdbjfRpK1HUdEoAD5AidB1SUFcvny5Xbt25EJ88+bNOKFNXZ0SoU9iAZlIZMBMAkWTJKlDhw4PHz7kiSES3CLJqHpxACxksElC4MNiRu70aYOfy+XKyMh48OABsR1fTRWGKU1bXrzw/Id8fAzFQveGIX64CS5a2rZt2+CnnYTHSgkvfzgZwsnDP+e/retwTXmCpn4wevI7AarkCTTchuG6ua7riU+fbyu+53+WZU2aNAnKVJbltLQ0DL3xFd/u+W/5NGMtTG1D1/X169c3adIEKkPTtDVr1mDvCu/jhC8XH0a5kBrZSC3LWr16tcvlokOLW7dupQkuwRWaTqyhFCoPTEm5ubkw8CYmJrZr1w62dYxq+UJVEg5NuRafVJIvwMdscsOGDcnJyY8ePcKcA6rm9OnT7dq1a9WqFYYLlSRFr6hCq8ETWG+vsG1gCMInTmFA/d1336Wk/N/2vj1Giir7/1Z1qqp7wgxDZMCIQIDBgGB0kSjB8AiBhA3q8vuKQGSAgDABHMMKZMElLi5B0KC4YQUiAwQQlncGNwYkRB6bBTWDSHxgZMAAQniZmemZ9HO6qn758vl+z95v9XTTPdM9/Trzx+R09a17z/nc6vupe86593a+ceMGrmNsPH36tKy/jCop7BCo2jj6y/WkQ24vT2CChi6kKRsmFg/kCQBHs4p0mJeXdcqPEQzElSVLlhQXF2PrrenTp4MqcvEdmebglKm55x97SkpKdF2HdU899dTBgwfxrod3OhkTWQY+kZYIJTUePHhw+PDhiP9j29H9+/e3+mIYXU/2P06WZX322WdwQrpcrn79+tXV1cGjEg6H4cGQ7Yolp9VSatQx8KHfQRKRlsjWrVs1TaOQG72SbtiwQVVVOgWdaoslJDLOyvfK5WlMk7dTg9qtPjOyu2nbtm26rtP0l7IQZf1lnGUdZFnWR74u35tuub08QdlmFOFJ3O8UvStDuq3Nj/odzwq5ejGrQHaZruugCsfT7LgBAQk9AAAgAElEQVQ3awEhbyy2W4i0RK5evTpkyBBkJYEwhgwZsmnTpnv37tFDKFsHGQaGw+HGxsb333//ueeeQ4QMc69nn332woULSIJ0AOUYwrIWKIdip0+fLisrKyoqUlW1R48e8M+Q8y2OE9IBnaPalH+k5hw4E0lEWiI7duwwDANLIPEYQI2DBw96PJ5t27YlaE4i4yzpQ+8ouItGM5knqLBcM2TMJCDv3LnT7XYHg0G8puC1xrIsWX8ZWKrWIcityF/J96Zbbi9PxNGbEqJj2RDn3li38PU4COA3tmLFCsR+hRDTp0/H6Z74ChEL8j/Q+zgJcSrv+K/gLHK0+95775WUlNCG2Bjux44du3bt2pqamp9++qm+vj4YDPr9/rt37166dGnXrl1vv/326NGjkWfh8XhwCrfH41m1alVDQ0OcnJ9sfj7lV2+Kr3799dc4bkgI0atXr0uXLpmmiS3zZFsSkR2wp/xjLB3wKMKJjeNpg8Eghd/xSKxfv15V1ZqamjjvB7Hql6/HMipWGfk6ydE8BxeLaZqy/iiPFkl/x++OsoQdilFbDsFRLK0fmSfSCm+HVo7w9Y0bN1asWEEBwJkzZ2KkwI6hNHmHAM7oUC3b3djFixf/9Kc/Ib29uLgYVEH71dNHCLquYwIBhxXesufMmQOXveOHF+dju7VOcQV4y0almMpfvHjx4YcfVlVV07TevXtfvnwZMySUiWNaq1+lWN2o6lptFBfpydy8eXNRURG2xJC5sE+fPrNmzaIE3zhVxf8qSqn/uSDfJZeRr5Ps4Al5/WAi+tMPkH6e0Uk91JZDkHVLt8w8kW6EO65+Od5TVVWFF2chBO0dTS9rxBb0mHaclu1rCfl1pmlev35927ZtQ4YMQRjM7XbT/JU8S+AGHKglhBg2bNj69euvXr2K3zbmWNgk3/ELjP7YPq3TcjeggO/l/PnzZWVlWLvbtWtXHAFr27bX66XpY7RRca6kRWOp0jhNE0/s3LmTsviQOATuLy0tPXfuHJgjTj0P/EpS5/+I8o3yF/L1OHIs/bG2TFEU6C9PJuj3KK/hoKZjtUUFOkBgnugAkDuoCZzcAkdTOBx+/fXXEacVQmC1tnzSgMwQ8iPbQbqmohnM02/fvn3gwIHXXnttwoQJAwYM6Natm2EYbre7rKysf//+48aNmz9//r59+65du4a0GeTC02lF8N3H+inS9VTom7I6aJ9R2HLlypXevXtjgtW1a9cff/yRkhfoNTz6tZdMa1VIma4xKmq1UdhFayk+/vjjkpISrAeibRnv3LkzadKkkpISbO0Xq55ErsdQzZbvlcvI12PJ9CqGHfJJf8TbbNt26I9MjXPnziH2pqrq3r17HXtVxGpL1i3dcnt5Io5+9H4Xpwx/lUIE5OcJa0oXLFiAIzyFEDNnzkTOD9xT2AYA65hajQSkULEsqUrGJ1k5S0wgNcg78fPPP5eXl8Pt1qNHj5MnT/r9fjjug8EgtniipAC6PZsFhG1t2962bZvL5WpqanJ01smTJ4UQZ8+ehWONuBCZk/ILUEbMTEp/7EH5+OOPHz582O/3f//990KIH374ISOax2mUeSIOODn2lfxzopnsa6+9hgmvEGLWrFnyBsgUC3W8v+SY2QmrK+OTrJxwIx1U0DTNQCBQV1f3yCOPIAesS5cup06dIpcaJWjC0g5Sq93N0KAfDod37NghhIg+X+jUqVOqqh47dgyt3b592+PxHD161LbtgwcPDh06lE7Vbrc6SVfQBv1//vlnTdMwEQmHw6+88gpsSbrtdN7APJFOdDu2bnnsA09YlhUMBisrK4kqkAFl23ZjYyNtmdCxamasNRmfZOWMKR2jYb/ff+/evT59+mARfpcuXY4fP46xBnEX8qfFqCB7L1OGPeYTOA1b7q/Tp0/rur5v3z7sdWjb9qFDh/r163f16lW3273nH3tosM6IkUnpj/UZNOH79ddf+/Tpg6lSRpSP1SjzRCxkcu+6/FuisyExGQdVYEu4yspKuCbo6cw9U9uksYxPsnKbGkzjTXfu3Onfvz925igqKsIbKPKekbCfxrbTVjU6BdWbplldXV1cXIxd0OX+On36tMfj2bJlCyUXBYPBkSNHKooyceJEWiySNjVjVtwG/YnOTdM8evRov3793njjjSz0AzNPxOz1HP1C/kXBVWpZVnNz8/Lly5E04nK5ZsyYQccoktOp1UTDHAUhL9XGa3IwGLx79y42QhdClJaWfvbZZ1iy6ghW5xwIeHRpWdnmzZs7deoUHa8+deoUTl5BpA1vQh9//LGu69jJMVPjbIL6nzlzBr9E2rLI5/NVVlZqmrZ3714K5mdV9zFPZFV3pECZaJ7A8HHz5k1QhWEYSJb1+XxIGULAE23T7gKoJwUKcRUpQgDDXzAYHDhwIDJEPR7P4cOHac0wvZzmaN85xlnTNOnUW8dTHWmJIKEZ/tWGhoYBAwY88cQTw4cPp0lGilBPoprE9cfiQSQ7maY5Z86cioqKGzduZIrhHmgk88QDIcqxAo5fFHb1QFphc3MzMqBAFfPnz8cQg4UXoVAIglxDjhmf7+o2NzcPHDhQURS32+3xeOCjl99Ac7rvHOMs0pko0kamUfgBSV+Rlsi6detGjx59/fr1gQMH1tTUZGq0TVB/WucEP+GPP/742GOP1dfX40dKGShZ9SwzT2RVd6RAGfo50U41tJEArsydO9flcmn3/1555RX86ugUF8ceCSlQiKtIEQKNjY1PP/00VhF27tx59+7d6GuMLPAfyr2fomY7rhrHONvQ0IAhNdqf1tjYSJnBly5dEkLggKkDBw7oup6pfKfE9Q8EAjAtHA7jmBCcEK6qqq7r27dv7zjQE2uJeSIxnHKtlDxeyDIcTbNmzcK57UIIilWAKmjDNZSU7801DPJB31AohCym+vr6ESNGGIaBo/c2btyIJTL5YKRkg/y8kezgCUwXLMtCOgYRJPIyZC+cVHEHiaSzLETrjzc2bGNF8RiaF2ZqPhQHI+aJOODk8FfyYyrLmD2YpvnGG2/Ax62q6quvvkrbbsPHjVdUJM7S7TkMR86qTh0xatQoTdNcLpfH41m/fr3f7ycKyVnjWlGcHrZEBNxPJSkhVT5opJU20nmJlElQIJLAehdM/dOpYBvrZp5oI3BZflusxxQ+X6ROzps3DycnK4pSVVWFmCF8pjQ8yfVkucl5qR4mE8OGDYNfQgixdu1ashSjDH3MA0F+3pKVgQYlQWUEjWR1lssTSVAKYkZMaLVR5olWYcn5i/LzJ8t4FrGZvm3bVVVVtGteVVUVZhUYm0AVjntzHpccNGDEiBFFRUWY/L333nvY/o98LxTUzUHLWlFZft6SlWk+gUe3ldrTfylZneXyoIcsJAnbtpkn0v/sZE0LeChpqmvbdiAQWLx4saZpyJ+ZOHEifmz0S5OfY9kODE9gFHoPYj+VDFGrMp0nT+M7oKbFK/D7Ydtwn8/3+9//vrS0FDGJlStXok5KmGm1Cb7ICKQcAeaJlEOavRU6eAJu3Dt37ixZsgQbe5SUlMyZM6ehocG2bczfY/EEDVV09hE8WrHKZy8oHasZZnK0nys1jsAmLZfDLo2TJ0+mE0xXrVqFwj6fjziGbmeBEUgrAswTaYU3uyp38AQp5/f7586d63a7DcPQdX3u3LkY9OPMDzCuoQbMlB2FszBng+zNrHD+/Pnhw4dXVVXt37//+vXrQM8Bl8/nmzlzJu3KtWLFCmyE7gA5s4Zw64WDAPNE4fT1/2ysT34nzCcoOYSSZV0u19SpU8kDTlMEGalwOHzs2LG5c+ceO3YMIx3HM2R84sjBYHDChAmINwghHn300SlTpvztb387ffo0ZmmhUKiyspJWXC9fvhxnMPj9fnL0xamfv2IEUo4A80TKIc3qCmnQx4SAOAOb5FRUVND4NXTo0D3/2CPPFbDNwIkTJ5YsWVJWVqbrer9+/ZqamlpND3e8IGc1KB2oHI633Lt3LzYDd7lcqqoq9/9KS0tVVR05cuSTTz6J5AJN07BmHruKUmc5AO9A9bmpAkWAeaKwOj4WT5D3Y/Lkyb169UKq/sGDB8kV/u233y5btmzw4MFut5vOPvrggw8c+0HJ9RcWsolZC5ybm5vLy8vhVsJxXiUlJYqiGIahKAp2gRVCVFZW4iApBLeZJxLDmEulHgHmidRjms01yuO4PO5Qms3ly5cxVD3yyCO3b9++e/fumjVrfve73+n3//Cei+2hysrKGhsb5QodcjbjkCndaLXwqlWrMHUrLy/fvHlzZWXlk08+ifxXVVVHjRpVVVUFkoYzyoGt/DFTtnC7hYMA80Th9PV/WyqPLzJP4L01EAisW7cOi35LSkpGjBihKIqu6yAGRVHw8utyuQzDeOutt2gWIldLcmEhm5i1cBnZtn3v3j2Px6Pruqqq33zzDXKLvV7vF198sWzZsiNHjqA+yitz+JoIZPbvJQY8l2oXAswT7YIvp292jDUY9J9++mkKUUBQVRWpUFOnTl28eDG2/ne73b/88gvMl+tBNBuxcfl6TgPVBuVp+MYePshzJWJGNGjhwoUulwtbbNGkAQGMVo+QKmQ829AFfEsKEWCeSCGYOVaVPO4grH3t2jWMXNhN1uVyFRUVjR07dvfu3Rjjxo8f73K5FEWZN28eJefI9dDm5E1NTfL1HIOm3eoGg8H6+vp169bdunULBAxuwDo7XDl79qyu64qiFBUVIaMp0hJplSGgTiHj2e4O4QrahQDzRLvgy+mbHeNOKBTasGEDPEu6ro8aNWrLli23b98mV8n58+fJ7/TDDz/QfqWOerDMW75IL9c5DVdSyuPo5vLycsMwnn322ZUrV9bV1eF0GmyIjbOh4NkTQvz5z38uQJSSgpQLZxAB5okMgp/hpuWhHAuwJ0yYMGTIkDVr1ly9ehUTCJRB9GLWrFmaphmG8fzzz9M7siPmUV9ff+bMmXfffdfr9Trqz7C1mWh+8eLFSGpSFMXj8QwfPnzt2rVXr14NBoM+ny8QCNTU1CA1tkePHrSQJROacpuMQDwEmCfioVM433m93khL5NKlS9Em4+SiGzduIOVfCHHhwgVsg4xX4Kampm+//fb9998fP348IhmTJk3Cim7yyBcaZwQCAcuyamtr6UgoTMUQ8hk9evQHH3zw66+/+v3+3r17CyFUVd3zjz3yKvfojuArjECmEGCeyBTyWdcuIq4OtcgZsmjRIjjTx48fj/PCLl68uH79+qlTp3br1g1pUbSu4ujRo/CzFyxPAMZIS2Tw4MFIJkbOq67rWB6BFSrPPPPM4MGDhRAul+u5557Dfu+OLuCPjEDGEWCeyHgXZIsC2PiPFtbJat27d69z58547Z0yZcqcOXN69uxZUlKCl2VcR+6sqqpDhgxBlieRhCOnU645X2XacHf58uWqqpaWlo4fP/7QoUNTpkzp0qULMoxBGABWCGEYxsmTJ/MVELYrpxFgnsjp7kuZ8nI+q6NSy7I++OADuNEpUxbHpuJN2eVyde/eXVVVDHyrV69mngCGpmlevHgRIYrS0tLGxkbbthsbGw8dOjR16lQhBB0sAa6tqKiQAz+ohFx2jn6RPyZSRi7PMiOQFALME0nBlTOFcdauY3tRGk3iC7KROC67b9++YAhiC0VRysrKJk2atHHjxm+//fb06dOYT3Tt2vXmzZuU30lTCoS7ozf5kNvKUZlcc7CRrEBcJ9ISeeqpp4DegQMHEIHAdn7BYPDIkSNTpkzp2rUr0pFLS0vh00MlcbqJWkmkDBVmgRFoGwLME23DLdvvIr9HKBSKM5S0+pVsm2maH374IY5HFUKUlJQMHTp07dq1Fy5cwDEVCGhPnz4dIYp58+YFAgFHcALb2FG1cqN0MXcF0zS3bNmCRGGi50hLJBwOB+7/rV69Gjzxyiuv2LYtH0VummYoFAoEAnv+sWfSpEldunShw4gokYy4tlXccDF+mdzFljXPEgSYJ7KkI1KvBtYA03AjjzLxZVmVpqamkSNH9u/ff/ny5UeOHMEYFwwGKYkz0hK5du0a/Ceapp09exbbykbvRwvGckwp5LZyUcZiiDVr1gghxowZs3379qamJiJpJH399NNPCD+43W7kQQGKUCgk7xMeaYncvn37yy+/JBwS4YBEylCFLDACbUOAeaJtuGX1XRij5REkPjE4vpVtsyzr1q1bdCUUClGgG+/O4XB4xYoVqqp27tx56NCh/vt/jqRY+NwvX75sWZZjfkM1567g9/tv3Ljh8XgwaSgrK6uoqDhz5gzYArbTbih79+4FOGQvNurAR8uyaEMnIvj4cwW5lwswX4BgZCGtCDBPpBXeTFbu9/vprT8QCNCBaNhAAqMP3v1pSMKgQ0qTMz063iCX7Nu3L+IW1dXVuFd22V++fLm6unrYsGHjxo1rbm6G1z7+2EcKZL9Ai9UrKyt1XcemJiCMAQMGrF27tq6uzrbt1atXI37zX//vv4A2Aj+t4iCjB7deq/tlRVoilMqMQBTzRPY/MDmqIfNEjnbcA9TesWOH5/6fEALRBeRfrlq1Sl5MR++88pSCqo7DE4hA2LZ96NAheo8G68CXcu/eve3bt48dOxYUomnaO++8Ez3PaLVdUiAnBMuyvF7vN998g81fkbmEtSZAZsyYMStWrOjUqRMCPFevXgVERBKO8V3mCdu2d+zYIYTo1q2bKv25XK6VK1ci6E1R8Vh8nxMwspLZjADzRDb3Ttt1+/jjjz0ez/Xr1+Xt52pra/v37//MM8/cvXsXXiMksMYaXxwxBnlcA08EAoGxY8dinfbSpUtN02xoaKipqZk2bVppaSlGSbfbjeUCiPT6fD6ZG2S57dZmwZ2hUGjs2LHIDO7bt2/37t1hPq489NBDIAnDMLZt2wbAZTxlHBw8sXHjxuLiYsoiw9zuzJkzAwYM6NOnD0WMKCxEVWUBKqxCniDAPJEnHekwY9u2bUKI5uZmOR/fsqz33ntPUZR9+/bBD45XURpZIFBVcXgCI93Vq1dpO4r169fPmDGjuLiYkqNoebamaQ8//DBNQRzN0UdqN4cEmhkEAoFPP/0UZ9L16NHD5/Mh57W4uBiEgf+KokycOBFjeiI8YZrm1q1bVVVFQzIy7777rmEY+/btQxdH50DLhVlmBNqDAPNEe9DL3nurq6s1TfN6vY646KFDh1RV3bp1K0UmUIAGa8fLrEwV0WXmz5+PxH/a+gknd3o8HsMwhg8f3rNnT6zFW7p0KXxcjuEsexFMTDMZE9M0e/XqBb/TgQMHQKUNDQ3r1q0bOnQogNJ13e12X7t2zTGHk+uRu8A0zd27dwshsKUHpUvZtn348GEhRHV1Ne6N77xKzBouxQi0jgDzROu45PrVjRs3ut1ubMXx22+/Ubj173//u67rhw8fprf76CmFbHssngiHww0NDY8++igYAn4VvDIPGjRo8eLFdXV1gUCgvLwcARLs+JR/vhF5fDdNc+XKlUh8GjNmDDKAgXwoFKqtrV26dGlJSYlhGBs2bEiQJ2zb3rRpk8vlam5uBtEGg0FMILAs49ChQ+gjWRPIcj+yzAi0BwHmifagl733btiwQVEUBAOQGBMOh0+ePFleXj516lSaTJDbRB5lZKvk67KM+Krr/h+2sevVq9f8+fPPnTtHr8Pnz58n7zzGOEdKqNxQjsoOTG7evAlHk6qq3333XTgcxiAO65qamiItkX379m3durWhoUG+1yETGsFgcMeOHYZh4Nwn6rhDhw6Vl5dPnz4decbRkwnqBaqKBUagzQgwT7QZuqy+cefOndg+SPnfPwosf//996T6A31BjvGLPkZaIsOGDVNVtWfPnpWVlSdOnKCBiUaud955R1EUTdPATPQGTa3ngUCA4GAiy7Lmzp0Lt9ucOXOASTgcbm5ulpdhNzY2tjqyU20yMgg1PfLII+S5UhSlU6dOuq6fP38e1Es3yoJcCcuMQHsQYJ5oD3rZe++WLVs0TcOaCdocorm5uaKiwuVy/fLLLz6fD+4LUAWN8iTQsC4PPSRfvHixsrLy6NGj8K6E7//RvXBqjRgxAp6o/fv3YzjDdaqEymcvjg/SLBwOU4AHXr7a2lpKjf3tt9+wxEEOWZMs4+CQqVnLsqqrqxGfkMvcunVr8uTJhmHcuXMHCgQCge+++27gwIGaphUVFe3fvx/H58n8RNWywAgkhQDzRFJw5Uzhjz76SNf1O3fu0G504XA4FAr985//1DTt3LlztAERxm5wRiAQkJdbywOTQ0ZCLcKqFCrHWZ7wZV25cgX7pKqqCp8Jlow53qNzBtAYimIFXFNT08yZMwcNGjR69Og333yzvLwcG5msXr3asa6QSMKBQzS8aDAUCm3atOmhhx66c+eOo8yRI0eEECdOnACj27bdr1+/AwcOmKZ5/vx5IcTFixdxECH1aQwj+DIj8AAEmCceAFCOfr19+3aXy0X+cQwxtm3/+9//FkIcP34ck4y7d+8ahrFz507btvft2zdgwIC7d+/Gn0mgKtM0/X4/XEw4KJteq3E+9q5du5Ay+/DDD2PtMRGSPN7lKLyy2s3NzQsWLBBCIIKNFXba/b9u3bo1NTUlyA2twmKa5ubNmxHHdhT44osvhBBffvklttu6cOGCYRhQzOfzzZo161//+hduic6plfVnmRF4IALMEw+EKCcLbNq0SdO0+vp6zBvIw3Pq1CmXy/X555/7/X6EWD/99NPBgwdfvnzZ4/Hs378//nsuDVW00ZNlWWAjCJhnhEKhurq6P/zhD/A7TZs2jSYTjvpzC1yYL+tsWdbMmTOFEG6323GeBCXItp8nVFVtbm4m8NGbX3/9tRBi165dRMAgeJ/P19DQ0KdPn6+++ori3rLOLDMCySLAPJEsYrlRfuvWrUIIOHxos2vLsr7++mtVVTdv3ox12rZtNzQ0jB07Vtf1iooK7GAqj0eJyISIXDjSElm4cCF4wuPxvPTSS/DUy2WIvaiGLBQcCiNeTeGWGTNmYNqkKMr06dNramoWL148dOhQj8ejKIrH4xk+fDgxqGOiloixlmXt2rVL0zREgHALcDtz5owQYtOmTSADr9cLMj527Nhjjz1WVVUla55IW1yGEYiFAPNELGRy+/pHH33UrVu3xsZGJMXCmFAodPbsWSyFw4bYoJDq6mpd1xGUdoxl8lgTS3YgRen8Pp9v+fLl2N/JMIwXXngBcXW5Hse9WfhR1hYzA8SHbdt+9dVXkU0mhJg9ezZiFQhI3Lt37/PPP1+4cOH48ePr6uoQTKaJF+pM0NiNGzd279795s2boHYEGyzL+uabbxRFKS4ubmpqQq9FWiJVVVWGYezevdvRjwm2xcUYgVYRYJ5oFZZ8uHjjxg2ECsgXBKvoLR6D161bt5588sk+ffqMHj2acp/kwfGBcqtgoZWmpqa//OUveON2uVwTJkzwer1yha3em1UXZW3BE1APmWOYMM2ZM4eSjjBAk6/J6/XSLA0+t6Ssg08JfE/5AsT9lmXV19ejf03TXLBgwZQpU65du2aaJk0loX9SjXJhRsCBAPOEA5A8+UjxAJ/PR1tlQICFGHSCweCaNWvGjh17+/btAQMG1NTUyMNignIsyJAnGg6Hly1bRtt7jBo1Sn6tjnVv9lyXQcDoH2mJVFRUIGqtqurs2bNpjTTSxrDHBhDG6z+6AzSclGmWZWHmR8SDJlAtctgQarp06VL//v29Xi+O4JbVpjeDpJrmwowAIcA8QVDklUA+cQpyygMNZMuyamtrNU2rra0NhUKffPKJx+O5efMmRiK44B1hZ8fog48ycJRf6/B7wAGFvZ7GjBnT0NAAxeR7s1wGvQUCgYqKCqwzNwxj7ty5GP0pX0BmwWi4krUxuga6go1jwQGWZW3btk3TNGnrcRXLVsDWybbL5RkBGQHmCRmN/JHxvolX2miGwBWkS9KbqW3btPiOoqY0KsURZNTgnYe/CwMZ/tu2jcNBscnH8OHD7969S4rJNWS5PHnyZJCEqqqVlZV+vz8YDNJYjBCF48w+GbpkrZPvlWWamkQLchOOo1Xlr1hmBBJHgHkicaxyrCT5PeTxRZbBEOTdJvPoevxXY6qKboRAZEM0QH75devWYUohhHj66ae9Xq+8CMNRT6Y+tmoXwJwxYwaRxKJFi+g4OdkXBC8QVeIQkjXKcTt9lGNOoAp0low58qBojUuyTXN5RoAQYJ4gKPJKoLkCjSzRAgzG1IFGOji4MdxE39LqFRk4GrMcDisstbNt+/3330dYW9d1ogrydKEqtCJX25Ey2Sg3CncTotaGYVRWVsJSmjMhcwyDchx+letMRCZlHALBSx2NbCjSB9cdC+YTaZHLMALRCDBPRGOSb1ccQwx9lO3sgFCnaZrwSm3cuLGoqEhRFJfL9cQTT1y/fl3mCUqrbVVPWeeUy9QiBAy1UHv27NlI8PV4PPPmzSOSSLkOiVTYAZ2ViBpcpnAQYJ7I/752DH/0MSOWgxKqq6uRL2QYRv/+/a9fv+7z+bAZEeLbpGRHjolyo2gX8yqkwLpcLl3XFyxYAHeTnDyWESS5UUagwxBgnugwqLmh/yCA9Kpu3bohX/bxxx//5ZdfaLGYI1fqP7elWQJPkIsfrU2bNo32f50/fz58SshuwqwizUpx9YxA5hFgnsh8HxSaBs3NzdiN/JNPPikpKUEGVL9+/XAaKKLo8qt9h+Hj4ImmpqYpU6Z06tQJe/wtWLCASMKyLCaJDusXbijjCDBPZLwLCk4BmQP2799fUlKCM+D69u37ww8/0NZJCGbIhTvGB4WwRCgUmjp1KrKbFEWZP38+cl6RaAQlHfHqgutINrhgEGCeKJiuzhpDg9KfbdufffaZqqp4be/Zs+eVK1dkTSmxB4Qhf5U+2bIsWichhKiqqsIEiOYQ2PKk4zksfSZzzYxAHASYJ+KAw1+lHQG/3x8Oh48fPw6eEEKUlbVAsosAAAqZSURBVJXV1tbSy3sHv7OjuYqKChyyJIR47bXXEC/BTILC19FUkXawuAFGIEMIME9kCPgCbhYrNmjdBvYvOnHiRHFxMTZALSkp+emnn2j7VXptp/V6qQIveo4SCoUqKiqwTkJRlKqqKiIJEsAloA3SrWN8YqkynOthBJJCgHkiKbi4cIoRoOVgpmkeP368d+/eQghN03RdxzE7tM1U9NK/tqkij+yQsTYNm/dNnjwZMwmPx7NgwQIsw8Z/ai66BlyhAiwwAnmGAPNEnnVo7pmDBCcQxunTp3v37g2e6NKly1dffYXhO3T/LyWxCnmUB/egacuypkyZous6TqZbtmwZ7VXlwFSuQZYdxfgjI5A3CDBP5E1X5qohGKZN08TeHmfOnOnZsyfWVZSVlX3xxRcgkujj8NpmsDyygydQD7mbhBALFy6kkHW0Q0muQZbbpg/fxQhkPwLME9nfR/msIUZhogp4mWpra3v27KnruqZppaWlZ8+exVLtNM0nmpubX3rpJcMwsE5i2bJldJ6EPNehbpC5QZapAAuMQJ4hwDyRZx2aw+ZgzMU7/nfffderVy+M3UVFRZ9++ikMi97VA3cla3Y4HG5oaMBW6tOmTcM6CU3TFi1ahCZAXclWy+UZgbxEgHkiL7s194ySX8wxybhy5Uq/fv2wuWxRUdHBgwfJKkfhaNcQlYwlwMcVCAQmTZqEs30Mw5g/fz7ogUkiFm58vTARYJ4ozH7POqsdQz+yTuvq6nr27KmqqmEYLpfr4MGDSKKFe0q+JVl7cLLQyy+/jJqFEH/84x+xVW2kJYK1EcnWyeUZgXxFgHkiX3s2x+ySB33MD7BM4eeffx4yZIiiKJ07dzYMY/fu3aAKOvQbNyZrbTAYnDRpEqLliqIsXLgw0hKhsESytXF5RiC/EWCeyO/+zTHrZLbAQjzLsi5fvjxkyBCM6UKIrVu3wirTNOEgSvycUSyVsCzrxRdfLCkpUe7/LV26lCrMMbxYXUagQxBgnugQmLmRxBCgyQEtbcP6iVu3bo0ePVpVVSyC++ijjwKBAK2LduxDLpONo1nLsrxe74svvoiYhBDi7bffBnmwr8mBFX9kBAgB5gmCgoXsQgC7BeKQZ6/X29DQ8NRTT+F4bbfbvWnTpkhLBDMJhw8qDk/4fL7x48d7PB7U89Zbb927dw9my2fqZRcQrA0jkGkEmCcy3QPcfhQCOGsawz0mDeFwOBQKNTY2jhgxonPnzoqiaJr24Ycfkh9J5gaHTNU3NjbOmDFDURTDMBRFefvttzGHoB1BqCQLjAAjICPAPCGjwXIWIYD4BOYT4INIS+T69esjR450u926riuK8u6772JKYds2tv52+KBollBfX//888/jZDohxNKlSxHboOO4s8hyVoURyDIEmCeyrENYnfsIYCG0bdt0aDaowrbtxsbGMWPGYF2FoiiIQoMPENWQ5xOAMxwOz5o1C6v2dF1fvHgx6IHyaxl1RoARiIMA80QccPirjCEg8wT8QshuwoGjt2/ffumllzweD2YVK1eu9Hq9wWAwHA5jViFTRSAQwExC13WPx/PWW29h76ZAINCGBXoZQ4QbZgQyhwDzROaw55bjIkB+J5kn4F+KtEQaGxtffvlll8ulaZqiKIsWLbpz5w7ND4gnTNOcOHEiHTr05ptvkrspbuP8JSPACPwHAeaJ/2DBUnYiQDwBgWIVPp9v+vTpqqoirP36669TNMLn8yEA/sILLyiKgmnHkiVLbNvmaUR29jJrlc0IME9kc++wbv+NQCyeCIfDXq933rx5iFWUlpbOnTsX6y2QHzVu3DiPxyOE0HV92bJlQDPlh+JxJzECeY8A80Ted3HOG0hOJASfiTYwOfB6vdOnT4f3SQgxbty4QYMGaZrWvXt3HF+qqupf//pXr9cLyrFtm5fU5fwzwQZ0LALMEx2LN7eWPAKxeKKpqQkJUX6/f86cOZg3wAeFGYau68XFxWvWrEHgGlQR65S65PXiOxiBQkGAeaJQejoP7ARh0HzCNE0kOGFh9uzZszGBkP+XlZXB8Pr6evlGmXvyABk2gRFIKwLME2mFlytPJQIOnqCPdDAqjraWeaJz5860AoN5IpWdwXUVEgLME4XU27lvqzwPkGVYVl5eLpOEEGLQoEG0XSDzRO73P1uQGQSYJzKDO7faNgRkbpBlTCl2797t4Il9+/ahmCNvSr63bZrwXYxA4SDAPFE4fZ3PlmLlRKQlUlNTI4TAdrD79++XbWZukNFgmRFIHAHmicSx4pLZi0AoFIJ/6bfffuvUqZOmaW63G2lOpDTzBEHBAiOQFALME0nBxYWzFAF5pybaFNahK/OEAxD+yAgkiADzRIJAcbGsRsDv99PsQQjhdrsNwwgEArLSzBMyGiwzAokjwDyROFZcMnsRkDkAoWxFUeRJRvaqzpoxAlmPAPNE1ncRK5gAAswTCYDERRiBNiLAPNFG4Pi2rEKAeSKruoOVyTMEmCfyrEML1BzmiQLteDa7QxBgnugQmLmRDkQAiydUVe3ANrkpRiCfEWCeyOfeLUzbmCcKs9/Z6vQhwDyRPmy55swgwDyRGdy51fxFgHkif/u2UC1jnijUnme704UA80S6kOV6M4UA80SmkOd28xUB5ol87dnCtYt5onD7ni1PDwLME+nBlWvNHALME5nDnlvOTwSYJ/KzXwvZKuaJQu59tj0dCDBPpANVrjOTCDBPZBJ9bjsfEWCeyMdeLWybmCcKu//Z+tQjwDyReky5xswiwDyRWfy59fxDgHki//q00C1inij0J4DtTzUCzBOpRpTryzQCzBOZ7gFuP98QYJ7Itx5le5gn+BlgBFKLAPNEavHk2jKPAPNE5vuANcgvBJgn8qs/2RrbZp7gp4ARSC0CHcETpmlGWiKWZZmmyUcWp7b/uDYgEGmJ2LYdDocty2Ke4KeCEUgtAh3BE+Fw2LbtYDCYWtW5NkaAELAsCw9YOBxWVVVRFJfLRd+ywAgwAu1BoCN4Qv4Nt0dXvpcRiIWA/C4i7v8pisKT11hw8XVGICkEOoIn4HSCTyAp5bgwI5AgApZlgSoiLRH2OyUIGhdjBBJEIF08EQgEhBCapin/9w/vevyfEUg5AqAHVOt2u4UQfr8/wZ8BF2MEGIE4CKSLJ+z/TTspKiqSmSLlowNXyAgAAeIJwzDU+39xnnv+ihFgBBJHIF084fP5iouLFUXBL5b+y5zBMiOQQgRUVRVC4JEzDKNLly48n0h8IOCSjEAcBNLFE6ZpNjY22rYdCATiNM9fMQIpRwCJTz6fzzTNlFfOFTICBYhAuniiAKFkkxkBRoARyEsEmCfyslvZKEaAEWAEUoYA80TKoOSKGAFGgBHISwSYJ/KyW9koRoARYARShgDzRMqg5IoYAUaAEchLBJgn8rJb2ShGgBFgBFKGAPNEyqDkihgBRoARyEsEmCfyslvZKEaAEWAEUoYA80TKoOSKGAFGgBHISwSYJ/KyW9koRoARYARShgDzRMqg5IoYAUaAEchLBJgn8rJb2ShGgBFgBFKGAPNEyqDkihgBRoARyEsEmCfyslvZKEaAEWAEUoYA80TKoOSKGAFGgBHISwSYJ/KyW9koRoARYARShsD/B0Bu3v+ViUwaAAAAAElFTkSuQmCC;" parent="100" vertex="1">
                    <mxGeometry x="12" y="38" width="525" height="312" as="geometry"/>
                </mxCell>
                <mxCell id="107" value="" style="edgeStyle=none;rounded=0;jumpStyle=none;html=1;shadow=0;labelBackgroundColor=none;startArrow=none;startFill=0;endArrow=classic;endFill=1;jettySize=auto;orthogonalLoop=1;strokeColor=#F08705;strokeWidth=3;fontFamily=Helvetica;fontSize=14;fontColor=#FFFFFF;spacing=5;entryX=0.25;entryY=1;entryDx=0;entryDy=0;exitX=1;exitY=0;exitDx=0;exitDy=0;" parent="1" source="10" target="97" edge="1">
                    <mxGeometry relative="1" as="geometry">
                        <mxPoint x="1536.5" y="330" as="targetPoint"/>
                        <mxPoint x="1205.5" y="683" as="sourcePoint"/>
                    </mxGeometry>
                </mxCell>
                <mxCell id="108" value="" style="edgeStyle=none;rounded=0;jumpStyle=none;html=1;shadow=0;labelBackgroundColor=none;startArrow=none;startFill=0;endArrow=classic;endFill=1;jettySize=auto;orthogonalLoop=1;strokeColor=#F08705;strokeWidth=3;fontFamily=Helvetica;fontSize=14;fontColor=#FFFFFF;spacing=5;entryX=0.75;entryY=1;entryDx=0;entryDy=0;exitX=0;exitY=0;exitDx=0;exitDy=0;" parent="1" source="10" target="100" edge="1">
                    <mxGeometry relative="1" as="geometry">
                        <mxPoint x="978.9999999999998" y="330" as="targetPoint"/>
                        <mxPoint x="1128.5" y="683" as="sourcePoint"/>
                    </mxGeometry>
                </mxCell>
                <mxCell id="17" value="Drift Velocity of Electrons" style="swimlane;gradientColor=none;strokeColor=#61C6CE;startSize=23;fillColor=#00BFBF;fontColor=#000000;" parent="1" vertex="1">
                    <mxGeometry x="1610" y="440" width="430" height="240" as="geometry"/>
                </mxCell>
                <mxCell id="18" value="\[I=nev_dA\] \[v_d=a\tau=\frac{eE}{m_e}\tau\] \[I=\frac{e^2n\tau}{m_e}AE=\sigma AE=\frac{\sigma A}{\ell}V\]" style="rounded=1;whiteSpace=wrap;html=1;shadow=0;labelBackgroundColor=none;strokeColor=none;strokeWidth=3;fillColor=#61c6ce;fontFamily=Helvetica;fontSize=14;align=center;spacing=5;fontStyle=0;arcSize=7;perimeterSpacing=2;fontColor=#000000;" parent="17" vertex="1">
                    <mxGeometry x="9" y="30" width="411" height="150" as="geometry"/>
                </mxCell>
                <mxCell id="19" value="\(\tau\) is time between collision of free electron and atoms" style="rounded=1;whiteSpace=wrap;html=1;shadow=0;labelBackgroundColor=none;strokeColor=none;strokeWidth=3;fillColor=#61c6ce;fontFamily=Helvetica;fontSize=14;align=center;spacing=5;fontStyle=0;arcSize=7;perimeterSpacing=2;fontColor=#000000;" parent="17" vertex="1">
                    <mxGeometry x="10" y="190" width="410" height="40" as="geometry"/>
                </mxCell>
                <mxCell id="135" value="Resistors in Parallel" style="swimlane;gradientColor=none;startSize=23;fontColor=#000000;fillColor=#DE7A73;strokeColor=#DE7A73;" parent="1" vertex="1">
                    <mxGeometry x="20" y="690" width="300" height="250" as="geometry"/>
                </mxCell>
                <mxCell id="137" value="\[R_{total}^{-1}=(\sum R^{-1})^{-1}\]" style="rounded=1;whiteSpace=wrap;html=1;shadow=0;labelBackgroundColor=none;strokeColor=none;strokeWidth=3;fontFamily=Helvetica;fontSize=14;align=center;spacing=5;fontStyle=0;arcSize=7;perimeterSpacing=2;fontColor=#000000;fillColor=#f08e81;" parent="135" vertex="1">
                    <mxGeometry x="11" y="200" width="283" height="40" as="geometry"/>
                </mxCell>
                <mxCell id="138" value="" style="shape=image;verticalLabelPosition=bottom;labelBackgroundColor=#ffffff;verticalAlign=top;aspect=fixed;imageAspect=0;image=data:image/png,iVBORw0KGgoAAAANSUhEUgAAARYAAACpCAIAAABhxIUMAAAgAElEQVR4Ae1dB1wU19bfRLABKtIsoOQzxZe8GF9EkC6ILcZEDYkltqhPjYXOUhbsvSSxgKixJMYaTZ7G3k3UiA01ltgASwQbVsru7Mx8v3POzHUDmgDZhV2dMVlmZ2fuvaf8zzn33DIqUTkshAM8z4uiKAgCz/NFRUWiKPr4+FhZWdFFAQ+6hz4thCzLbqaLi5PKsil4YVpPCCH8lIQQb3CIoqhAqML0QoFQhbH6n1bEIEQnz/JCgiCQU/qn9SnPl44DCoRKxyfzu0ur1RYL5MyvjS9EixQIWYyYFS9knqJSIGSecvn7Vile6O95VCF3KBCqEDaboBIFQiZganmKVCBUHq6ZwzMKhMxBCqIoKhAyE0GUuRkKhMrMMtM8oEDINHw1fakKhEzP41LVoECoVGwyw5sUCJmJUBQImYkgytwMBUJlZplpHlAgZBq+mr5UBUKm53GpalAgVCo2meFNCoTMRChGgxCbmsVOzITC568ZxOFic+TYJO7nj14zoYgpNjuhhhkHQsUKLfbVTFjwHDSDGEuzSJ/lhRTmm0LQxbhq+NU4EGJTg2keF/tqeGIKwl6oMpnY6KSkF2LMf6HYYmpiidtMkxmT2XUjQMhw+iPP84ZfWTWmpvMFKZ/4SUwuCSFaJkT3KJw3okoYqjQtyzK8YgQIFQMoK12Jzk0qxWIQYkvxCGD0acQGvLBFGZotYjJpOFN7I0CImT3Dk2Lu6IUVgBEJL8beYhAytI5Mukas/cUsivmDkuBh4jAOhAxrYuccx+l0Ok45jMEBncGh1Wp1Ol1+fj7Hcd7e3lWqVCFWG9winRqjZqUMSY2LeQWm50aAENk8KpFV82IarYqn2t/fn7YfqfiqX8Aaiyk5OSIjQIjKNQSSIAj5+fl79+7dsGHDtm3btr4Ax5YtWzZt2rR169YKo3fjxo07dux4++23q1Wrtm3bti1btlQkmzdt2rRly5YKI7YiSStW17Zt2zZu3Lht27Y7d+48NZwzAoTIGhEiRVHU6/WiKF6+fPmdd95RvUiHtbX1i0PuC0WsSqVycXHZu3evKIocxxVTeONAiHWtBEHgOE4QhMzMzFdffbVZs2apqanz5s1LSUlJxYOd0FeL+6T2p+CRmppKJwsWLOjYsaNKpUpMTFy0aNHcuXNL3mYKSqmWefPmmaLwp5aZkpKycOHCqVOnqlSqdu3aLV++fPbs2U+903IvMhUl4S5cuLB9+/Z2dna7d+8WBEGn0xmGXSZZckdeKCsry93dPTQ09AWJmMeOHfvSSy+dPXv2RaA3Ly/vpZdeSkpKehGIFUVx9OjRtra2e/bsMfRCjHbjeCFWHAvkMjMz3d3du3btSk6J7RNoGE0Smi3305AojUajUqkyMjLIUFFahSVXLJpGEhnRotfrBUHIyclRqVRxcXE8zxcUFBjeYOkkM8GxE0EQNBpNJUCIvFDXrl2J6YyzbLzVcrWKWs7wQ6QZQohZjWIpFosm2VClGIQEQSgsLHz+hMuMAhNupUGoW7duFNcxtWNqZOi4LPGcbAEZCFEUk5KSVCrViRMnyNczMlkv0RJpZBsLs3FbkiaDkCiKhYWFz5NwSayG9pGEW5kQKuZ2noOBc4YKFpQWgxDDFemWRZNsaAuIXlEUc3NzVSpVfHy8KIpFRUXF7mG5WUu0GsVoIe1NSkqqTAgxL0QMZfpnifwt2WYGEkMvVIzkkk9Z0BUmLzohlSrphVjIatH2oqRciOpKhtDz54WI0UylGJdZIPc8eSFDrXqWFzKEDXHD8CnLOqf2M19kFl6IQciyWFnK1v6FFyplCWZ+m6FKsa5RyUBO8ULGlCOFMZSR69atmwIhYzK3sssiaRaDUGU3yoT1sxCjMvtCCoRMKOEKL1qBEJvgw3hvqqFVxQsxFj9PJwqEFAgZWZ+f+75QMX4pEFIgVEwl/ulXBUK0ePaf8tFcn1f6QiaXjAIhBUJKX+gfwUyBkAIhBUIKhMrAAaUvpPSFyqAupblV8UKKF1K8UGmQ8sx7FAgpEFIg9Ex4lOYHBUIKhBQIlQYpz7xHgZACIQVCz4RHaX5QIKRASIFQaZDyzHsUCCkQUiD0THiU5gcFQgqEFAiVBinPvEeBkAIhBULPhEdpflAgpEBIgVBpkPLMexQIKRBSIPRMeJTmBwVCCoQUCJUGKc+8R4GQAiEFQs+ER2l+UCCkQMgIEBJEATZwEQU4EUS9Ht4ekZUJ29J369aV5vYKAo8aCXda/iEgGQAfejmzKIoazZPdTGETLJHARSwhDlkm3dR2WbokzZxc2FM7Pj4OdjMtKgJaRfkDqLRcKRtuWASU86i3SRrYinG3vC09EAs0SmpgBAhheVQmnHIcvF8oMyvT3b1xV7YhsPQicGK09GmpOoU7PpGeIIbAOiQl4bb0uCGwnuMMtIj0yVK1iiGI1Ia2Z8rNgd1M4+JoN9NCoA3VCZFkQLqlCVgiQpYV2UGwj0lJtja2e/bsFkVRx+mIFfJdohEgxLgsiDx6IR15ocaNX3mOvRDyl9cLPI+Ml7xQBuypTV6IF+AfGBV0z5amTnJ70f8gFfDB82Afb+TeeJoX4hFJaKPlpy3tL3khtPcoO14AepM0Ghtbm9174BVdOo4jqYogXTAexoAQ6oi0wTQPr+hCCF12f8WdeSGe1wuCnhf0FNFRSy2Nv8gw8uCACtj1HwDEgxdKxm3pM6Rt6XWEHyAWEEZqaInkAv55EQJWolXQA7E3cv6gl6NgIFeAnKCYVqLWIknFWJTib9yWXo80gzInJxoGcloe0MOLIvBCEHijQIhMLXUNeDmQy3qlkVu3Lt2KtDoANegaHghdy4WQHADL1MgvBklMgEDuyNFjej3PgaFC1QMAoYGx2OhGaj+hROD1PKjU9T/+UL2kio2N1XF6fLMD9BkkjliwaMFeYNCA+orWg3q7CQkam5o1d+zcqed5rU6LdgKcAcZfRvFCgCD4R0Xr9RDIXb2S/errb37cvQcZpCIdAkkAN0SHpRoqaDdSgBTzgl6PXmjihEmql6pmXvgd3xei1ev1iCJJIhLwLJBmA6USBJ7jEUL38m6rVKrRo8eKolhQWKDV6fU8hRhoRi3XXqAGgx7LBoHSJ6PHj69d1+lY+gFRFB8XFHEkW9kZlNkLYeRPSkTdSNQSuED+XuQ4eBnl3vTTjp79PLpG/rDzWJEWQAXcBX2D4BLhBoqIPTMWPbMemrnoGlIohW6oGBJvMYQjyws+P79QOzAhpUbTj0al/HAuM5dar+f0yGsiVuIY0YzcMhcan7RDlqckTJSORCREETyv15MJ3HfkbA3XkI6DJq3fc0KLcTsPP+pJB8C2yAcVZb4WhDSO1PCJbQRaRYwveF549Lio2/Apji36Jn21MuuPW8Qu6BGhjeQFfZkhhFiQ2I4YQP4gbsGdAycBJJMXbVP9e4RLcLJb2/gu4Wkpq/bcffCYHkP2QkiNvQTJZJkdemTNQmcNXyRTgbYHu0EQEOvRImTfuOscnOAcnFjLJ9qz15SYGT8cO3tFLgCDOUsxzEwM8gkkiHhIE2GvD+I5URTj526oFZhQxzemQUh8t8j536xPz88vkuhFW8poZyrKrpjfidxGajkQDJIV9CJkVkXh3OXc+sGJ9v5x9v5xvv2+jJz+/ckL12QqBKEcEDLwQlAOmlWqHE4hsMHXcZ48f63Nf7+sHxxfxz/OusUIx4AYz17TxqRuvJp7l6pH+EleiNSUKavcvsr/i/GpBB7yQrKJBfxjKgFskY7TT/56q1tIoktwXDWvMBuvsCadxvRJXLor/Rz1DDGJ8sQyo22ufOqKtYAkIgmUCRZEhPIl8UL8L5zOvOHTe6pLcFwdvyir5iPqtUnw6Tt9yqKtd+49grc/SK6aGIZ2kpSmWH2V+xWBw8IgyZpL/hODJNkLFWm5+C9+dGkd6xQYXbVFWE3PiNc/GPtp3OJfT2byaE/L7IVQEURMr2HASNYJr0LCTaQ8BuQqOI7b/PPp0OgFzT+Z5N5hVB3faIeAmMbtNdOW7CjScpgPphL0kpTMz1TL+kNeHXuZlBeRrTL1KSk6zfzjbnLKev9+05t2GVfXL7quf5RTkLprZNqZSzfAWEHvCOklw1O5CvTU2mUFEiWPQ1YCBxjJYqB5hv6CKOhAuCc7j0ht3mNyw7YJ9n4xjgExTT8cO3sZvFkevJWcryTVeGqFlX2RmW6JcrkLRBASKeFGjbx49XbEtO9b9Z7+2vuj6vqrHQNiHAJju0TMv3H7XpkhBOoO4JNMMJgo4JYeghpI4VJfjNfpOT0mQEVR/GLZ7je6jHEJTnBvn2TnG/NKx+RT6Aqhq4AFMRtQ2TwtWT8oACKcuRzqclKOHnySCF08fZEOUlWiKF7IutU1cqFDQJxr24SGIYnVPCI0c/4nCKKOg0wKsggeQvtVsrrKvIK+Bl0O0ip9lYZHJLHyPKcXeE7HUZdWFMWZS3e4t9fUC0lwa59U2zu6tm8UBuhIqx7iPhCxOVILrCbZQiMhdY+ZaohYITUC1g5+AOHqsL8niuLpSzcCP5tZPzDeLUTj2i5R9fbn32w4VGYIGTCa1AjNsmRgIYaDniWM4MKxZf+ZqOnfNwud6BCorhcUV9Mz3C1EMzr1p/sPC6TUO5ksKVaSA3B62Aw+Sdlxngf7oF6BXgDPBAdNaBJFMfuPO18t391hWKpru/gGbeLt/WKqtwh7b9jcw79lgRbxerTuaC7QkpsBfX9qAloLlIekRjgUJEcLesoFobRh+JjX/7DrxNBxK//1wbh6beLrBaurthj5aqdRU5dspVgONIKCDLJCf6rKDL7IAQZ038E+PBnnEwQO2w7C1clu4LeLOVOXbG87ZLZbuwSX4MRa3lF1/aI7j0y9cCW3zBACtkimSs+LmKMWoRXgg6SJcMCgZT+lh0YueLVTsnWLMHu/mFq+0W92HT9x4caM369T9wAsFPBYL8KoK5kBM+Dsn5uAfIYOtKQOQDg0nPSJ3fvbxT8ipq/16TW1tk9UTa+ouv7RdfyiukXO3/zLmdw7D548TiOtyD40gKwAczmR7SMzi3peBMliikgycIVa3fzv93eJmt+oraa6R4S9f0wt7+h3Pho/ffH2k79DPxtGLkgtoTjwQPDPzA5sEERq4HxEsG4gVZCvSAJm7T129lrk1DXvdp9Y2zeypleUvU+UQ2t13+Rvftp7Mu9BvijiBB8wE+DSsAD26DNO0PeRp8f7eZGGQOj2G7fup67+2affTNe2yTVbjqztHenWTuPVe3rqyn25tx/JnIT2gp/EBmPlGHZiG55RrakuM8LZyZ9qokZCE6nJnCBCqpruKdJyh05lfRyz4PUPxtr7RVXzCHNqHdukU/LA0cuOnr7yuEBKUnF6HY7wI70Q6yKjzUCpGMnsBNBO7QMJE36guUTvjVt5Xyzb7d17WoOQuJotI2p5R7q2TfDuM/2bDYdyb92jeyCZJMmWiVjSrj8xtgK/MOrYCVSOUiAEkQaiGRcEXgqgCop0uw6f7xW78I0PR9v7xtbwinAOVr/ReWzsjB8yzmUXarUyvQZDq6wCdvJUMokfcA8iQLqZF3+7cH3iwq2vvT/W0S/GzjuipmdEk/dGdY1c8N2mwzR0QO3m9BxqI874AShR1wrzprKonlrvP7/I6GInf1sm+VskVQ6RMazPufNgw95T7YfNdfSLcfCPre4V7txa7dFzWszM76/euM2K5TjKT9JkBTToqF/IQxNiiBHITliT2BV2Qj+BkcApjjAggojXY8pEFMUire7M5Zz42Rte7TTa0T/Wzju6essRTT8c90n016u3Z3A4hkHOB4b9sBdBn4hHyeeyBlTKCRHLnISEaXSPkkXDOI5Cg2u5eSs2H2kzeDZEE/5xVVtEOAfHefedMS5ty/WbkqWgUBZ7/zjBh/JFIG2Dg7GYVS8TDxeodswx8bfyHsTN2uAWEl/TK7xeUEJdv9i3Ppo4eNx3G/eeksUDOKEOKaZ30W2KGIJKV8GhVYATYnVgHwao5UjNMRGPbfhTO9DlylZV4Mn/rN9z0q/vDKsWIxwCY12C4xu00XQcNnfO8t037zwkejFCxb4AuS7sRrHvlMyryECupHyldiHHiWq0y+RzMWiF4A3Gva7l3hs5eXX94Hg7HzDD9n7qf4dOGD5h1S/HL0v6gKIF7MCBz0pxLyelikhbZO0x4l+SJrWffaIjxdHJPysz3fBnFMkPgSqCRmi1umWbDjf/ZLKtZ7hDYIxLQKxb26TOI1NT1+y9ex/y9eC8cPATjSJafwG9EI2XlaStWK10A7QbBwfA4GBIs3LTYWuPEfWDEtzaaZxaJ/j2nbr7CMxzEUURFRTcDvwHwEEkQbmylwejBSVh20xlmBmviYMMSNRI9vkUelH8pBjYeH2BVvvORxOqeYS7d0xu0CbRpbVaM+cnuAsOXsfRBFO0F5KPlUJACVfQT6DegUmIZZTK2vHMWlhsCs1EAIBdJPlg84t0ENJ8sWxPlebDG4TEN2qX5OAf02bQVyfPSwOLWp00GVCCDhSDM8dQuHK0Sv2NZzaDMb98JyVFWfIKlczolTkj6QIGrjDiIIritZy7LXtNqdkqwr1jYsM2iQ1CEscv2Cw9LgpaTovsoZQ3dKJAdXnZC/3yyy8pKSnz589PS0ubO3fuDz/8cOPGDVa3IXmo/YQ/9NuCcCXnbsigr2r7Rjr6xzq2Vv+r67gPw1O/+HZXzu378oM8ZEGhRg5MOXbggM/wH6FLKlW+35h/S2qVXq/fsWMHo3fOnDmbNm169AjMDEMRtYACOWwpphD0PKfXT1i4xTEgtq5/jH1AbP3gRL/PZgyfsHrP4Ytyo1GVcGa6IHConmREnhgOcuLy/cb/y0gm43jz5s3vvvuOhJuamrp48eJDhw7RPcwd0Z1SE4ELvE4HE7V+PXX53R5T7P1jHAPVDgEx74RO6DwibfaK3Y/zC+R2A09o1QfYQpAodofIXGJ/WTYx8hNG+svIJKkxWk6ePJmSkpKGx9y5c1esWJGTk0N1snvIaUqBOvgCmLFTpOWmLtpeLyjewU/tGBDXqF2Cb7+ZIyev2Z9xiTWZ4hesEcvg5b5Qz549q1at2qhRo4YNGzZo0MDV1bVOnTpDhgzRarUEX1YExbaYiaOeDIyHPHxU+NPekx0/T2nUTmPrFV7NM8ylTdx/QifEffG/81dusbS6VscBs6V0J3WDMAFPPDBZJCcXD0ZDFMUHDx4EBQXZ2Ni4ubkRvW5ubnZ2dpMmTSJiSTYMUZQwhPge/AfYguxrd2Jm/Ni0yzinQLX1uyNr+8Y2eT+584jULb+cvf9I0i2dDgbH0CKTxUK7A5GONGuOsdSIJ4Yth8UtCIPdu3e//PLLzs7Orq6uJNz69es3bdp03759BjSCOZMUC2wGBtu4WuZhftGKTYf9+s5o1D65ZstwqxYj6rdRv/PJpAkLt2TfuENTnEQY+MLhclIusByQuUcVQRgZkUi5KEOxUrBK5MfHxxsqc6NGjerWrdu9e/eCggImX3qWbCYBn4jX6/mM81cjpqx5/f3Rdf2irN+NsIeRzKTQqAV7j55/kF9IlUMPADsiAgVyDx48aNas2cCBA+W2QQA2Y8YMlUo1Z84ckgT7CVoJKkFhmeTO6FdB5PcfuzwgednboeOrtxxp5xNVr3W8W4ek/4777pfjlx4+lqrX6dBUAY9Fnucw7wmabTpbRfzieViGIAjCuXPnateunZaWxogqKCgYMmSIlZXVrl27aM2c/BM8ir4J8+/oNFnWI+/ho3ELN7UZ9JVLkLpaixHOrePsA2K9+85YsmH/hSvSZFOcxSwN2+HiIRoGgDLlKoz5l3SIYUGHwdjChQutra0zMzNZTadPn3799debNm1qaCKBVAlEOLxHYR2mT/BBfvvBc58lf9e0y1gbz4g63tFOreMatE2InLH66OnsQq2UftTpgMNQEv5HH7R8mtVuxBOil2qkc61W26JFi9DQUMNa5s+fb2VlNWXKFDIZCHAaIhdo5izmxnBinCzd7Jw8zdyfggfNdgpS1/SMcGod5xCo7vB5yvKN6ddypElqWj1MXYdxoaNHj1avXn3FihWkZBAYorV2dnbu3LmzIAi4JgTaKRktsqeYTRN4GGTEmJAXBGmEPuPcVc2cDZ69p9ZoGe7gF2XvG+XgH9sj/uvlm9Nv5UnTqDAFguYOnRKFUIZkG+v8SbMFgTRm48aNKhVQzfO8VosLE5CpVatWjYqKEuTboAGgAuA0qCeDlhk/JBYBQx4XFi5ef7BXwuK6/lE1PMOdgtTVPSLeDh0/8eut6ackrUVfhN0/YCwKTxaVscg0LIdUigGpd+/eHh4eDx8+hLFCnU6LCdl58+bZ2tqePn2aTAZwifQdswiSO4JxRxoKkxy4KIq/ZlxOnLvh3U8m1PCMcAxQ1/KNcfKP65e0ZOXm9IePwEqSMtDIPtJsQi9ECkmfRO+dO3defvnliRMnwgz6/HyO42iDlICAgGbNmhkqAwYD6AkgkEP8QBGkzTDpTBTFOw8eL/rxQJfItHrBahuvCKeA2GoeYb79Z878ZseRs9nEc4DQunXrVCrV2bNnDcVw+/Zta2vrqKgoURSJ6dRQ8hUwa0PUizS0ikYHmS1yvF4rT3X5PTv3m58OtR0y29YrqkGbOFuvKHvf2OBBXy5dfwhzggA5aDgIz4Q9bEMu04ramTNn2tjYsM4eUX3w4EErK6sFCxZQFoQu4uABWA5M84IjQvuKgMK4rgiXAUPmV6fbcvBM+NTVr3RIcg6KcwpSW707oumHY4dPXnk99x4N2CESaTTAhC5XajnGZbCep6CgWIhBNwwcONDOzi4vL082yeiCyDjK+RMEEkbaYEggIanDjTFEUfzt0o2073/x6TPD0T+mYduE6p7hjv4xHYalrNqUjmVQP1lyRYZj7lS7sT7JWFAWjux+RkaGSqVav369YRW3b99u3Lhxnz59DMEmPQu6RwKl1qIHBmZw0AHBWOHew4LN+3/7fPwKt3aJjkGxjv4xNT3D/t1tXNT0tbl3HgCEpk2bplIBkA4dOrRnz56jR4+uXLnyrbfeatSoUXZ2tiDAhFEWRJK7wBkRUkgnr6ODHChaIIHjdGzs6d6jgu+3ZbzZZUzDkIRXOiRbtxj5eufR5y7lQrE0KIsIRD3F9hqSboxzQ8ND54MGDapfv/6mTZv279+/b9++jIyM1NRUR0fHVq1aUbhM6dAnuoXxDYBd1EnhCbIDVwEA+wuLdHpOGm+9cOVWj7hFDoEx/9dplFNgrKrZ0PELYM6LjkP+0CArIMgkxBLDiEyaMp+bm1ulSpXPPvvs5MmTO3fuPHDgwMGDB4cPH25tbT1p0iRSPhIuuVqmWKBQlOyBpJoEBkgzcFxhkTT+ePveo6Xrf3214yi39olu7TRWLcLcO2jA4sADYG5EYBp0eo0hyeJlFJMsfV2yZIm1tXVKSsqhQ4d279595MiRDRs2tGzZsk6dOuRyyVlJnxSZU68cRYsjWlK8APPjOKGgSAv+AsAnnsvM6fB5Sr3AePeOGpcgtarZsO+3HwMIffbZZ9T9cnV1rVevnrW1taur64ABA65cgUUvxFMaQmEgJo7KyW0UAbZGD15IC9N2YBcO/vLVW19+t6tVn2mu7TROQfF2vlH1ghN6xC+9ez9fgHlWhH5ktansMtKONNBCpry8PF9fXxsbG3d394YNGzo7O1epUqVJkybx8fG3b8OoKEWzJC5c/wQaJJsmYgYlRaD9HI4s0c137j3ecfBcH823r7yX3DA40c47um5ATPPuk/635wR2duXgCMkledODxv2kJlL3WhTF48ePq1QqJycnyp3UqVPHxsbGx8dn7dq1JE0aGaM2kK3ENADOuIeypPQPZlM4rQ7296Luceb1W7O+2/tO6ES3tokOgbG1WkU2bq/pl7QUtEGGnNThqBAIESpGjhxpZWXVqFGjBnhYW1s7Ozv37t3bED/EHExnywRCo7GbCo3H5LEgaDl0RMiam3cfbPz5VHf11006jW7YJq6Wd4xT67jm3ScdOpUNEHrttdf69+9/+fLl8+fPnz592sPDo0cPacE2NYu95Zi00IBHtOoB2c3DBHhyfFqtLv1UZvxX//u/90Y5BMTW8Yuu7hH+aqfRn8Yv+d+u47SFhQQfmEwl6RZFn8bVJyqN9JWscmZmpkqlGjdu3I0bNy5evJienu7i4kL2mDhLN9+8efPSJSmVCTNE4Sr2tTGjiDDTczpcgSuKV27cWfZTeofP59bxjXEMjK3pFW7vHx048IuJC7Zm/UGwhLF+VG6ckYWlmYJSVia5UFEUZ8+eXbdu3W3btmVmZmZlZaWmptaoUePkyZPyqJ1EwoULF3JzIQUCU8XklkqChiu8FiMRnKzA/Xz8QuyXP7i209j7xtr7RldrGfavrhMGJn+3aR/0rIBREpfArModStY0I58wk0GC+/e//x0cHJybm3vmzJlLly4FBga2b9+eqiRlJiuJV+BRGv+VHAXEoDDKrtNzWq3Usf89O2fp+sO+fWfUbBXu2DqmZssoe/+YkCGzJn+9Pe8+rCIFCFlbWy9cuBC4UwR5la+//lqlUp0/fx44iIcoiunp6f369du8eTOsMNPpUB+A1YgEHtKZaGke5Res25UxaPRy9/ZJNVqOcAqIq+EZ3uyjCdEz1+w5fIEoQcBxIBZAD3ziKBU038jcNSiOaBFF8ejRoyqVatu2bSzzlpiYWKtWrTt37rCoZurUqd27d+/bt+/QoUNzcnIIMMQLKEcvcHLYduL8HxMXbPb/7MvqLcMc/dV1fGLqBsR+ol60ZMOvefelyQpo02CuJiSmQDvlabUGzTPWKekTix0EQRgyZEjz5s2ZEXz8+HHDhg0///xzFp9nZmb26tWrf//+PXr0mDt3rsQEFA3MAIZpClIY9ii/aPnG9P5J3zoFqm1bRTsGqmu0CgfVPJcAAB/XSURBVGseOjE5dcOvp7KIBB2GFshtdF9oLEg3jEUjK4eKpU/qCHEcZ29vr1armXB37typUqm2bNlCXXrZ//CXL1/u16//vn37BEGEOUpoyEVBz+N8FariwInLo+atb9FrMs5+VNf2iqzrp+6dsHjp+l8fYnYbFRcXfqtUqs2bN/M8X1BQoNfr8/LymjRpMnToUDJUgiAsXbq0Q4cOb7zxxrhx47ApRaj5qA3Y0RRF8f7jwpRVe98bNqdhm/jqLSMcAmNtfSK8e8+Yt/rnM5f+kPjLYdSAjl5KfZBtphwVFGWqg9mCJUuW2NjYZGRkUMaG5/kTJ07Y2dnNmzePhLF06dLGjRvv3Lnz9OnT77//fkREBPZkOLKseoxRRVHc/uvZoROWv/3xpGqeYbV9ImE1YbtRA0d/u/PQ2Udy+l4Ls4dAnfB/sDhgLLAjZKIMviF4iJX/+c9/QkJCKK1KCcmZM2fa2dlduXJFEISioqLOeJw5c2bjxo3Nmzffs3uPSFYSU2sUGtzOe/TFtzvaDp7l1Dq2asuRzq3jHANifPpOT1u779xladSSg70iyIPhk9iBxLmqQL2p5IodDWb7zp49W6NGjfnz5/M8X1RUxPN8YWHh22+/3aNHDzaTiyKpHj16qFSqxYsX0/JBbCJECtTOXb+eHTjqu399ONbq3TB7X7VTYGyj9okRU9fuPXIxvxCzjoKg00rbJ4AXcnJyoqBFr9dT8i0iIuLll1++e/cuadXBgwcvXbo0fPhwCni0Wi12FmEcGvrIev3kr7e36DHFJUhdyzuyYZt49/aJIf+dtWbb8Zs41R9NAoR5ODuB7BsunkEvRoEz9blMxGhgEEYnoij26tXLw8MjPz+fzLBOp+N5/sMPP6xXr15RUZEgCOnp6UePHqWWLF68OCgoCB+HEnBcWDh67uoHkWmNOmhq+0Y7+Me6tUtu+sFozZwfM85fpY1WKEFHa+zALaCFk/9gLxIjJVMQy0wy0VtUVFSlSpXExETK1FNX5/Tp0zY2NuPHjye27N27Ny8vjxrToUMHckRFWi1tyvPw4ePxaVvf+ni8c6DazivCtV2ie/vktoNnr9t1/M49aTMMnV6vpX2/wMnSqkLZHYLZgFjJpMSSbxFFce7cuQ4ODmfOnCEvRPTOmzfvpZdeoti1oAAGvufMmTNo0KD33nvv22++BT8BwzuScHeknw/571fuHTQ2XmGOrdWN22ve/mhccsqGi9duGc7Qh0ViZBBpgs+qVasohGOqlpmZmZaWduEChF7kIkVR7Nu378SJE6UcN4430mqzlVsO1/KNdg6Mbtgmvn5wQotPJm45KOXHUU1hKxtJhTGYIZsMS8QxsKEwVDLNpuC0nBGhsteuXbtx40Zmt8gmZWRkzJo1i2kS2XKdTtelSxcaj9PptLhsBpZ2ePaeXs0j3LVtUsOQhAZt4iKnrb33UBo15nEnSkQrTvyDM+ykUrZSyv8A2abTKkIRfd6/f3/evHlnz55lkqWT9evXr169mpmVhw8fnjx5csWKFV27db144SKMNnBcAey7JMxbs7+GZ1j9oPiG7ZMdA9Uhg2exgFzEnCo6HprMA9IGCEHWUY9ntHkJ5ORMcRCNJCzS0gMHDixevJgGlBnJN2/e/Oqrr86cOUP3Hzt2LCAg4Pfffw/9+OP5aeCvOD2ssYYtJm/eb91/RnXPMLd2Ca4hCa+0T0qcs4FNRef1fBEH0wIkm4gqywtP2xCYtYw1jlrTr18/ghBYa1zlR1b5xPnrHj2nWr873ClA3TAksUmHpGETV/7086lH0q4ugpbTAcihQy33fTDdCeBBoywpuSnYbFBmMbrYL8WukzAeP348YMCAnj175ufn47QomD8KP/HCiClravtE2XpFNGib5BIUFzJ4bsqqPacuXqcCdZw09wNJg/yVtB5eyj6iA6J+LGtBJZ2QH+Y4LiMjY8CAAY0aNZo8eTJaZejQ6CAGFXeln/PoOaVaizDHQHW9kIQ3u4yNnLZ2+8GzDx7TdAQBwhk4SK/YDGbYLwuvmXT+8N8zzlC4FN1169Zt+fLloii+9957K1euwCidenD8o0cF0TPW1fKOhGCqbYJrW03HEXMXrN13PluaawLC5cE4gFhp1J3N1KaaZO8Luk35KxZb8zzfr1+/CRMmUADNCzDMQZuQwEDbhRszv93p339mTa9IB79oG6+IWt5RoVELUtfspV1dsBwMlCmQgYQwLuoiIw3Vm3CohNFFzoesL11khBO99Hnnzp1OnTp17969sLAQ1EOeDQWrMUXxcX7Rj7uPDxj9jUuQ2tYzwt4/uoZn+H8+mRgzY92B41ISDwrHCbXAJUo6isQxckG4NOfvFaDMdzBy2EkxOTKzyFwQxTwFBQXHjx/39vb+Zuk3GGjocGQChHT20o1Ji7d49Zpao+XIOv7RNb0iHQNjQ2O+XvjD/jx5YzPoFlA/CLQCAwtME6GNROGWmZS/f4DRyOQroRmDR3aRpRBEUZw2bdqbb765c+fOzZs3e3p5Dh8+4uLFS7gqFwJXURTuPS5YvfVI/+RlDgFqW+8Ie5/I6i3DW/SaOiplQwauyQUTgylKCqxENs30We0l/0O/fvbZZxTVwBx3TMGR7aHtS2EH05y7a3YceT8szdE/1rl1fFWPkXX9YwL6z9DM/pHtYQfeHx4jrSSS5RkvJgmYn0VZ8etEKbmg0NDQ8PBwwzsoiwgNh+08oaFFWu3h01cip6/7v47JzoGx9r4xVT3CmnYZ3yNu0bYDp9mGCnoRtgCl8EYy1pLVME1wY9jovzwnSq9evTpt2jQaEBNFcciQIQMHDRREobCwCE0k7FNKxWT9cefbjUdaD/rKOVDtHBhbw3OkU2u1f/8vpy/ZdeXJKkNeBwaDdhzBSWK48TTrpv9li0z4IxErCMKcOXMGDBgQExMTERHRpEmTVp5emzZtwmEu2OYX/Qo0o7BItz/j0oip37t3SHYKiLXzjrTxCn8ndHyfxG83/QyJezpQsPJMbfli8b9kw3799dfVq1cHBAT07Nlzy5YtlO+WDAyyjDPY5SS/QLvv6MVPor9+rfNYhwB1da8wh8C4VzuPHTJh5eEz2Vqc+AimCr0hJBjgBMMbGlQq3oSK+06plGXLljVs2HDlypWbN29es2bNvn37aIogmR4abNXBJCbsJ/P8tZy8ad9se7fnVNeQxJpe4TbeUQ3baYIGfLF6y1EaN5D7XaiT6J7ITlccYU+ribzQo0ePOnToMHjw4IsXL/74449NmjRZt24dG7dAU6fnOAYk4eHjwg17ToTGLn7lvVEO/upqLcJcWse+1XVc5LS1J85Lu2Jgx4g6gVLUaqLZCU8j6+nXyCORlSwoKHj48GF+fn5ISMjcuXPlSZI08QrGytkkJk6vv3z95vhFm97qOq5Bm4SanmF2rSIbtU9oNzRl1dYjDx9LU/IhI/f0avEqjSfMmjXr008/HTFixPDhw/v06bN7926c8oEuG00rNk7gYKWjNFQH4+Lnr4ZPXfOfjyfW8Ymu6x9T1z/W3j/6E/WiX47B0hoCESJJ2i+zchFEHQNRFH/66ae+ffsOHz58yJAh4HinTn3w4AFxH9uMQT6m+JBYid77jwrnf/9zp+Fz3Nom2bWKcgpQ1/GLfveTiVMW73jwqEDatISSvWQwKtkJgXQplXL9+vUhQ4Z4enoGBwWtWrUKRIMhGTRWygJxvIDbG8seCYR79urQCSve+mhCbd/oun4wGlYvKKG/ZvmR01dhgA8PSbigv3+hYhXxE4OQYWVpaWnp6enEB5oyjRMUYAcsmIsjL2gXRfHu/fy5K/cFDZjl0ibOzifcwV/t4B/9bvepC9buf1xQ9DcQotDZsGI6J2NK/RqwrvI/Ui36JDt9886D8Wmb3UISG7SJb9RWY+MV2bTL2ItXYMwehlcl4qQAumRFFXzl6dLG2buoCRilELGSnuh5AdLiOAwP3Np37ELQoC8dA2NhTWtQnI13+JTFNEcOukSwPhdoNdW0sdKzi3Ukij0iSRYm4JNsaG4TiArJhAwcRncAi7v38xNnrW8UkoAL4BNr+Ua92mmUHJ5gPgWjOnm4pVhVFfeVEUumkD6peplI1EWI1/FHaS4JMyKSwVu/95Rvv5n1guLqBcc1CEmwajHyx13H/wZCVDfsRqeDZb4cx+l0OlwNgfNxYRUq5AFQg7AxoCEQm1H77j/KX7316H9Hr3DvoHFpk+jcWl2tZViX8Pm5tx9yeh6SG6B6oJI41FjJxoqIpRUBRClRDToB0TQOJcPQKrSapvfilH74meg9evbqhAVbWg/40ql1bP2ghFq+Mc6BMcs3wygTTGiQDIY8HFhxKvT0mphicRyn1Wq1JFkUCbhNai6JlvlfhBEVd+v+w8U/Hvhs1HduHZLrBceDcFuEhUYvlKf0oF0h/ah0N/Q0lkuLeiixRkMsYDYkIcHIJ/Vh5eho39GL49M2e/eZ7hKcUC84vpZ3RMOQhJ+PX/gbCDHeM3ajtmPhWBkBBnNzsHMAeR60Tw+mLd4RPHB2/TbxVZoPq+sXa+8f49N7+rcbDuXiNh0cdKIoyQ6jVNRwVl0lnjBKwafIY0rYPPQ+2IWETSj1kKmndgqCfvvBc58mLH2zy9gaLUfWhMkZ8fXbxkdNX3f4t2x6lwaRKM1NQLtTiTQWq5qRjFZQEgUGn9KEa3ivEL4WhR68dvPe+Pmb/fp94RyorvafMHu/6LqBsa0Hzvx2Y3reg3wyODi9G03N09S3WANM/fXPBIKlRkqlv/hF+kC/I+hxsJVaxXH81oPnQqPnv/7BuKoeI2t6hdUJjH6lQ1LMF+syfr+qp6HVMhFAdVOYi/EbxCc6ecIlp9Ofz86Nn72++ccT6wcn1PCKtG0V/n+dkjoOSdmx/0xBobS2kS3/BnGxaM4MbBWxwpDjtGcLeViCAU5kkcBz9/7jVVuOhwz+yq19Ek24rNcmsUWPyaNSN2Zdv0XlSF4LE3E47IhBn9kQy6SPNMIH5qelfACPAQjdU6jlMn6/kjBr3RsfjHGBlYUj7f3U//deUreotK0HzuQXSluryfIEpYQEJkaErBYzOWHTX9lqA/QNeh1YRikayrnzYPnmw8GDvnJrq6ntE1OzZUSDtglevaZNXbz9j5t3mQBL64UY5RhyEaNB+dFbQxjz4HHBviMXh09c5RAY4xikru0dU7XFiGahEwaO+W7/cWmCKWYRoLMK8/kAPWDNUS/BD8kOk1VlBic4hAa+iLp9tMcatuvs5ZzUlXs9ek51bh3vFKiu2mJEg5CEtoNnz165N++hNPMFe+YUD1ABZHlAqSo9SVWSuUAmmmfSKgzPpT7b/Yf52w6e6aP5xrVdomNgrG2rcJtW4R49p4RPW/vzkScrNbGbhHYDPRnFGDQXumR1lXsFBUBqjJqIU8spGSaIwulLf0xbstWj+1R735i6/tE1WkY07pDUOSxlwbpf8gskS4HCBbGWA0JoVahe7ARxnH7VtmM9ohfV9o6q6R3pCDtyhLX6dOqYtI3HTkuv2dHDcBR5eEkbIcZG4EMvQ44OK5etJWsnXadlDiLlGwXx96ycpLkb//XhmOqe4U4BcdU8wuoFx/137LLVW48XSJaYLIvUI8dulMQvsMsUPpSsrNKvSLl2lC9QAFOTHucXLt98pGvkwlq+0XV8ouv4RldvGRE08KuJC7dcyL5JTZaGCVGg2LXFaftgXjH7gp3dSieueAMAPpRXBtFgrwdiz/RT2SMnr2raZUzNlmHOgbFWHiNf6ZQ0eOx36/eeLMTl2HoBFxnQEzgeU3YIQe+fepowaCSK4o97TtT1janZKtK1naZeULzXp9O/334s+wasHaDlJTqED7QSnuNhJ24amaXASDIIrBtVnNhK/C7xGa0V+lt9fmHhhxFpqmaf1w+Od22f3CAobnTaT+mw8TywQs/Dok7yzOjAKFUC2gQ8B72E7VbIk1ciXU+tGl0QdQlg1RAt4F+97ZidT7StT3TjDhqHgLj3h6f9sCvj5l1pezNIQJBwMSDBN0kilTizErlHxErplqfWWykXET8kVwy00cTdvp/faUSq6u3hriEJDdsmvvp+8uiUDacu/EHv/dbzMGQEaz9QnjAug+FgmSGEPEYdwKmTgiD8fPRio/Yap8B4h4DoBsEJr3YaPXb+pqwbd3DvK1QcADzG1ixSgCtAACmWpFJSCFopLH1GpdhOXGsHuIDtxvT690fOs/eJcQpUuwSrGwQnfhiWtv3QOfQ/oCiyu8HZpTKFEKVSJhsjHKL9GVVW2mU5kJO6CbSB1qqtxxpj8ObUOrZeUNzbH00cl7bxj1sP2awFyAmRRZVFiilaFC7rBrF+Q6URV7xiVDlJl2F5Om5Jf/f+40/UC218I5wCY+qFJDZom/BJ7MJfjl3Crj5FDyg/TM6iUgOFZYYQaD3NsYNpctJyrF9PZQ2dsPLVzqPhJQ6top0C49zaJfZJXHLoVLZknsClE2JIQuR6nuARQ6bidJrBdwnplMfGoUX+9oP81NU/+/ed0TBEY+sZbe8X4xys9uk9bf73+x/nF1FIAIZKpLWukI/A5B6ZDewEIfVmQN2fmgAWDLuksqQgGYC7MWb3UC967f3RtXyibLzCHQNjG7fXDJ+04rcL13D+IEzARRBh/CZjB62lTOyf6jGPL1I7wWdKpzhHLu/eo8lfb27Ve5pLUDzsPxWorhcc59Fz2oot6Y/yi7AzgvNpsFeCD5YdQhg/4tAg7lyJM7YlN302Kydxzv/8+86w8Y6x84m094l0DlbfzoPFmzg/U1pUTI4TbZ7kd8zQ/ZCcKVqWPrHTBh946Djdsk3poTEL3DsmV/cIcw6KU/178KSFW8BbYZaFMiXUy5MNhGzooQRzJBrnwOJkEUwdoqGV6D18Okv95Q8+fadXaxlWxyfKrlVU0w/HnL54XRTo1R40/wkwCCb2CXbIAZkdsXI4DYPdMprwHY0oXK1WN2/t/g8i0uoHQ1/XqXVslXeGTloEK521RTro5OHidtDkcnkhdB3YI8Iz0Bh485k8ISL7xp15a35pP2S2a8cxb4VOuXv/EXYCpMAG40doM+iQZOJJweDT3A45zYHZe9ANnGHAwwuqaFCIF/htB86GT1n1dujkWn4JM7/dRQN2tEwI13eANskE0zkCyPyIZd0DCDSQQAhYgAYYZybRZF+/OWflnvbDUmr7Jvj1+/LS9duwNwu8wA/XiINECUGyiTA/MmUdk2RCc68MrB5sU0p5bb0eXkM2YsLq1z4Y6xCkmbNsByxT0GnRSFIfBARa5kAOVR84JcJe8qBjoCCwuSk4Gfa+xIxTZ93+5R3a+78c5THk9x8heNBGyaSY81+JPgqAJUrBBgFCeE6ng5efYPuF8PixL9m6ZZz8DSciwNgCxm30B1hkzmQatA1WA+L2gJj0wZQadmShH8iEe+ZitqpmA7VmPFhlHayvRh3ADp/kgQyKNMtT1nGjMA5AAwd9wo4RsMgSA3dB4IdHJTu6vbX3lwO0uAg8mCxgsXxJbage6oKwH5SJutBor3jYChRU6+qVLPdGDbp++D4tw8CEFEU40gQZs2Rs8UYBfWCJkb04BwS+gxPHvBPMUeB0sOmXODo5SaVSZWQch9Eu3OwGE/7wJKiXGXrY4rSi3yBCwTLjmTSJEb9AGAH5Rh2nv33zpkqlio+LgS0ZcKNqXL0i21NLMBckFiRS2sRHEjNJnBRbEAp0MAo0erSmZjUr2FUCX1YCd2Kgi5ItuxeiWlE/SLWoM6nHrUnBicP2dYKQmZnZ2P2Vrt0+QjuNCic7S3RblsBmaigSLPVwkGKEDwFE3oZIEDSJo1SqlzIyjiOX4S0aaDVk+FkEudhIwjsSiqPekoORt55F4d64cUOleik+Ph4gVFQICGN9JwuxF1IfgsaPQcRkF0GgGL1KL+MgS6LRJNvZ1tq9B/Zbp802EEQk3HJBCDM3WC1YMuQZZp2wPpHTQ9yclZnp3ti9W9duEMHBTaB48FdaR28ROiWTJ7WfNuakdRrYk5NhIoqiJkmjUqlOnMgACOl11CWQolykv6TRN8sr5C/xUzqV3SgQIy1mycm9oVKp4uLicXVaEXaYaIE3iBUUwuwPaqQUuqFe4hVQYRZikbcQRTFJo7Gxtdm9Zy9CCGdRA3OIQWWHkKE+YB1wQeogAeOgcymKYmZWZmP3xl27dZUDOWIu3msZTEZiUBue6AQyDRVEYiANmiKXKZA7AT0JDoecZYothlwDwsBIY68GiSARo/1Dg5ibkwuBXHwcDJ3TplCyPllOr89ALGjqmGIjGyQbAM4V7GOSra3tHlgmBy89QXbQXfBkmdMJDL6yYiFuSbfwEq15zsrKkryQNKMF8U2CQeWU2mj2fwzplXCDDljSMPK8opj0Jy8Ec8+pDyQJylAsZk6ypBtoFSVleUIMzSLLzc3BvhDzQsQYKTBBXTBzIiXEy+Ec6iUCSSaVPJBEUZImycbWds8e6AvR21/weYnQMkPob3lDSSqAkLt7t27daCCFFPFvn7W4G4jT4IWSwAudOIFeSM7vWxw5f9tgkmZuLnkhgBBtn/a3D1roDaS3SeSFEEJsX1hGkQIhxorynCgQUiCkQKg8yGHPKBBSIKRAiMGhPCcKhBQIKRAqD3LYMwqEFAgpEGJwKM+JAiEFQgqEyoMc9owCIQVCCoQYHMpzokBIgZACofIghz2jQEiBkAIhBofynCgQUiCkQKg8yGHPKBBSIKRAiMGhPCcKhBQIKRAqD3LYMwqEFAgpEGJwKM+JAiEFQgqEyoMc9owCIQVCCoQYHMpzokBIgZACofIghz2jQEiBkAIhBofynCgQUiCkQKg8yGHPKBBSIKRAiMGhPCcKhBQIKRAqD3LYMwqEFAgpEGJwKO0JbUlB4GEQ0mhoH7nnefsR2HUN92Mquf3Ic7y9DO0tA5tgmcP2I0zhnhuOM4pK7uDDfrJ0YpnJgC3ycHOinBzYBCsuDveRKypiBLKT0loj87uPEctOzAtC5sex8rSIMZesMn0lL5SRAbuZwtv/cA/H8pRuZs8wYnGnQoEgZOiFCmkrRjQYdI+ZUVCG5hgSS7TQFXPZBIuscrFWloE+s7mVkUCvA6DYpmQg9/x5IUZRSS/EeGI2UipnQxgh7MS8vBBu7g47rJLalZNK83iM9IlQxLZiNPRCTOFIGObR6jK3gqggf8vEZwihwsJCus7uLHMdZvMAI4HEyiRYyV6IXL9h4ywdQowWpliw7TKmEwwhRIph0fhhgRkjuWRfqLCwkP1qGPyYDS7K0BCy7MwiMJNRORDKzMx0d3fv2rUrh2/A1uOBb/yF90/Qq+CoiZb7SUQRgQSh48eP8/B2J53lElWs5SQpvV7PcfA+MvqKL0dRqdVqnucLCgrYr5YuWUYsUcro1Wg0lZORa9y48ccff1wGI2DJt44ZM0alUv3++++WTERp237v3j2VSpWUlFTaByz8vjFjxtjY2FRCUvu1117r2LFjVlbWlStXsvG48twdjK7w8HArK6utW7devXo1MzOTXc/OzjYp0ZcvX7506ZLpqqD2EznZ2dkkzaNHj1pZWY0YMeLatWsXL15kv5KgTdeYiiyZCM/Kyrp69WpYWJi9vf3evfB+oYrYlp7quHDhQoMGDVQqVbVq1aytra2srOiTnVg/F4cVHlWrVlXJB6OXfmK0G53cqlWrVqlSxcHBwcXFhbhq9CqeWiDVS+TWqFGjIqt+anuMeJEpJzuxtrauXr06Ebt9+3Z6y10xn2rk2QlsqOTWrVvjxo0biseQF+AYOnTosGHDhgwZMnjw4Iohd9CgQVFRUU5OTiqVavjw4RVWL1U0bNiwoUOHVlilFcPSv6glJibm/Pnz8CLdEoN+xoSQYSq9GFKVr0bnACXH/Pz8rK2tjV64UuBfc4CSkHSPcSDEwMPym8qJ0TnARnIpaVZUBG+r9/b2rlKlCkuvsyjAcGTD6C15AQtkzGe0s4y/cSBEcGSlsxNFkIwV//DEUIQEIRqQ8fb2trKyMkSOYVb6H1aqPE4cMGQ+sZrhRyzHu1af6uDIC7Ga2IlhTU99ULlYSg4wbSbeCoJAqwx8fHysrKyIz+wndnMpC1du+wsOsAiLabUhn40MISa5Yid/0T7lp1JygLGUCVKr1YqiWBJCxQRcyvKV257FAcb5YifMPRgzkHtWI5Tr/5wDzBayk5JeiP3ETv55vUoJz+IAMdnkXogh9VntUK6XngNMZnRS0gsZcpvdXPrylTufygHiZDEXxC4aDUJPrVu5aEQOMJmxk5IQYj+xEyM2QCnqWRxQArlnccbcr5eEkLm3+DltnwIhSxWsAiEzkZwCITMRRJmboUCozCwzzQMKhEzDV9OXqkDI9DwuVQ0KhErFJjO8SYGQmQhFgZCZCKLMzVAgVGaWmeYBBUKm4avpS1UgZHoel6oGBUKlYpMZ3qRAyEyEokDITARR5mYoECozy0zzgAIh0/DV9KUqEDI9j0tVgwKhUrHJDG9SIGQmQlEgZCaCKHMzFAiVmWWmeUCBkGn4avpSFQiZnselqkGBUKnYZIY3KRAyE6EoEDITQZS5GQqEyswy0zygQMg0fDV9qbRqtVWrVi+//LLhYjvT16zU8CcOKBD6EzvM/wtbTkcQ8vX1pX3kaMsEBUsVL0EFQhXP8/LXyPBDL5gRBOHUqVMHDx6kZckMP3Rb+atRniwLBxQIlYVbZnAvQ1ExnBRDkRm09EVpggIhS5I02wSD9lsstomp4fZXxQBmSURaWlsVCFmSxBiE2Palz7piSVRZeFsVCFmSAA0BY3hOvSC6Qm87VLxQhclVgVCFsdoIFbGOEJXFcFLshLBkhPqUIkrBAQVCpWCSOd3yF2hhP5lTe5//tri4OP0/iET3KjHMpfEAAAAASUVORK5CYII=;" parent="135" vertex="1">
                    <mxGeometry x="11" y="25.5" width="278" height="169" as="geometry"/>
                </mxCell>
                <mxCell id="139" value="Potential Divider" style="swimlane;gradientColor=none;startSize=23;fontColor=#000000;fillColor=#DE7A73;strokeColor=#DE7A73;" parent="1" vertex="1">
                    <mxGeometry x="940" y="1030" width="340" height="120" as="geometry"/>
                </mxCell>
                <mxCell id="141" value="\[V_1=\frac{R_1}{R_1+R_2}V=\frac{R_1}{R_1+R_2+r}\varepsilon\]" style="rounded=1;whiteSpace=wrap;html=1;shadow=0;labelBackgroundColor=none;strokeColor=none;strokeWidth=3;fontFamily=Helvetica;fontSize=14;align=center;spacing=5;fontStyle=0;arcSize=7;perimeterSpacing=2;fontColor=#000000;fillColor=#f08e81;" parent="139" vertex="1">
                    <mxGeometry x="11.5" y="37.5" width="317" height="72.5" as="geometry"/>
                </mxCell>
                <mxCell id="142" value="" style="edgeStyle=none;rounded=1;jumpStyle=none;html=1;shadow=0;labelBackgroundColor=none;startArrow=none;startFill=0;jettySize=auto;orthogonalLoop=1;strokeColor=#E85642;strokeWidth=3;fontFamily=Helvetica;fontSize=14;fontColor=#FFFFFF;spacing=5;fontStyle=1;fillColor=#b0e3e6;entryX=0;entryY=0;entryDx=0;entryDy=0;exitX=0;exitY=1;exitDx=0;exitDy=0;" parent="1" target="139" edge="1">
                    <mxGeometry relative="1" as="geometry">
                        <mxPoint x="750" y="1043" as="targetPoint"/>
                        <mxPoint x="860.4999999999995" y="879.9999999999998" as="sourcePoint"/>
                    </mxGeometry>
                </mxCell>
            </root>
        </mxGraphModel>
    </diagram>
</mxfile>